<svg width="168" height="170" viewBox="0 0 168 170" xmlns="http://www.w3.org/2000/svg" xmlns:xlink="http://www.w3.org/1999/xlink">
    <title>
        PBS-refresh
    </title>
    <defs>
        <path id="a" d="M83.515 169.364H0V0h167.031v169.364H83.515z"/>
    </defs>
    <g fill="none" fill-rule="evenodd">
        <mask id="b" fill="#fff">
            <use xlink:href="#a"/>
        </mask>
        <path d="M24.169 145.03c7.386 7.738 16.127 13.672 26.22 17.802a87.364 87.364 0 0 0 33.126 6.532c23.329-.467 42.458-8.399 57.854-23.329 15.864-14.93 24.262-33.592 25.662-56.454 0-1.4-.384-1.639-.384-1.639s-.49-.651-1.483-.694c-.994-.043-14.463 0-14.463 0-1.4 0-2.333.467-2.8.933-.466.467-.466 1.4-.466 1.866-1.4 17.263-7.932 31.727-19.596 42.924-11.664 11.198-26.594 17.263-43.857 17.73-9.331-.467-17.73-2.333-25.661-5.599-7.758-3.194-14.623-8.174-20.16-14.066l11.24-11.24c.784-.783.54-1.596-.531-1.814l-46.277-9.398c-.754-.153-1.241.332-1.088 1.088l9.398 46.277c.219 1.077 1.033 1.313 1.814.532l11.452-11.451zm103.25-106.7c-5.685-5.485-11.83-10.11-19.176-13.135-7.931-3.266-16.33-5.132-25.661-5.599-17.263.467-32.193 6.532-43.857 17.73-12.13 11.197-18.662 25.661-19.596 42.924 0 .466 0 1.399-.466 1.866-.467.466-1.4.933-2.8.933H1.868s-.467 0-.934-.467C.467 82.116 0 81.183 0 79.783c1.4-22.395 9.798-41.524 25.66-56.454C41.059 8.399 60.655.467 83.516 0c10.265.934 21.462 2.8 31.26 7.466 9.876 4.04 18.456 9.808 25.74 17.303l11.959-12.383c.769-.797 1.587-.568 1.823.5L164.5 58.992c.167.751-.31 1.247-1.068 1.107l-46.434-8.589c-1.081-.2-1.331-1.01-.564-1.805L127.42 38.33z" fill="#000" mask="url(#b)"/>
    </g>
</svg>
