<svg width="256" height="256" viewBox="0 0 256 256" xmlns="http://www.w3.org/2000/svg"><title>PBS-wifi</title><g fill="none" fill-rule="evenodd"><path d="M128.99 160c11.055 0 20.01 8.881 20.01 19.87 0 10.987-8.955 19.888-20.01 19.888-11.042 0-19.99-8.901-19.99-19.889S117.948 160 128.99 160z" fill="#000"/><path d="M71 148.197L82.593 160c25.119-25.967 66.082-25.967 91.2 0L185 148.197c-31.302-32.263-82.312-32.263-114 0" fill="#1A1A1A"/><path d="M49 122.387L60.094 134c37.492-38.323 97.937-38.323 135.429 0L207 122.387c-43.613-44.516-114.387-44.516-158 0" fill="#1A1A1A"/><path d="M222.752 103c-52.33-52.33-137.174-52.33-189.504 0" stroke="#222" stroke-width="15"/></g></svg>