<svg width="160" height="170" viewBox="0 0 160 170" xmlns="http://www.w3.org/2000/svg">
    <title>
        PBS-trash
    </title>
    <g fill-rule="evenodd">
        <path d="M13 43h20v107H13V43zm115 0h20v107h-20V43zM13 150h135v18.01c0 1.099-.898 1.99-2 1.99H15a2 2 0 0 1-2-1.99V150zM0 24.99C0 23.892.9 23 1.994 23h156.012c1.101 0 1.994.898 1.994 1.99v16.02c0 1.099-.9 1.99-1.994 1.99H1.994A1.997 1.997 0 0 1 0 41.01V24.99z"/>
        <path d="M99.33 15H64.497L51.379 37.72l-12.99-7.5L55.384.785c.109-.189.27-.33.453-.414.328-.233.73-.37 1.165-.37h49.996a2 2 0 0 1 1.983 1.716l.013.023 16.496 28.57-12.99 7.5L99.33 15zM46 62h15v70H46V62zm27 0h15v70H73V62zm27 0h15v70h-15V62z"/>
    </g>
</svg>
