<svg width="233" height="170" viewBox="0 0 233 170" xmlns="http://www.w3.org/2000/svg">
    <title>
        PBS-component_photo_gallery
    </title>
    <path d="M53.946 152.653H50.67a2.005 2.005 0 0 1-1.998-2.008V19.356c0-1.112.894-2.009 1.998-2.009h131.309c1.102 0 2 .9 2 2.008v123.823L144.09 79l-28.34 38.667-25.64-17.334-36.165 52.32zm172.428-67.91L212.39 70.757a2 2 0 0 1-.005-2.832l1.12-1.119a2.004 2.004 0 0 1 2.831.005l16.45 16.448a2 2 0 0 1 .108 2.72 2.033 2.033 0 0 1-.367.502l-16.449 16.448a1.998 1.998 0 0 1-2.83.005l-1.12-1.119a2.004 2.004 0 0 1 .004-2.832l14.242-14.242zm-219.373 0l13.984-13.985a1.999 1.999 0 0 0 .004-2.832l-1.119-1.119a2.003 2.003 0 0 0-2.83.005L.59 83.26a2 2 0 0 0-.109 2.72c.093.18.215.35.367.502l16.45 16.448a1.998 1.998 0 0 0 2.83.005l1.12-1.119c.78-.78.778-2.049-.005-2.832L7.001 84.742zM33.318 0a1.99 1.99 0 0 0-1.994 2v166a2 2 0 0 0 1.994 2H199.33a1.992 1.992 0 0 0 1.994-2V2a2 2 0 0 0-1.994-2H33.318zm57.506 80c12.426 0 22.5-10.074 22.5-22.5S103.25 35 90.824 35c-12.427 0-22.5 10.074-22.5 22.5S78.397 80 90.824 80z" fill-rule="evenodd"/>
</svg>
