<svg width="256" height="256" viewBox="0 0 256 256" xmlns="http://www.w3.org/2000/svg"><title>PBS-component_image</title><g fill="#222" fill-rule="evenodd"><path d="M40 43c-1.105 0-2 .887-2 2v166c0 1.105.887 2 2 2h181c1.105 0 2-.887 2-2V45c0-1.105-.887-2-2-2H40zm15.007 15A2.003 2.003 0 0 0 53 59.994v136.012c0 1.101.897 1.994 2.007 1.994H205.993a2.003 2.003 0 0 0 2.007-1.994V59.994A1.999 1.999 0 0 0 205.993 58H55.007z"/><path d="M49 177.004l40.397-31.385 35.863 17.758L171.015 94 211 131.992l-.412 64.834S63.4 197.564 50.648 196" stroke="#222" stroke-width="10"/><ellipse cx="89" cy="94.5" rx="20" ry="20.5"/></g></svg>