<svg width="172" height="172" viewBox="0 0 172 172" xmlns="http://www.w3.org/2000/svg">
    <title>
        PBS-help_line
    </title>
    <path d="M86 0C38.503 0 0 38.504 0 86s38.503 86 86 86 86-38.504 86-86S133.497 0 86 0zm0 152c-36.451 0-66-29.549-66-66s29.549-66 66-66 66 29.549 66 66-29.549 66-66 66zm1.006-36.325c-6.061 0-10.977 4.914-10.977 10.974 0 6.063 4.916 10.979 10.977 10.979 6.062 0 10.977-4.916 10.977-10.979 0-6.06-4.915-10.974-10.977-10.974zm-.966-78.707c-25.178 0-30.914 19.325-31.383 32.325h17.598c.309-2 1.13-15.65 13.679-15.65 7.53 0 13.504 4.665 13.504 13.272 0 7.785-8.305 12.99-14.792 19.224-6.487 6.231-7.5 13.456-7.5 19.043v2.111h18v-2.11c0-14.068 22.278-17.972 22.278-39.784 0-13.704-9.565-28.43-31.384-28.43z" fill-rule="evenodd"/>
</svg>
