<svg width="167" height="167" viewBox="0 0 167 167" xmlns="http://www.w3.org/2000/svg">
    <title>
        PBS-link
    </title>
    <path d="M122.38 112.48l-17.85-17.85 7.778-7.78 33.942 33.943-25.457 25.456-33.942-33.942 8.487-8.485 17.85 17.85a2.001 2.001 0 0 0 2.834.003l6.36-6.36a2.002 2.002 0 0 0-.002-2.834zm-68.055-32.7L20.383 45.839 45.84 20.383l33.94 33.942-7.778 7.778-18.557-18.558a2 2 0 0 0-2.834-.002l-6.36 6.36a2.002 2.002 0 0 0 .002 2.834L62.81 71.295l-8.485 8.485zm111.718 39.594l-52.317-52.317a2.002 2.002 0 0 0-2.828-.01L93.923 84.024 82.608 72.709l16.976-16.975a2.001 2.001 0 0 0-.01-2.828L47.259.589a2.002 2.002 0 0 0-2.828-.01L.58 44.43a2.001 2.001 0 0 0 .01 2.829l52.316 52.317c.78.78 2.05.788 2.828.009L73.416 81.9l11.316 11.315-17.683 17.682a2.002 2.002 0 0 0 .008 2.828l52.317 52.317c.78.78 2.05.788 2.829.009l43.85-43.85a2 2 0 0 0-.01-2.828z" fill-rule="evenodd"/>
</svg>
