<?xml version="1.0" encoding="UTF-8" standalone="no"?>
<svg width="256px" height="256px" viewBox="0 0 256 256" version="1.1" xmlns="http://www.w3.org/2000/svg" xmlns:xlink="http://www.w3.org/1999/xlink">
    <!-- Generator: Sketch 39.1 (31720) - http://www.bohemiancoding.com/sketch -->
    <title>PBS-disqus</title>
    <desc>Created with Sketch.</desc>
    <defs></defs>
    <g id="Page-1" stroke="none" stroke-width="1" fill="none" fill-rule="evenodd">
        <g id="PBS-disqus" fill="#222222">
            <g id="disqus" transform="translate(40.774857, 42.439360)">
                <g transform="translate(-0.000000, 0.000000)" id="Icons">
                    <g>
                        <g id="disqus">
                            <path d="M90.6915468,170.358682 C69.8955037,170.358682 50.8809353,162.741756 36.1796764,150.141523 L0,155.095806 L13.9773381,120.518041 C9.10755395,109.747587 6.37553956,97.7909314 6.37553956,85.1793411 C6.37553956,38.1388921 44.1251797,0 90.6915468,0 C137.254137,0 175,38.1388921 175,85.1793411 C175,132.228623 137.255396,170.358682 90.6915468,170.358682 L90.6915468,170.358682 L90.6915468,170.358682 Z M136.729137,84.9357912 L136.729137,84.698551 C136.729137,60.1189481 119.435611,42.5921944 89.617626,42.5921944 L57.4125899,42.5921944 L57.4125899,127.771536 L89.1404675,127.771536 C119.190108,127.772797 136.729137,109.514132 136.729137,84.9357912 L136.729137,84.9357912 L136.729137,84.9357912 L136.729137,84.9357912 Z M89.9726618,106.843918 L80.5528777,106.843918 L80.5528777,63.5261218 L89.9726618,63.5261218 C103.807734,63.5261218 112.990827,71.4320264 112.990827,85.0670307 L112.990827,85.3042708 C112.990827,99.0541094 103.807734,106.843918 89.9726618,106.843918 L89.9726618,106.843918 L89.9726618,106.843918 Z" id="disqus_icon"></path>
                        </g>
                    </g>
                </g>
            </g>
        </g>
    </g>
</svg>