<svg width="172" height="171" viewBox="0 0 172 171" xmlns="http://www.w3.org/2000/svg">
    <title>
        PBS-duplicate
    </title>
    <path d="M169.706 170.706H41.294a2 2 0 0 1-2-2V40.293a2 2 0 0 1 2-2h128.412a2 2 0 0 1 2 2v128.413a2 2 0 0 1-2 2zM59.603 150.397h91.795V58.602H59.603v91.795zM133 18.492V2.473C133 1.381 132.472 0 131.483 0H1.946C.965 0 0 1.375 0 2.475V149.49c0 1.106.959 1.51 1.946 1.51h16.396c.981 0 1.658-.409 1.658-1.51V20h111.483c.993 0 1.517-.409 1.517-1.508zM83.524 109H101v16.959c0 1.107.418 2.04 1.523 2.04h6c1.113 0 2.477-.934 2.477-2.04v-16.96h16.522c1.106 0 2.478-.933 2.478-2.038v-6.001c0-1.112-1.373-1.96-2.478-1.96H111V81.962c0-1.106-1.372-1.962-2.477-1.962h-6c-1.112 0-1.523.857-1.523 1.962V99H83.524c-1.106 0-1.524.856-1.524 1.96v6c0 1.113.419 2.04 1.524 2.04z" fill-rule="evenodd"/>
</svg>
