<svg width="171" height="171" viewBox="0 0 171 171" xmlns="http://www.w3.org/2000/svg">
    <title>
        PBS-pinterest_box
    </title>
    <path d="M171 20c0-11.046-8.954-20-20-20H20C8.954 0 0 8.954 0 20v131c0 11.045 8.954 20 20 20h131c11.046 0 20-8.955 20-20V20zm-76.512 97.127c-8.129 0-15.75-4.22-18.36-9.198 0 0-4.019 15.292-4.995 19.035-1.806 6.961-7.796 17.691-9.952 20.998l-2.368 3.631c-1.024 1.572-2.106 1.331-2.4-.55 0 0-.057-.032-.705-5.022-.65-4.983-1.332-16.056.282-22.973 1.45-6.25 9.388-39.806 9.388-39.806s-2.399-4.797-2.399-11.884c0-11.148 6.455-19.452 14.495-19.452 6.831 0 10.127 5.127 10.127 11.283 0 6.861-4.373 17.142-6.63 26.665-1.885 7.965 4 14.462 11.856 14.462 14.24 0 25.183-15.006 25.183-36.67 0-19.174-13.775-32.584-33.455-32.584-22.788 0-36.159 17.095-36.159 34.758 0 6.884 2.651 14.264 5.958 18.273.655.8.75 1.486.553 2.298-.605 2.527-1.958 7.968-2.223 9.083-.35 1.47-1.158 1.774-2.68 1.073-9.998-4.656-16.255-19.284-16.255-31.028 0-25.255 18.36-48.458 52.917-48.458 27.778 0 49.366 19.793 49.366 46.257 0 27.588-17.399 49.81-41.544 49.81z" fill-rule="evenodd"/>
</svg>
