<svg width="202" height="172" viewBox="0 0 202 172" xmlns="http://www.w3.org/2000/svg">
    <title>
        PBS-component_video_line
    </title>
    <g fill="#222" fill-rule="evenodd">
        <path d="M138.063 87.994c1.912-1.101 1.917-2.884 0-3.988l-7.82-4.505-46-26.5-7.778-4.48C74.551 47.417 73 48.313 73 50.522v70.955c0 2.209 1.552 3.105 3.465 2.003l7.779-4.481 46-26.5 7.82-4.505zm-21.74-.178c1.922-1.082 1.915-2.838 0-3.915l-2.249-1.264L90.711 69.5l-2.225-1.25C86.561 67.167 85 68.08 85 70.29v31.136c0 2.209 1.56 3.123 3.486 2.04l2.225-1.25 23.363-13.137 2.248-1.263z"/>
        <path d="M200 0c1.105 0 2 .905 2 1.991V170.01c0 1.1-.9 1.991-2 1.991H2c-1.105 0-2-.905-2-1.991V1.99C0 .891.9 0 2 0h198zm-13 15v142H15V15h172z"/>
    </g>
</svg>
