<?xml version="1.0" encoding="UTF-8" standalone="no"?>
<svg width="256px" height="256px" viewBox="0 0 256 256" version="1.1" xmlns="http://www.w3.org/2000/svg" xmlns:xlink="http://www.w3.org/1999/xlink">
    <!-- Generator: Sketch 39.1 (31720) - http://www.bohemiancoding.com/sketch -->
    <title>PBS-countdown</title>
    <desc>Created with Sketch.</desc>
    <defs></defs>
    <g id="Page-1" stroke="none" stroke-width="1" fill="none" fill-rule="evenodd">
        <g id="PBS-countdown" fill="#222222">
            <g id="countdown" transform="translate(71.126903, 44.774857)">
                <g transform="translate(0.000000, -0.000000)" id="Icons">
                    <g>
                        <g id="countdown">
                            <path d="M111.333333,21.4525418 L111.333333,1.99893887 C111.333333,0.894955416 110.437162,0 109.329857,0 L2.00347663,0 C0.89698704,0 0,0.894476809 0,1.99893887 L0,21.4525418 C0,31.60475 3.674,41.5760418 10.3470418,49.5294168 L31.8274168,75.1360832 C35.7658332,79.846875 35.7936668,86.443375 31.8900418,91.182 L10.1104582,117.581917 C3.5905,125.486583 0,135.360458 0,145.380458 L0,165.004837 C0,166.106735 0.89617136,167 2.00347663,167 L109.329857,167 C110.436346,167 111.333333,166.09856 111.333333,165.004837 L111.333333,145.380458 C111.333333,135.360458 107.735875,125.493542 101.222875,117.588875 L79.4432918,91.1889582 C75.5327082,86.4503332 75.5605418,79.8538332 79.5059168,75.1430418 L100.986292,49.536375 C107.652375,41.583 111.333333,31.60475 111.333333,21.4525418 Z M92,20 C92,27.8999938 89.79175,34.7093434 85.795,40.3347703 L79.8455,48.7083332 L31.1545,48.7083332 L25.205,40.3347703 C21.19,34.7021683 19,27.8784679 19,20 L92,20 L92,20 L92,20 Z M91.6770833,146.125 L85.3092413,146.125 C73.6718751,132.208333 55.6666668,132.208333 55.6666668,132.208333 C55.6666668,132.208333 37.6614585,132.208333 26.024092,146.125 L19.6562502,146.125 C19.6562502,138.443 21.7208472,131.936958 25.6339794,126.439875 L44.4134116,100.046917 C46.4660053,97.1592082 47.8404028,93.8818332 48.680646,90.4652918 L49.6649305,90.4652918 L49.6649305,92.4220929 C49.6649305,95.1843628 51.8945604,97.423625 54.6685642,97.423625 L56.6647691,97.423625 C59.4281997,97.423625 61.6684028,95.1836628 61.6684028,92.4220929 L61.6684028,90.4652918 L62.6466857,90.4652918 C63.4929305,93.8818332 64.8613263,97.1592082 66.91392,100.039958 L85.6993542,126.439875 C89.612486,131.943917 91.6770833,138.443 91.6770833,146.125 Z" id="countdown_icon"></path>
                        </g>
                    </g>
                </g>
            </g>
            <circle id="Oval-3" cx="126.5" cy="151.5" r="5.5"></circle>
            <circle id="Oval-3-Copy" cx="126.5" cy="168.5" r="5.5"></circle>
        </g>
    </g>
</svg>