<svg width="256" height="256" viewBox="0 0 256 256" xmlns="http://www.w3.org/2000/svg"><title>PBS-refresh</title><g fill="#222" fill-rule="evenodd"><path d="M212.037 130.41s.384.24.384 1.639c-1.4 22.862-9.798 41.524-25.662 56.454-15.396 14.93-34.525 22.862-57.854 23.329A87.36 87.36 0 0 1 95.78 205.3c-10.264-4.2-19.129-10.265-26.594-18.196l13.997-13.997c5.599 6.065 12.597 11.197 20.529 14.463s16.33 5.132 25.661 5.599c17.263-.467 32.193-6.532 43.857-17.73 11.664-11.197 18.196-25.66 19.596-42.924 0-.466 0-1.4.466-1.866.467-.466 1.4-.933 2.8-.933 0 0 13.47-.043 14.463 0 .994.043 1.483.694 1.483.694zM186.76 68.13l-12.597 13.996c-6.065-6.065-12.597-11.197-20.529-14.463-7.931-3.266-16.33-5.132-25.66-5.599-17.264.467-32.194 6.532-43.858 17.73-12.13 11.197-18.662 25.66-19.596 42.924 0 .466 0 1.4-.466 1.866-.467.466-1.4.933-2.8.933H47.258s-.467 0-.934-.467c-.466-.466-.933-1.4-.933-2.799 1.4-22.395 9.798-41.524 25.661-56.454 15.397-14.93 34.993-22.862 57.854-23.329 10.265.934 21.462 2.8 31.26 7.466 10.265 4.199 19.13 10.264 26.594 18.196z"/><path d="M208.823 102.567l-46.434-8.589c-1.08-.2-1.331-1.01-.564-1.805l36.039-37.319c.77-.797 1.587-.568 1.823.5l10.204 46.106c.167.751-.31 1.247-1.068 1.107zM46.895 152.14l9.398 46.277c.219 1.077 1.033 1.313 1.814.532l36.685-36.685c.783-.783.54-1.596-.532-1.814l-46.277-9.398c-.754-.153-1.241.332-1.088 1.088z"/></g></svg>