<?xml version="1.0" encoding="UTF-8" standalone="no"?>
<svg width="256px" height="256px" viewBox="0 0 256 256" version="1.1" xmlns="http://www.w3.org/2000/svg" xmlns:xlink="http://www.w3.org/1999/xlink">
    <!-- Generator: Sketch 39.1 (31720) - http://www.bohemiancoding.com/sketch -->
    <title>PBS-tumblr_box</title>
    <desc>Created with Sketch.</desc>
    <defs></defs>
    <g id="Page-1" stroke="none" stroke-width="1" fill="none" fill-rule="evenodd">
        <g id="PBS-tumblr_box" fill="#222222">
            <g id="tumblr-square" transform="translate(42.735909, 42.735909)">
                <path d="M28.5475832,0 C12.8448069,0 0,12.8448069 0,28.5475832 L0,142.716508 C0,158.429989 12.8448069,171.264091 28.5475832,171.264091 L142.727212,171.264091 C158.424637,171.264091 171.264091,158.429989 171.264091,142.716508 L171.264091,28.5475832 C171.264091,12.8501589 158.424637,0 142.727212,0 L28.5475832,0 Z M122.378897,137.926466 C117.337311,140.297403 112.755996,141.97258 108.661714,142.93594 C104.567432,143.888597 100.135973,144.364925 95.383395,144.364925 C89.9778721,144.364925 86.7934304,143.685221 82.6402761,142.325812 C78.4924739,140.955699 74.944096,139.002218 72.0219025,136.492129 C69.0836529,133.960632 67.0552438,131.273926 65.9206192,128.432013 C64.7859946,125.590099 64.2240343,121.458353 64.2240343,116.05283 L64.2240343,74.6069199 L48.1680257,74.6069199 L48.1680257,57.8712069 C52.8082122,56.3672941 58.1923271,54.205085 61.4945128,51.3899315 C64.8127546,48.5694259 67.467348,45.1923121 69.4689971,41.242534 C71.4759982,37.3034599 72.8568149,32.2725772 73.6114473,26.176646 L90.4220883,26.176646 L90.4220883,53.5146766 L117.744063,53.5146766 L117.744063,74.6069199 L90.4167363,74.6069199 L90.4167363,104.90996 C90.4167363,111.765876 90.3257522,115.721006 91.0536246,117.663783 C91.776145,119.595856 93.585122,121.602857 95.554659,122.764242 C98.1717884,124.332378 101.158206,125.113771 104.524616,125.113771 C110.508155,125.113771 116.464934,123.170994 122.378897,119.280088 L122.378897,137.915762 L122.378897,137.926466 Z" id="Shape"></path>
            </g>
        </g>
    </g>
</svg>