<?xml version="1.0" encoding="UTF-8" standalone="no"?>
<svg width="256px" height="256px" viewBox="0 0 256 256" version="1.1" xmlns="http://www.w3.org/2000/svg" xmlns:xlink="http://www.w3.org/1999/xlink">
    <!-- Generator: Sketch 39.1 (31720) - http://www.bohemiancoding.com/sketch -->
    <title>PBS-component_whats_on</title>
    <desc>Created with Sketch.</desc>
    <defs></defs>
    <g id="Page-1" stroke="none" stroke-width="1" fill="none" fill-rule="evenodd">
        <g id="PBS-component_whats_on" fill="#222222">
            <g id="help" transform="translate(105.000000, 73.000000)">
                <path d="M23.4937012,72.8237052 C19.1365376,72.8237052 15.6028198,69.2899876 15.6028198,64.931027 C15.6028198,60.5747616 19.1365376,57.042242 23.4937012,57.042242 C27.8517634,57.042242 31.3842831,60.5747616 31.3842831,64.931027 C31.3842831,69.2899876 27.8517634,72.8237052 23.4937012,72.8237052 L23.4937012,72.8237052 L23.4937012,72.8237052 Z M29.6972526,49.49973 L29.6972526,50.9192679 L16.6901637,50.9192679 L16.6901637,49.49973 C16.6901637,45.4834472 17.2760713,40.3306953 21.9390691,35.8510183 C26.6026659,31.3704427 32.4302899,27.669879 32.4302899,22.0732033 C32.4302899,15.8861268 28.13633,12.6133116 22.722376,12.6133116 C13.701316,12.6133116 13.1115142,21.9692616 12.8892528,24.0295236 L0.238620975,24.0295236 C0.575607729,14.2733831 4.6991272,0.627067822 22.7987597,0.627067822 C38.4837698,0.627067822 45.5356295,11.1320677 45.5356295,20.9831635 C45.5356295,36.663381 29.6972526,39.3871325 29.6972526,49.49973 L29.6972526,49.49973 L29.6972526,49.49973 Z" id="help-3-icon"></path>
            </g>
            <g id="Group" transform="translate(24.000000, 42.000000)">
                <path d="M1.99711101,0 C0.894137057,0 0,0.886706352 0,1.99810135 L0,8 L0,128 L0,134.001899 C0,135.10542 0.901076175,136 1.99711101,136 L11.2432432,136 L196.756757,136 L206.002889,136 C207.105863,136 208,135.113294 208,134.001899 L208,128 L208,8 L208,1.99810135 C208,0.894580447 207.098924,0 206.002889,0 L196.756757,0 L11.2432432,0 L1.99711101,0 Z M21.9928818,20.9230769 C20.8922436,20.9230769 20,21.8129266 20,22.9225886 L20,26.4615385 L20,109.538462 L20,113.077411 C20,114.181711 20.9039286,115.076923 21.9928818,115.076923 L29.0810811,115.076923 L178.918919,115.076923 L186.007118,115.076923 C187.107756,115.076923 188,114.187073 188,113.077411 L188,109.538462 L188,26.4615385 L188,22.9225886 C188,21.8182888 187.096071,20.9230769 186.007118,20.9230769 L178.918919,20.9230769 L29.0810811,20.9230769 L21.9928818,20.9230769 Z" id="Combined-Shape"></path>
            </g>
            <rect id="Rectangle-3" x="80" y="194" width="99" height="20" rx="2"></rect>
            <rect id="Rectangle-3-Copy" x="119" y="176" width="20" height="20" rx="2"></rect>
        </g>
    </g>
</svg>