<svg width="256" height="256" viewBox="0 0 256 256" xmlns="http://www.w3.org/2000/svg"><title>PBS-archive</title><g fill="#221F20" fill-rule="evenodd"><path d="M52.071 198.97H203.93v-66.94h-16.08l-25.134 19.64H94.179L69.47 132.03H52.071v66.94zM216.124 213H39.876A1.873 1.873 0 0 1 38 211.13v-91.26c0-1.033.84-1.87 1.876-1.87h35.116c.54 0 1.053.232 1.41.636l24.148 19.005h55.866l24.574-19.017a1.883 1.883 0 0 1 1.4-.624h33.734c1.036 0 1.876.837 1.876 1.87v91.26c0 1.033-.84 1.87-1.876 1.87z"/><path d="M49.195 126l-10.37-5.188a1.885 1.885 0 0 1-.487-2.636l51.804-75.373A1.87 1.87 0 0 1 91.676 42h76.293c.64 0 1.236.328 1.58.87l47.158 75.74a1.886 1.886 0 0 1-.578 2.6l-10.737 4.527-44.133-69.633H98.032L49.195 126z"/><path d="M154.099 73H103.9c-1.535 0-2.435-1.821-1.554-3.147l3.986-6a1.87 1.87 0 0 1 1.555-.853h43.363c.72 0 1.377.428 1.698 1.106l2.848 6c.631 1.329-.287 2.894-1.698 2.894M167.111 91H90.89c-1.526 0-2.42-1.821-1.545-3.147l3.96-6A1.854 1.854 0 0 1 94.85 81h68.302c.615 0 1.192.318 1.544.853l3.96 6c.876 1.326-.018 3.147-1.544 3.147M177.118 109H79.882c-1.52 0-2.41-1.821-1.54-3.147l3.946-6a1.848 1.848 0 0 1 1.54-.853h89.909c.66 0 1.272.369 1.61.971l3.382 6c.752 1.333-.15 3.029-1.61 3.029"/></g></svg>