<svg width="206" height="110" viewBox="0 0 206 110" xmlns="http://www.w3.org/2000/svg">
    <title>
        PBS-slideout_nav_open
    </title>
    <path d="M205.683 53.787l-21.91-21.91a2 2 0 0 0-2.833-.006l-4.243 4.243a2.006 2.006 0 0 0 .005 2.834l16.344 16.343-16.344 16.344a1.997 1.997 0 0 0-.005 2.833l4.243 4.243a2.006 2.006 0 0 0 2.834-.005l21.909-21.91c.423-.423.62-.984.589-1.535a2.003 2.003 0 0 0-.59-1.474zM147.847 90H1.86C.754 90 0 90.597 0 91.698v16.017C0 108.808.753 110 1.86 110h145.987c1.107 0 2.153-1.185 2.153-2.285V91.698c0-1.094-1.045-1.698-2.153-1.698zm0-45H1.86C.754 45 0 45.597 0 46.698v16.017C0 63.808.753 65 1.86 65h145.987c1.107 0 2.153-1.185 2.153-2.285V46.698c0-1.094-1.045-1.698-2.153-1.698zm0-45H1.86C.754 0 0 .597 0 1.698v16.017C0 18.808.753 20 1.86 20h145.987c1.107 0 2.153-1.185 2.153-2.285V1.698C150 .604 148.955 0 147.847 0z" fill-rule="evenodd"/>
</svg>
