<svg width="172" height="172" viewBox="0 0 172 172" xmlns="http://www.w3.org/2000/svg">
    <title>
        PBS-download_circle
    </title>
    <g fill="#222" fill-rule="evenodd">
        <path d="M86 152c-36.393 0-66-29.607-66-66s29.607-66 66-66 66 29.607 66 66-29.607 66-66 66M86 0C38.58 0 0 38.58 0 86s38.58 86 86 86 86-38.58 86-86S133.42 0 86 0"/>
        <path d="M110.828 92.294H95.146V36.996c0-1.102-1.155-1.702-2.248-1.702H76.88c-1.1 0-1.734.6-1.734 1.702v55.298H59.2c-1.102 0-1.503.845-.893 1.77l25.942 39.405c.422.642 1.107.668 1.53.025l25.942-39.442c.609-.923.206-1.758-.893-1.758"/>
    </g>
</svg>
