<?xml version="1.0" encoding="UTF-8" standalone="no"?>
<svg width="256px" height="256px" viewBox="0 0 256 256" version="1.1" xmlns="http://www.w3.org/2000/svg" xmlns:xlink="http://www.w3.org/1999/xlink">
    <!-- Generator: Sketch 39.1 (31720) - http://www.bohemiancoding.com/sketch -->
    <title>PBS-rewind</title>
    <desc>Created with Sketch.</desc>
    <defs></defs>
    <g id="Page-1" stroke="none" stroke-width="1" fill="none" fill-rule="evenodd">
        <g id="PBS-rewind" fill="#222222">
            <g id="Group" transform="translate(28.000000, 24.000000)">
                <g id="Page-1" transform="translate(109.466593, 116.543967) scale(-1, 1) rotate(-55.000000) translate(-109.466593, -116.543967) translate(37.966593, 34.043967)">
                    <path d="M82.7867864,164.900285 C62.5314257,164.900285 42.2361922,157.504838 26.3431009,142.574389 C10.2867213,127.492993 1.06567146,107.059154 0.377391719,85.0398988 C-0.30993867,63.0215926 7.61714524,42.0532689 22.7004398,25.9968893 C53.6502437,-6.94940054 96.7356061,1.11344061 101.666537,2.17006868 C105.297806,2.76151459 125.205704,6.8351813 139.269395,26.6225118 C139.895967,27.5035099 139.688059,28.7262745 138.787125,29.3253152 L126.129423,37.7451124 C125.288298,38.3042804 124.148127,38.108714 123.554782,37.2913225 C113.299889,23.1554806 98.8602544,20.9415933 98.7121556,20.9226062 L98.2336825,20.8608984 L97.7618549,20.751723 C96.308398,20.4241968 61.0969558,12.8550183 36.5391346,38.9963575 C24.9285674,51.355963 18.8251875,67.4977843 19.3558749,84.4475036 C19.8846636,101.397223 26.9839131,117.126076 39.3435186,128.736644 C64.4016479,152.275811 103.681061,151.482153 127.785092,127.275592 C128.516092,126.541743 129.691389,126.50282 130.447073,127.211985 L141.520307,137.614977 C142.291181,138.339333 142.331054,139.564945 141.588661,140.31968 C125.522788,156.65232 104.177571,164.900285 82.7867864,164.900285" id="Fill-1"></path>
                </g>
                <g id="Page-1" transform="translate(98.097473, 42.502240) scale(-1, 1) rotate(-56.000000) translate(-98.097473, -42.502240) translate(67.597473, 13.502240)">
                    <path d="M31.1226178,10.6198352 L54.3590711,45.6990389 C54.9717491,46.623976 54.5781156,47.3737856 53.4747255,47.3737856 L7.39222375,47.3737856 C6.29113519,47.3737856 5.89587543,46.6229566 6.50787819,45.6990389 L29.7443315,10.6198352 C30.1249347,10.0452527 30.7409768,10.0436861 31.1226178,10.6198352 Z" id="Triangle-2" transform="translate(30.433864, 28.781048) rotate(-213.000000) translate(-30.433864, -28.781048) "></path>
                </g>
                <g id="Page-1-Copy" transform="translate(69.213582, 42.559148) scale(-1, 1) rotate(-56.000000) translate(-69.213582, -42.559148) translate(38.213582, 13.059148)">
                    <path d="M31.7347243,11.1842716 L54.9711776,46.2634753 C55.5838556,47.1884124 55.1902221,47.938222 54.086832,47.938222 L8.0043302,47.938222 C6.90324164,47.938222 6.50798188,47.187393 7.11998464,46.2634753 L30.3564379,11.1842716 C30.7370412,10.6096891 31.3530833,10.6081225 31.7347243,11.1842716 Z" id="Triangle-2" transform="translate(31.045970, 29.345485) rotate(-213.000000) translate(-31.045970, -29.345485) "></path>
                </g>
                <text id="10" font-family="OpenSans-Bold, Open Sans" font-size="60" font-weight="bold" letter-spacing="3">
                    <tspan x="63" y="129">10</tspan>
                </text>
            </g>
        </g>
    </g>
</svg>