<svg width="111" height="173" viewBox="0 0 111 173" xmlns="http://www.w3.org/2000/svg">
    <title>
        PBS-local_pin_line
    </title>
    <g fill-rule="evenodd">
        <path d="M55.296 148.015C42.869 130.858 15 88.658 15 55.313 15 33.084 33.085 15 55.313 15s40.312 18.084 40.312 40.313c0 33.065-27.91 75.47-40.33 92.702M55.314 0C24.813 0 0 24.813 0 55.313c0 47.93 47.452 107.385 49.472 109.892l5.857 7.271 5.837-7.287c2.019-2.52 49.459-62.285 49.459-109.876C110.625 24.813 85.812 0 55.313 0"/>
        <path d="M55.313 71.297c-8.45 0-15.326-6.875-15.326-15.325s6.875-15.324 15.325-15.324 15.326 6.874 15.326 15.324-6.876 15.325-15.326 15.325m0-40.649c-13.963 0-25.324 11.36-25.324 25.324 0 13.964 11.36 25.325 25.325 25.325 13.963 0 25.325-11.36 25.325-25.325 0-13.964-11.362-25.324-25.326-25.324"/>
    </g>
</svg>
