<svg width="256" height="256" viewBox="0 0 256 256" xmlns="http://www.w3.org/2000/svg" xmlns:xlink="http://www.w3.org/1999/xlink"><title>PBS-facebook_like_line</title><defs><path id="a" d="M98.5 169H0V0h197v169H98.5z"/></defs><g transform="translate(31 44)" fill="none" fill-rule="evenodd"><mask id="b" fill="#fff"><use xlink:href="#a"/></mask><path d="M170.5 92.182s3.144 3.163 4.043 9.037c.449 9.49-10.78 11.749-10.78 11.749s5.839 3.615 5.839 8.134c0 10.393-12.127 11.296-12.127 11.296s4.94 3.615 4.94 9.49c0 9.037-8.084 10.845-8.084 10.845H98.187c-4.491 0-27.398-11.297-27.398-11.297h-3.144V79.529s10.78-1.355 13.475-1.807c2.695-.452 22.008-35.246 22.008-35.246V22.594s1.797-4.971 8.085-5.875c10.33.452 14.372 10.393 16.618 15.816 2.246 5.422 1.797 18.075-.898 26.66-2.695 8.586.45 12.653.45 12.653h46.261s7.187 1.355 7.187 10.393c-.45 8.133-10.33 9.94-10.33 9.94zM50.578 152.28h-26.5l-6.737-84.048h32.788v84.048h.449zM190.712 98.96C194.754 94.44 197 88.567 197 81.789c0-15.364-10.78-24.401-20.66-26.66-.9 0-1.797-.453-3.145-.453h-29.194c1.796-9.94 1.347-21.237-1.797-28.92C139.509 19.43 131.874.905 111.213 0h-3.593C96.39 1.807 89.654 9.49 86.959 15.816c-.899 1.807-1.348 4.066-1.348 6.326v15.363c-4.94 9.038-10.78 18.979-14.372 24.401-3.144.452-6.738.904-6.738.904-2.245-6.326-8.084-10.845-15.27-10.845H16.442c-4.941 0-9.433 2.26-12.577 5.875S-.625 66.425.273 71.396l6.737 84.048C8.358 163.126 15.095 169 23.18 169h26.5c7.186 0 13.474-4.97 15.72-11.297h1.347C90.103 169 95.043 169 97.738 169h56.144c1.347 0 2.246 0 3.593-.452 9.881-2.26 20.66-11.749 20.66-26.66v-2.26c4.492-4.518 7.187-10.845 7.187-18.526 0-1.356 0-2.26-.449-3.615 3.593-4.52 5.39-10.393 4.94-17.171.899-.452.899-.904.899-1.356z" fill="#1A1A1A" mask="url(#b)"/></g></svg>