<svg width="256" height="256" viewBox="0 0 256 256" xmlns="http://www.w3.org/2000/svg" xmlns:xlink="http://www.w3.org/1999/xlink">
    <title>
        PBS-expand
    </title>
    <defs>
        <path id="a" d="M80.722.965H.594V80.89h80.128V.965z"/>
    </defs>
    <g fill="none" fill-rule="evenodd">
        <path d="M111.388 131.493a2 2 0 0 0-2.834.005l-38.395 38.395a2.24 2.24 0 0 0-.124.136l-12.763-12.763c-.78-.78-1.587-.543-1.804.539L45.03 209.784c-.17.843.375 1.39 1.22 1.22l51.979-10.437c1.077-.216 1.325-1.018.539-1.804L85.807 185.8a1.75 1.75 0 0 0 .136-.124l38.395-38.395a2.009 2.009 0 0 0 .005-2.834l-12.955-12.955zm34.894-6.155l38.396-38.396c.043-.043.084-.089.123-.135l12.962 12.962c.786.785 1.588.538 1.804-.539l10.437-51.979c.17-.846-.377-1.39-1.22-1.22l-51.979 10.437c-1.082.217-1.319 1.024-.539 1.803l12.763 12.763a2.27 2.27 0 0 0-.136.124l-38.395 38.396a2 2 0 0 0-.005 2.834l12.955 12.954c.776.777 2.05.78 2.834-.004" fill="#000"/>
        <g transform="translate(45 45.035)">
            <mask id="b" fill="#fff">
                <use xlink:href="#a"/>
            </mask>
            <path d="M41.736 26.123a2.27 2.27 0 0 0-.136-.124l12.762-12.763c.78-.78.544-1.586-.538-1.803L1.844.996c-.843-.17-1.39.374-1.22 1.22l10.438 51.979c.216 1.077 1.019 1.324 1.804.539l12.962-12.962c.038.046.08.092.123.135l38.396 38.396a2.008 2.008 0 0 0 2.834.004l12.954-12.954a2 2 0 0 0-.004-2.834L41.736 26.123z" fill="#000" mask="url(#b)"/>
        </g>
        <path d="M210.598 209.784l-10.437-51.98c-.217-1.081-1.024-1.318-1.804-.538l-12.763 12.763a1.954 1.954 0 0 0-.124-.136l-38.395-38.395a2 2 0 0 0-2.834-.005l-12.955 12.955a2.009 2.009 0 0 0 .005 2.834l38.395 38.395c.044.044.09.086.136.124l-12.962 12.962c-.785.786-.538 1.588.54 1.804l51.978 10.437c.845.17 1.39-.377 1.22-1.22" fill="#000"/>
    </g>
</svg>
