<?xml version="1.0" encoding="UTF-8" standalone="no"?>
<svg width="256px" height="256px" viewBox="0 0 256 256" version="1.1" xmlns="http://www.w3.org/2000/svg" xmlns:xlink="http://www.w3.org/1999/xlink">
    <!-- Generator: Sketch 39.1 (31720) - http://www.bohemiancoding.com/sketch -->
    <title>PBS-calendar</title>
    <desc>Created with Sketch.</desc>
    <defs></defs>
    <g id="Page-1" stroke="none" stroke-width="1" fill="none" fill-rule="evenodd">
        <g id="PBS-calendar" fill="#222222">
            <g id="Calendar" transform="translate(44.774857, 65.000000)">
                <g transform="translate(-0.000000, 0.000000)" id="Icons">
                    <g>
                        <g id="Calendar">
                            <path d="M136.166667,118.478404 L108.333333,118.478404 L108.333333,90.9028969 L136.166667,90.9028969 L136.166667,118.478404 L136.166667,118.478404 L136.166667,118.478404 Z M97.4166668,49.5396367 L69.5833332,49.5396367 L69.5833332,77.1151437 L97.4166668,77.1151437 L97.4166668,49.5396367 L97.4166668,49.5396367 L97.4166668,49.5396367 Z M136.166667,49.5396367 L108.333333,49.5396367 L108.333333,77.1151437 L136.166667,77.1151437 L136.166667,49.5396367 L136.166667,49.5396367 L136.166667,49.5396367 Z M58.6666668,90.9028969 L30.8333332,90.9028969 L30.8333332,118.478404 L58.6666668,118.478404 L58.6666668,90.9028969 L58.6666668,90.9028969 L58.6666668,90.9028969 Z M97.4166668,90.9028969 L69.5833332,90.9028969 L69.5833332,118.478404 L97.4166668,118.478404 L97.4166668,90.9028969 L97.4166668,90.9028969 L97.4166668,90.9028969 Z M58.6666668,49.5396367 L30.8333332,49.5396367 L30.8333332,77.1151437 L58.6666668,77.1151437 L58.6666668,49.5396367 L58.6666668,49.5396367 L58.6666668,49.5396367 Z M163.664112,149.026121 L3.33588833,149.026121 C1.49352806,149.026121 0,147.55527 0,145.783972 L0,3.65775433 C0,1.86716485 1.50127853,0.415605295 3.3539299,0.415605295 L17.5210702,0.415605295 C19.3733944,0.415605295 19.2732741,0.415605299 19.2732741,0.415605299 C20.3820958,0.415605307 21.2809734,1.30923356 21.2809734,2.4173289 L21.2809734,16.60782 L58.2759781,16.60782 L58.2759781,2.41732888 C58.2759781,1.31180747 59.1624935,0.415605295 60.2719287,0.415605295 C60.2719287,0.415605295 60.2263923,0.415605295 62.0644821,0.415605295 L105.935518,0.415605295 C107.789068,0.415605295 107.081683,0.415605298 107.081683,0.415605298 C108.184313,0.415605307 109.089953,1.30923357 109.104563,2.4173289 L109.291664,16.60782 L146.125,16.60782 L146.125,2.41732887 C146.125,1.31180746 147.023417,0.41560529 148.117127,0.415605294 C148.117127,0.415605294 147.626279,0.415605295 149.47893,0.415605295 L163.64607,0.415605295 C165.498394,0.415605295 167,1.88645577 167,3.65775433 L167,145.783972 C167,147.574561 165.505264,149.026121 163.664112,149.026121 Z M20,34.2357343 L20,129.211385 L147,129.211385 L147,34.2357343 L20,34.2357343 Z" id="calendar_icon"></path>
                        </g>
                    </g>
                </g>
            </g>
            <rect id="Rectangle-8" x="74" y="42" width="20" height="31" rx="2"></rect>
            <rect id="Rectangle-8-Copy" x="163" y="42" width="20" height="31" rx="2"></rect>
        </g>
    </g>
</svg>