<?xml version="1.0" encoding="UTF-8" standalone="no"?>
<svg width="256px" height="256px" viewBox="0 0 256 256" version="1.1" xmlns="http://www.w3.org/2000/svg" xmlns:xlink="http://www.w3.org/1999/xlink">
    <!-- Generator: Sketch 39.1 (31720) - http://www.bohemiancoding.com/sketch -->
    <title>PBS-undo</title>
    <desc>Created with Sketch.</desc>
    <defs></defs>
    <g id="Page-1" stroke="none" stroke-width="1" fill="none" fill-rule="evenodd">
        <g id="PBS-undo" fill="#222222">
            <g id="Page-1" transform="translate(149.984231, 132.612115) scale(-1, 1) rotate(-15.000000) translate(-149.984231, -132.612115) translate(78.484231, 50.112115)">
                <path d="M26.860739,142.642537 C10.8043594,127.561142 1.58330955,107.127303 0.895029809,85.1080472 C0.20769942,63.0897409 8.13478333,42.1214173 23.2180778,26.0650376 C54.1678817,-6.88125219 97.2532442,1.18158896 102.184175,2.23821703 C105.815444,2.82966293 125.723342,6.90332965 139.787033,26.6906602 C140.413605,27.5716582 140.205697,28.7944228 139.304763,29.3934635 L126.647061,37.8132608 C125.805936,38.3724287 124.665765,38.1768624 124.07242,37.3594708 C113.817527,23.223629 99.3778925,21.0097416 99.2297937,20.9907546 L98.7513206,20.9290467 L98.279493,20.8198713 C96.826036,20.4923451 61.6145939,12.9231667 37.0567727,39.0645059 C25.4462055,51.4241113 19.3428256,67.5659326 19.873513,84.5156519 C20.4023017,101.465371 27.5015512,117.194225 39.8611566,128.804792 C64.919286,152.343959 104.198699,151.550301 128.30273,127.34374 C129.033731,126.609892 130.209027,126.570968 130.964711,127.280134 L142.037946,137.683126 C142.808819,138.407481 142.848692,139.633094 142.106299,140.387828 C126.040426,156.720469 104.69521,164.968433 83.3044245,164.968433 C63.0490638,164.968433 42.7538303,157.572986 26.860739,142.642537 Z" id="Fill-1"></path>
            </g>
            <path d="M92.6698171,61.8825821 L118.747142,101.250544 C119.354105,102.166853 118.945591,102.909668 117.84047,102.909668 L65.9606337,102.909668 C64.8529296,102.909668 64.449853,102.162544 65.0539613,101.250544 L91.1312866,61.8825821 C91.5561401,61.2411967 92.2438053,61.239448 92.6698171,61.8825821 Z" id="Triangle-2" transform="translate(91.900922, 82.155278) rotate(-132.000000) translate(-91.900922, -82.155278) "></path>
        </g>
    </g>
</svg>