<svg width="256" height="256" viewBox="0 0 256 256" xmlns="http://www.w3.org/2000/svg"><title>PBS-youtube</title><path d="M192.18 131.028c-.795-3.612-2.556-6.641-5.28-9.09-2.724-2.447-5.862-3.887-9.413-4.315-11.263-1.224-28.25-1.836-50.963-1.836s-39.67.612-50.872 1.836c-3.611.428-6.764 1.868-9.458 4.316-2.694 2.449-4.47 5.478-5.327 9.09-1.591 7.102-2.387 17.815-2.387 32.14 0 14.569.796 25.283 2.387 32.14.797 3.61 2.557 6.641 5.281 9.088 2.725 2.45 5.862 3.857 9.412 4.224 11.265 1.286 28.253 1.929 50.965 1.929 22.71 0 39.7-.643 50.962-1.929 3.551-.367 6.672-1.775 9.367-4.224 2.694-2.447 4.47-5.478 5.326-9.088 1.591-7.103 2.388-17.816 2.388-32.14 0-14.57-.798-25.284-2.388-32.14zm-42.333-22.862c3.062 0 6.215-1.898 9.46-5.694v5.05h8.355v-45.82h-8.356v34.985c-1.837 2.633-3.58 3.948-5.235 3.948-1.103 0-1.746-.673-1.928-2.02-.062-.123-.093-1.194-.093-3.214V61.702h-8.356v36.18c0 3.122.246 5.416.735 6.886.797 2.265 2.602 3.398 5.418 3.398zm-25.25 0c4.223 0 7.467-1.561 9.733-4.683 1.714-2.265 2.57-5.878 2.57-10.835v-16.07c0-4.897-.857-8.479-2.57-10.744-2.266-3.122-5.51-4.683-9.734-4.683-4.102 0-7.317 1.56-9.642 4.683-1.713 2.265-2.57 5.847-2.57 10.744v16.07c0 4.897.856 8.509 2.57 10.835 2.327 3.122 5.54 4.683 9.642 4.683zM92 82.638v24.886h9.182V82.638L112.293 46h-9.367l-6.242 24.15L90.164 46H80.43a792.135 792.135 0 0 0 5.97 17.172c2.877 8.447 4.743 14.937 5.6 19.466zm28.646-7.713c0-4.225 1.317-6.337 3.95-6.337 2.632 0 3.947 2.112 3.947 6.337v19.282c0 4.287-1.315 6.428-3.948 6.428-2.632 0-3.949-2.143-3.949-6.428V74.925zm63.727 96.508h-16.436v7.989c0 4.224 1.407 6.335 4.223 6.335 2.02 0 3.245-1.101 3.673-3.307.122-.612.184-2.478.184-5.6h8.356v1.193c0 3-.062 4.774-.184 5.328-.182 1.651-.824 3.304-1.928 4.957-2.203 3.244-5.511 4.866-9.918 4.866-4.223 0-7.529-1.56-9.917-4.682-1.774-2.265-2.662-5.815-2.662-10.651v-15.887c0-4.836.856-8.387 2.57-10.652 2.388-3.122 5.663-4.682 9.826-4.682 4.103 0 7.349 1.56 9.734 4.682 1.654 2.265 2.48 5.816 2.48 10.652v9.46zm-31.037 7.529c0 4.469-.275 7.53-.824 9.184-1.042 3.364-3.214 5.048-6.52 5.048-2.938 0-5.785-1.684-8.54-5.048v4.407h-8.172v-60.879h8.172V151.6c2.634-3.304 5.478-4.958 8.54-4.958 3.306 0 5.478 1.715 6.52 5.142.55 1.591.824 4.622.824 9.09v18.088zm-31.22 13.59h-8.172v-4.96c-3.306 3.736-6.43 5.602-9.367 5.602-2.816 0-4.592-1.132-5.326-3.397-.489-1.47-.735-3.704-.735-6.703V147.19h8.173v33.424c0 1.959.03 3.03.092 3.214.184 1.286.826 1.929 1.928 1.929 1.653 0 3.399-1.286 5.235-3.857v-34.71h8.172v45.362zm-24.792-52.247h-9.826v52.247h-9.182v-52.247h-9.642v-8.632h28.65v8.632zm74.745 13.774c-2.754 0-4.132 2.081-4.132 6.242v4.225h8.264v-4.225c0-4.163-1.379-6.242-4.132-6.242zm-30.487 0c-1.409 0-2.785.675-4.132 2.02v27.638c1.347 1.346 2.723 2.02 4.132 2.02 2.386 0 3.582-2.05 3.582-6.153v-19.373c0-4.102-1.195-6.152-3.582-6.152z" fill="#222" fill-rule="evenodd"/></svg>