<svg width="169" height="169" viewBox="0 0 169 169" xmlns="http://www.w3.org/2000/svg">
    <title>
        PBS-play_circle
    </title>
    <path d="M157.771 42.11c-7.559-12.955-17.817-23.212-30.773-30.771-12.956-7.56-27.103-11.34-42.443-11.34-15.34 0-29.488 3.78-42.444 11.34-12.956 7.559-23.213 17.816-30.772 30.772C3.78 55.067 0 69.215 0 84.555c0 15.34 3.78 29.488 11.339 42.443 7.559 12.956 17.816 23.214 30.772 30.773 12.956 7.559 27.104 11.338 42.444 11.338 15.34 0 29.487-3.78 42.443-11.338 12.956-7.56 23.214-17.817 30.773-30.773 7.559-12.955 11.338-27.103 11.338-42.443 0-15.34-3.779-29.488-11.338-42.444M125.886 85.5l-60.56 37.924c-1.875 1.17-3.186.33-3.186-1.877V45.214c0-2.196 1.31-3.047 3.186-1.876l60.666 37.923c1.875 1.17 1.77 3.069-.106 4.24" fill-rule="evenodd"/>
</svg>
