<svg width="176" height="123" viewBox="0 0 176 123" xmlns="http://www.w3.org/2000/svg">
    <title>
        PBS-mail
    </title>
    <path d="M15 108V26.091c1 .602 1.374 1.214 2.118 1.837 9.073 7.607 18.141 15.215 26.686 22.317.391.325.373.325.763.649 10.821 8.991 19.889 16.467 26.662 21.951 3.866 3.129 6.934 5.575 9.16 7.289a87.285 87.285 0 0 0 2.958 2.204c.472.331.879.602 1.266.832 1.511.901 2.248 1.238 4.235 1.238 1.974 0 2.7-.33 4.212-1.222.386-.228.796-.497 1.27-.826a90.45 90.45 0 0 0 2.99-2.201c2.251-1.713 5.362-4.159 9.277-7.289 6.86-5.484 16.056-12.962 27.019-21.954.39-.32.463-.32.854-.641C142.932 43.331 152 35.904 161 28.467V108H15zm73.872-40.265a546.457 546.457 0 0 1-8.213-6.549c-6.714-5.435-15.748-12.876-26.524-21.829l-.779-.648C44.83 31.623 35.74 24.175 26.682 16.58c-.7-.586-1.383-1.58-2.06-1.58h129.333c-.674 0-1.354.974-2.05 1.55-9.177 7.595-18.386 15.116-27.023 22.203-.39.32-.39.283-.779.602-10.918 8.956-20.072 16.381-26.873 21.818a530.37 530.37 0 0 1-8.358 6.562zM173.847 0H1.861C.759 0 0 .605 0 1.713v118.986C0 121.804.753 123 1.861 123h171.986c1.102 0 2.153-1.193 2.153-2.301V1.713C176 .608 174.956 0 173.847 0z" fill-rule="evenodd"/>
</svg>
