<svg width="172" height="172" viewBox="0 0 172 172" xmlns="http://www.w3.org/2000/svg">
    <title>
        PBS-logo
    </title>
    <g fill="none" fill-rule="evenodd">
        <path d="M172 86c0 47.496-38.504 86-86 86S0 133.496 0 86 38.504 0 86 0s86 38.504 86 86" fill="#000"/>
        <path d="M86.46 79.033a8.524 8.524 0 1 1-.002-17.048 8.524 8.524 0 0 1 .002 17.048zm6.819-42.002H67.233c-21.367 0-38.855 15.064-38.855 37.192 0 18.607 11.01 32.038 28.01 34.577v26.231h35v-25h4.459c5.633-1 9.54-4.509 9.54-9.739v-14.26h9.46l-21.57-49z" fill="#F2F2F2"/>
        <path d="M122.423 37.03h-14.06l21.37 49h-9.345v12.76c0 7.819-4 11.155-14 11.018v25.223h14v-25h4.246c4.047 0 9.754-3.401 9.754-9.786V86.03h9.321l-21.286-49z" fill="#F2F2F2"/>
    </g>
</svg>
