<?xml version="1.0" encoding="UTF-8" standalone="no"?>
<svg width="256px" height="256px" viewBox="0 0 256 256" version="1.1" xmlns="http://www.w3.org/2000/svg" xmlns:xlink="http://www.w3.org/1999/xlink">
    <!-- Generator: Sketch 39.1 (31720) - http://www.bohemiancoding.com/sketch -->
    <title>PBS-retweet</title>
    <desc>Created with Sketch.</desc>
    <defs></defs>
    <g id="Page-1" stroke="none" stroke-width="1" fill="none" fill-rule="evenodd">
        <g id="PBS-retweet" fill="#222222">
            <g id="Group-2" transform="translate(41.000000, 67.000000)">
                <g id="Group">
                    <path d="M17.0587262,41.5099983 C17.0203771,41.663773 17,41.8246024 17,41.9901531 L17,121.009847 C17,122.096159 17.8913093,123 18.9907951,123 L27.0046024,123 L112.994904,123 C114.110939,123 115,122.108691 115,121.009205 L115,104.990795 C115,103.898212 114.102288,103 112.994904,103 L37,103 L37,41.9901531 C37,41.8250418 36.9794092,41.6641459 36.9406263,41.5099983 L52.861513,41.5099983 C53.9612512,41.5099983 54.363994,40.7614239 53.7553223,39.8380105 L27.8134561,0.481709145 C27.3895193,-0.161443809 26.7052034,-0.159695026 26.2824192,0.481709145 L0.340553107,39.8380105 C-0.269059973,40.762852 0.132053449,41.5099983 1.23436237,41.5099983 L17.0587262,41.5099983 Z" id="Combined-Shape"></path>
                </g>
                <g id="Group" transform="translate(122.500000, 61.500000) scale(-1, -1) translate(-122.500000, -61.500000) translate(65.000000, 0.000000)">
                    <path d="M17.0587262,41.5099983 C17.0203771,41.663773 17,41.8246024 17,41.9901531 L17,121.009847 C17,122.096159 17.8913093,123 18.9907951,123 L27.0046024,123 L112.035604,123 C113.1475,123 114.042633,122.108691 114.042633,121.009205 L114.042633,104.990795 C114.042633,103.898212 113.144055,103 112.035604,103 L37,103 L37,41.9901531 C37,41.8250418 36.9794092,41.6641459 36.9406263,41.5099983 L52.861513,41.5099983 C53.9612512,41.5099983 54.363994,40.7614239 53.7553223,39.8380105 L27.8134561,0.481709145 C27.3895193,-0.161443809 26.7052034,-0.159695026 26.2824192,0.481709145 L0.340553107,39.8380105 C-0.269059973,40.762852 0.132053449,41.5099983 1.23436237,41.5099983 L17.0587262,41.5099983 Z" id="Combined-Shape"></path>
                </g>
            </g>
        </g>
    </g>
</svg>