<svg width="220" height="159" viewBox="0 0 220 159" xmlns="http://www.w3.org/2000/svg">
    <title>
        PBS-preview
    </title>
    <path d="M194.644 80.82c-6.188 8.322-13.235 16.646-20.983 24.384-21.508 21.482-43.987 34.154-65.871 34.154-21.782 0-43.456-12.642-63.755-34.12-7.321-7.745-13.917-16.08-19.656-24.412-.266-.386-.527-.768-.784-1.147.257-.378.518-.761.784-1.147 5.739-8.332 12.335-16.667 19.656-24.413 6.095-6.448 12.314-12.101 18.623-16.853-3.36 7.212-5.248 15.329-5.248 23.91 0 29.944 22.975 54.218 51.316 54.218 28.342 0 51.317-24.274 51.317-54.217 0-8.211-1.728-15.996-4.821-22.971 6.362 4.689 12.692 10.206 18.952 16.458 7.865 7.855 15.037 16.305 21.349 24.75.026.037.053.073.08.108-.314.428-.633.86-.959 1.299m23.244-4.468a228.304 228.304 0 0 0-6.344-8.91c-6.853-9.171-14.637-18.341-23.237-26.93C163.09 15.328 136.059 0 107.79 0 79.432 0 53.211 15.296 29.5 40.38c-8.082 8.552-15.304 17.678-21.592 26.807a207.526 207.526 0 0 0-5.795 8.87A111.302 111.302 0 0 0 0 79.61l.123.069-.123.069c.391.698 1.1 1.906 2.113 3.553a207.515 207.515 0 0 0 5.795 8.87c6.288 9.129 13.51 18.255 21.592 26.806 23.711 25.086 49.932 40.38 78.29 40.38 28.256 0 55.108-15.136 80.005-40.002 8.493-8.483 16.161-17.54 22.898-26.6a220.48 220.48 0 0 0 6.232-8.801 125.443 125.443 0 0 0 2.192-3.37l1.095-.678c-.43-.694-1.21-1.902-2.324-3.553" fill-rule="evenodd"/>
</svg>
