<svg width="234" height="130" viewBox="0 0 234 130" xmlns="http://www.w3.org/2000/svg" xmlns:xlink="http://www.w3.org/1999/xlink">
    <title>
        PBS-logotype
    </title>
    <defs>
        <path id="a" d="M85.708 37.298V.702H.003v36.596h85.705z"/>
    </defs>
    <g fill="none" fill-rule="evenodd">
        <g transform="translate(148 46)">
            <mask id="b" fill="#fff">
                <use xlink:href="#a"/>
            </mask>
            <path d="M4.508 6.895H.003v-5.63h14.98c8.107 0 12.725 4.166 12.725 10.697 0 6.644-4.843 10.81-12.5 10.81h-4.055v8.445h5.293v5.63H.003v-5.63h4.618V6.895h-.113zm6.645 10.247h4.392c3.716 0 5.743-2.365 5.743-5.18 0-2.927-2.139-5.18-5.743-5.18h-4.392v10.36zM34.127 6.895h-4.054v-5.63h14.303c8.897 0 11.713 5.292 11.713 9.234 0 3.265-1.802 5.967-4.28 7.206 3.604 1.464 5.631 5.18 5.631 8.445 0 7.77-6.082 10.923-11.938 10.923H29.623v-5.63h4.617V6.895h-.113zM40.66 31.33h4.167c3.38 0 5.744-1.914 5.744-5.067 0-2.703-1.802-5.067-5.744-5.067H40.66V31.33zm0-15.764h3.942c2.928 0 4.955-1.69 4.955-4.392 0-2.59-1.914-4.28-4.955-4.28H40.66v8.672zm37.73-8.783c-1.128-.451-2.704-.901-4.28-.901-4.393 0-5.745 2.477-5.745 4.504 0 2.59 1.69 3.378 3.717 3.94l3.83 1.014c4.616 1.352 9.797 3.04 9.797 10.36 0 6.756-4.054 11.598-13.064 11.598-3.49 0-7.095-.45-11.262-1.914v-9.346h6.532v4.616c1.69.789 3.491.9 5.293.9 3.83 0 5.631-2.026 5.631-4.728 0-1.802-.9-3.153-5.18-4.392l-3.492-1.013c-6.532-1.914-8.672-4.73-8.672-10.134 0-5.63 3.492-10.585 12.39-10.585 3.828 0 7.657.676 10.36 1.914v8.446h-5.969v-4.28h.113z" fill="#000" mask="url(#b)"/>
        </g>
        <path d="M130 65c0 35.899-29.101 65-65 65S0 100.899 0 65 29.101 0 65 0s65 29.101 65 65" fill="#000"/>
        <path d="M65.347 59.734a6.443 6.443 0 1 1-.001-12.886 6.443 6.443 0 0 1 .001 12.886zm5.154-30.586H50.816c-16.15 0-28.983 10.807-28.983 27.531 0 14.064 9.555 23.635 21.555 25.553v18.916h27v-16h2.054c4.258 0 7.946-5.392 7.946-9.346V65.148h6.416l-16.303-36z" fill="#F2F2F2"/>
        <path d="M92.53 29.148H81.901l16.152 36h-6.666v9.52c0 5.908-4 8.43-10 8.326v18.154h10v-16H94.2c3.06 0 6.188-4.556 6.188-9.382V65.148h8.23l-16.089-36z" fill="#F2F2F2"/>
    </g>
</svg>
