<svg width="256" height="256" viewBox="0 0 256 256" xmlns="http://www.w3.org/2000/svg"><title>PBS-slideout_nav_close</title><g fill="#222" fill-rule="evenodd"><path d="M38.808 128.585l16.344-16.343a2.005 2.005 0 0 0 .005-2.834l-4.243-4.243a1.999 1.999 0 0 0-2.833.006l-21.91 21.91a2.006 2.006 0 0 0-.589 1.474 2.006 2.006 0 0 0 .589 1.535L48.08 152a2.005 2.005 0 0 0 2.833.005l4.243-4.243a1.999 1.999 0 0 0-.005-2.833l-16.344-16.344z"/><rect x="82" y="73" width="150" height="20" rx="2"/><rect x="82" y="118" width="150" height="20" rx="2"/><rect x="82" y="163" width="150" height="20" rx="2"/></g></svg>