<svg width="256" height="256" viewBox="0 0 256 256" xmlns="http://www.w3.org/2000/svg"><title>PBS-trash</title><g fill="none" fill-rule="evenodd"><path d="M79 85.745V192h95.03V85.745H79zm-20 0V210A1.999 1.999 0 0 0 61 212h131.03a2 2 0 0 0 2-1.999V85.745h9.976A1.997 1.997 0 0 0 206 83.754V67.736c0-1.093-.893-1.991-1.994-1.991H47.994A1.997 1.997 0 0 0 46 67.735v16.019c0 1.093.893 1.99 1.994 1.99H59zm35 18.257c0-1.105.893-2.002 1.992-2.002h11.016c1.1 0 1.992.894 1.992 2.002v68.74a1.998 1.998 0 0 1-1.992 2.003H95.992c-1.1 0-1.992-.894-1.992-2.003v-68.74zm25 0c0-1.105.893-2.002 1.992-2.002h11.016c1.1 0 1.992.894 1.992 2.002v68.74a1.998 1.998 0 0 1-1.992 2.003h-11.016c-1.1 0-1.992-.894-1.992-2.003v-68.74zm25 0c0-1.105.893-2.002 1.992-2.002h11.016c1.1 0 1.992.894 1.992 2.002v68.74a1.998 1.998 0 0 1-1.992 2.003h-11.016c-1.1 0-1.992-.894-1.992-2.003v-68.74z" fill="#222"/><path d="M91 71.138l11.656-19.426c.567-.946 1.913-1.712 3.024-1.712h44.652c1.103 0 2.47.758 3.055 1.695l11.596 18.597" stroke="#222" stroke-width="15"/></g></svg>