<svg width="234" height="165" viewBox="0 0 234 165" xmlns="http://www.w3.org/2000/svg">
    <title>
        PBS-component_icon
    </title>
    <path d="M224 152.387c0 .513-.164.82-.503 1.19-.339.372-.76.423-1.276.423h-45.279c-.49 0-.986-.051-1.338-.422-.354-.37-.604-.678-.604-1.191v-43.26c0-.511.25-1.077.604-1.447.352-.371.848-.68 1.338-.68h45.279c.516 0 .937.309 1.276.68.339.37.503.936.503 1.448v43.259zM231.485 96h-63.807c-.691 0-1.359.435-1.856.978a3.254 3.254 0 0 0-.822 2.105v63.35c0 .75.324 1.304.822 1.847.497.543 1.165.72 1.856.72h63.807c.727 0 1.325-.177 1.803-.72.478-.543.712-1.096.712-1.847v-63.35c0-.752-.234-1.562-.712-2.105-.478-.543-1.076-.978-1.803-.978zM66.708 0H1.858C.75 0 0 .972 0 2.077v78.628C0 81.806.752 83 1.859 83h64.849C67.817 83 69 81.81 69 80.705V2.077C69 .975 67.815 0 66.708 0zm0 133H1.858C.75 133 0 133.535 0 134.634v16.019C0 151.745.752 153 1.859 153h64.849c1.109 0 2.292-1.248 2.292-2.347v-16.019c0-1.092-1.185-1.634-2.292-1.634zm0-35H1.858C.75 98 0 98.598 0 99.697v16.018C0 116.808.752 118 1.859 118h64.849c1.109 0 2.292-1.185 2.292-2.285V99.697C69 98.604 67.815 98 66.708 98zm82.666-2h-64.85C83.417 96 83 97.376 83 98.483v64.849c0 1.109.418 1.668 1.525 1.668h64.849c1.11 0 1.626-.561 1.626-1.668V98.483c0-1.109-.518-2.483-1.626-2.483zm82.638-96H84.519C83.41 0 83 .602 83 1.708v78.627c0 1.102.415 1.665 1.519 1.665h147.493c1.109 0 1.988-.559 1.988-1.665V1.708C234 .606 233.115 0 232.012 0zm-17.165 128H203v-12.286c0-1.107-.892-1.714-1.993-1.714H197.7c-1.1 0-1.701.605-1.701 1.714V128h-12.14c-1.106 0-1.86.452-1.86 1.553v3.307c0 1.098.753 2.14 1.86 2.14H196v11.699c0 1.107.6 2.301 1.7 2.301h3.307c1.099 0 1.993-1.193 1.993-2.301V135h11.847c1.107 0 2.153-1.04 2.153-2.14v-3.307c0-1.098-1.045-1.553-2.153-1.553z" fill-rule="evenodd"/>
</svg>
