<svg width="170" height="170" viewBox="0 0 170 170" xmlns="http://www.w3.org/2000/svg">
    <title>
        PBS-component_grid
    </title>
    <path d="M0 5.008A5 5 0 0 1 4.999 0h36.002A5 5 0 0 1 46 5.008v36.985A5 5 0 0 1 41.001 47H4.999A4.999 4.999 0 0 1 0 41.993V5.008zm0 62A5 5 0 0 1 4.999 62h36.002A5 5 0 0 1 46 67.008v36.985A5 5 0 0 1 41.001 109H4.999A4.999 4.999 0 0 1 0 103.993V67.008zm0 61A5 5 0 0 1 4.999 123h36.002A5 5 0 0 1 46 128.008v36.985A5 5 0 0 1 41.001 170H4.999A4.999 4.999 0 0 1 0 164.993v-36.985zm62-123A5 5 0 0 1 66.999 0h36.002A5 5 0 0 1 108 5.008v36.985A5 5 0 0 1 103.001 47H66.999A4.999 4.999 0 0 1 62 41.993V5.008zm0 62A5 5 0 0 1 66.999 62h36.002A5 5 0 0 1 108 67.008v36.985a5 5 0 0 1-4.999 5.007H66.999A4.999 4.999 0 0 1 62 103.993V67.008zm0 61A5 5 0 0 1 66.999 123h36.002a5 5 0 0 1 4.999 5.008v36.985a5 5 0 0 1-4.999 5.007H66.999A4.999 4.999 0 0 1 62 164.993v-36.985zm62-123A5 5 0 0 1 128.999 0h36.002A5 5 0 0 1 170 5.008v36.985A5 5 0 0 1 165.001 47h-36.002A4.999 4.999 0 0 1 124 41.993V5.008zm0 62A5 5 0 0 1 128.999 62h36.002A5 5 0 0 1 170 67.008v36.985a5 5 0 0 1-4.999 5.007h-36.002a4.999 4.999 0 0 1-4.999-5.007V67.008zm0 61a5 5 0 0 1 4.999-5.008h36.002a5 5 0 0 1 4.999 5.008v36.985a5 5 0 0 1-4.999 5.007h-36.002a4.999 4.999 0 0 1-4.999-5.007v-36.985z" fill-rule="evenodd"/>
</svg>
