<svg width="256" height="256" viewBox="0 0 256 256" xmlns="http://www.w3.org/2000/svg"><title>PBS-copy</title><g fill="#222" fill-rule="evenodd"><path d="M117.308 128.067v-1.55c0-1.108-.9-1.994-2.008-1.994h-9.398a2.002 2.002 0 0 0-2.008 1.995v85.488c0 .553.224 1.05.586 1.41.365.362.864.584 1.415.584h87.21c1.098 0 2-.897 2-2.004V84.004A2 2 0 0 0 193.103 82h-41.598a2 2 0 0 0-2.004 2.004v9.28c0 .238.041.466.116.677-.075.21-.116.436-.116.672v33.434h-32.192zm0 13.289v59.355h64.384V95.29h-18.779v44.063a2.007 2.007 0 0 1-1.997 2.004h-43.608z"/><path d="M149.121 83.32a2.007 2.007 0 0 1 2.835.103l6.41 6.873a2 2 0 0 1-.097 2.835l-44.304 41.315c-.81.754-2.08.707-2.835-.102l-6.41-6.873a2 2 0 0 1 .097-2.835L149.12 83.32z"/><g><path d="M105.5 88.067V54.633c0-.236.041-.462.116-.672a2.008 2.008 0 0 1-.116-.676v-9.281A2 2 0 0 1 107.504 42h41.598a2 2 0 0 1 2.004 2.004V94.925c0 1.105-.901 2.001-2.008 2.001H139.7a2.005 2.005 0 0 1-2.008-2V55.288h-18.779v44.063a2.007 2.007 0 0 1-1.997 2.004H73.308v59.355h37.342a2 2 0 0 1 2.004 2.004v9.281A2.002 2.002 0 0 1 110.65 174H61.898a1.998 1.998 0 0 1-1.414-.582 1.972 1.972 0 0 1-.59-1.412V86.518c0-1.102.901-1.995 2.008-1.995H71.3c1.109 0 2.008.886 2.008 1.995v1.55H105.5z"/><path d="M105.121 43.32a2.007 2.007 0 0 1 2.835.103l6.41 6.873a2 2 0 0 1-.097 2.835L69.965 94.446c-.81.754-2.08.707-2.835-.102l-6.41-6.873a2 2 0 0 1 .097-2.835L105.12 43.32z"/></g></g></svg>