<svg width="201" height="145" viewBox="0 0 201 145" xmlns="http://www.w3.org/2000/svg" xmlns:xlink="http://www.w3.org/1999/xlink">
    <title>
        PBS-wifi
    </title>
    <defs>
        <path id="a" d="M.056 40h40V.242h-40V40z"/>
        <path id="c" d="M200.111 26.52V.495H0v52.05h200.111V26.52z"/>
    </defs>
    <g fill="none" fill-rule="evenodd">
        <g transform="translate(81 104.505)">
            <mask id="b" fill="#fff">
                <use xlink:href="#a"/>
            </mask>
            <path d="M20.046.242C9.004.242.056 9.123.056 20.112.056 31.098 9.004 40 20.046 40c11.055 0 20.01-8.9 20.01-19.889C40.056 9.123 31.1.242 20.046.242" fill="#222" mask="url(#b)"/>
        </g>
        <path d="M43.056 92.944l11.593 11.803c25.119-25.967 66.08-25.967 91.2 0l11.207-11.803c-31.302-32.263-82.312-32.263-114 0" fill="#222"/>
        <path d="M21.056 67.134L32.15 78.747c37.492-38.323 97.937-38.323 135.429 0l11.477-11.613c-43.613-44.516-114.387-44.516-158 0" fill="#222"/>
        <g transform="translate(0 .505)">
            <mask id="d" fill="#fff">
                <use xlink:href="#c"/>
            </mask>
            <path d="M0 41.939l10.606 10.606c49.402-49.401 129.497-49.401 178.898 0l10.607-10.606C144.852-13.32 55.259-13.32 0 41.939" fill="#222" mask="url(#d)"/>
        </g>
    </g>
</svg>
