<?xml version="1.0" encoding="UTF-8" standalone="no"?>
<svg width="256px" height="256px" viewBox="0 0 256 256" version="1.1" xmlns="http://www.w3.org/2000/svg" xmlns:xlink="http://www.w3.org/1999/xlink">
    <!-- Generator: Sketch 39.1 (31720) - http://www.bohemiancoding.com/sketch -->
    <title>PBS-pinterest_box</title>
    <desc>Created with Sketch.</desc>
    <defs></defs>
    <g id="Page-1" stroke="none" stroke-width="1" fill="none" fill-rule="evenodd">
        <g id="PBS-pinterest_box" fill="#222222">
            <g id="pinterest_fill" transform="translate(42.912286, 42.912286)">
                <g transform="translate(-0.000000, -0.000000)" id="Icons">
                    <g>
                        <g id="pinterest_fill">
                            <path d="M0,3.41029947 C0,1.52684306 1.52807792,0 3.41029947,0 L167.314843,0 C169.1983,0 170.725143,1.52807792 170.725143,3.41029947 L170.725143,167.314843 C170.725143,169.1983 169.197065,170.725143 167.314843,170.725143 L3.41029947,170.725143 C1.52684306,170.725143 0,169.197065 0,167.314843 L0,3.41029947 L0,3.41029947 Z M56.4620059,123.327575 C57.9118359,117.077434 65.8492213,83.521941 65.8492213,83.521941 C65.8492213,83.521941 63.4510664,78.7242978 63.4510664,71.6378704 C63.4510664,60.4900522 69.9052772,52.1858744 77.9453644,52.1858744 C84.7770375,52.1858744 88.0728331,57.3129638 88.0728331,63.4684056 C88.0728331,70.3294223 83.699335,80.610277 81.442562,90.1335389 C79.5579166,98.0989338 85.4425989,104.595826 93.2986232,104.595826 C107.538167,104.595826 118.481915,89.5893525 118.481915,67.9245988 C118.481915,48.7513649 104.706531,35.3414383 85.0264563,35.3414383 C62.2386512,35.3414383 48.8674048,52.4366273 48.8674048,70.1000104 C48.8674048,76.9837017 51.5189796,84.3635627 54.8254452,88.3729358 C55.4803363,89.1718762 55.5750355,89.8587783 55.3789682,90.6710564 C54.7734277,93.1972552 53.4209643,98.6391191 53.1555399,99.7541677 C52.8060871,101.222671 51.9978101,101.528108 50.4746218,100.826535 C40.4778644,96.1702734 34.2210545,81.5425964 34.2210545,69.798574 C34.2210545,44.5432568 52.5793426,21.3406429 87.1378463,21.3406429 C114.91536,21.3406429 136.504088,41.1340891 136.504088,67.59782 C136.504088,95.1859361 119.104795,117.40688 94.9591919,117.40688 C86.8310744,117.40688 79.2097975,113.185435 76.5982361,108.209063 C76.5982361,108.209063 72.5808601,123.500968 71.6045257,127.243583 C69.798574,134.204634 63.8085222,144.934976 61.6531172,148.241442 C59.4963786,151.547908 59.2849468,151.873067 59.2849468,151.873067 C58.2606745,153.44446 57.1784799,153.203821 56.8848873,151.321905 C56.8848873,151.321905 56.8274645,151.290486 56.1792423,146.300777 C55.5296864,141.317737 54.8481199,130.244611 56.4620059,123.327575 L56.4620059,123.327575 Z" id="pinterest_fill_icon"></path>
                        </g>
                    </g>
                </g>
            </g>
        </g>
    </g>
</svg>