<svg width="256" height="256" viewBox="0 0 256 256" xmlns="http://www.w3.org/2000/svg"><title>PBS-retweet</title><g fill="#222" fill-rule="evenodd"><path d="M58.059 108.51a1.982 1.982 0 0 0-.059.48v79.02c0 1.086.891 1.99 1.99 1.99h94.005a1.992 1.992 0 0 0 2.005-1.99v-16.02c0-1.092-.898-1.99-2.005-1.99H78v-61.01c0-.165-.02-.326-.06-.48h15.922c1.1 0 1.502-.749.893-1.672L68.813 67.482c-.423-.643-1.108-.642-1.53 0L41.34 106.838c-.61.925-.209 1.672.893 1.672H58.06zM203.941 148.49c.039-.154.059-.315.059-.48V68.99c0-1.086-.891-1.99-1.99-1.99h-93.045a1.997 1.997 0 0 0-2.008 1.99v16.02c0 1.092.899 1.99 2.007 1.99H184v61.01c0 .165.02.326.06.48h-15.922c-1.1 0-1.502.749-.893 1.672l25.942 39.356c.423.643 1.108.642 1.53 0l25.942-39.356c.61-.925.209-1.672-.893-1.672H203.94z"/></g></svg>