<svg width="256" height="256" viewBox="0 0 256 256" xmlns="http://www.w3.org/2000/svg" xmlns:xlink="http://www.w3.org/1999/xlink">
    <title>
        PBS-collapse
    </title>
    <defs>
        <path id="a" d="M76.897.103H.474v76.61h76.423V.103z"/>
        <path id="c" d="M76.652 77V.578H.042V77z"/>
    </defs>
    <g fill="none" fill-rule="evenodd">
        <path d="M117.413 136.505l-49.629 9.965c-1.086.218-1.328 1.025-.549 1.804l12.155 12.155a2.059 2.059 0 0 0-.193.17l-36.613 36.613c-.78.78-.779 2.05.005 2.836l12.258 12.257c.791.79 2.054.786 2.836.005l36.612-36.613c.062-.061.118-.126.171-.194l12.345 12.347c.778.778 1.587.532 1.804-.55l9.965-49.629c.163-.809-.36-1.329-1.167-1.167" fill="#000"/>
        <g transform="translate(135 42.897)">
            <mask id="b" fill="#fff">
                <use xlink:href="#a"/>
            </mask>
            <path d="M1.671 76.683L51.3 66.718c1.082-.217 1.328-1.026.549-1.804L39.504 52.57c.067-.052.131-.109.193-.17L76.31 15.785a2 2 0 0 0-.005-2.836L64.047.692a2.007 2.007 0 0 0-2.836-.005L24.598 37.3a2.059 2.059 0 0 0-.17.193L12.273 25.338c-.779-.779-1.586-.537-1.804.55L.504 75.515c-.162.807.358 1.33 1.167 1.167" fill="#000" mask="url(#b)"/>
        </g>
        <path d="M109.183 68.784c-.218-1.086-1.025-1.328-1.804-.549L95.224 80.39a1.924 1.924 0 0 0-.17-.193L58.441 43.584a2.007 2.007 0 0 0-2.836.005L43.348 55.847a2 2 0 0 0-.005 2.836l36.612 36.612c.062.062.126.12.194.171l-12.346 12.345c-.778.778-.533 1.587.55 1.804l49.628 9.965c.81.162 1.33-.36 1.167-1.167l-9.965-49.629z" fill="#000"/>
        <g transform="translate(136 136.897)">
            <mask id="d" fill="#fff">
                <use xlink:href="#c"/>
            </mask>
            <path d="M76.068 61.314L39.455 24.701a2.059 2.059 0 0 0-.193-.17l12.155-12.155c.778-.779.536-1.586-.549-1.804L1.24.607C.432.445-.09.965.071 1.774l9.966 49.63c.217 1.081 1.026 1.326 1.804.548l12.345-12.346c.052.067.11.132.171.194L60.97 76.413a2.001 2.001 0 0 0 2.836-.005L76.063 64.15a2.007 2.007 0 0 0 .005-2.836" fill="#000" mask="url(#d)"/>
        </g>
    </g>
</svg>
