<svg width="256" height="256" viewBox="0 0 256 256" xmlns="http://www.w3.org/2000/svg"><title>PBS-move</title><g fill="#222" fill-rule="evenodd"><path d="M116.956 198.17a2.002 2.002 0 0 1-.007-.171v-68.504c0-1.105.896-1.996 2-1.996h18.321c1.098 0 2 .894 2 1.996V198c0 .057-.002.115-.006.171h18.33c1.11 0 1.503.742.894 1.657l-29.375 44.135c-.477.718-1.249.716-1.725 0l-29.375-44.135c-.611-.919-.208-1.657.895-1.657h18.048zM116.956 58.17a2 2 0 0 0-.007.171v64.506c0 1.104.896 1.995 2 1.995h18.321c1.098 0 2-.893 2-1.995V58.341a2.02 2.02 0 0 0-.006-.17h18.33c1.11 0 1.503-.742.894-1.657l-29.375-44.135c-.477-.717-1.249-.715-1.725 0L98.013 56.514c-.611.919-.208 1.657.895 1.657h18.048z"/><g><path d="M58.67 116.457c.06-.005.12-.008.181-.008h69.487c1.101 0 2.004.896 2.004 2v18.321c0 1.098-.897 2-2.004 2H58.85c-.06 0-.12-.002-.18-.007v18.33c0 1.112-.742 1.504-1.657.895l-44.135-29.375c-.717-.477-.715-1.249 0-1.725l44.135-29.375c.919-.611 1.657-.208 1.657.895v18.049z"/><path d="M198.67 116.457a2.018 2.018 0 0 0-.18-.008h-69.487a2.006 2.006 0 0 0-2.004 2v18.321c0 1.098.898 2 2.004 2h69.487c.06 0 .121-.002.18-.007v18.33c0 1.112.742 1.504 1.657.895l44.135-29.375c.718-.477.716-1.249 0-1.725l-44.135-29.375c-.919-.611-1.657-.208-1.657.895v18.049z"/></g></g></svg>