<svg width="256" height="256" viewBox="0 0 256 256" xmlns="http://www.w3.org/2000/svg"><title>PBS-closed_caption</title><g fill="none" fill-rule="evenodd"><rect fill="#000" x="14" y="51" width="227.743" height="152.951" rx="2"/><path d="M102.182 105.463c-3.856 0-6.864 1.579-9.024 4.737-2.16 3.158-3.24 7.513-3.24 13.064 0 11.539 4.389 17.308 13.166 17.308 2.652 0 5.223-.369 7.71-1.107a77.145 77.145 0 0 0 7.507-2.666v13.699c-5.004 2.215-10.664 3.322-16.98 3.322-9.052 0-15.99-2.625-20.816-7.875-4.826-5.25-7.24-12.838-7.24-22.763 0-6.207 1.17-11.662 3.507-16.366 2.338-4.703 5.702-8.319 10.09-10.848 4.389-2.53 9.55-3.794 15.484-3.794 6.48 0 12.674 1.408 18.58 4.224l-4.963 12.756a55.798 55.798 0 0 0-6.645-2.625c-2.214-.71-4.593-1.066-7.136-1.066zm57.828 0c-3.856 0-6.864 1.579-9.024 4.737-2.16 3.158-3.24 7.513-3.24 13.064 0 11.539 4.389 17.308 13.166 17.308 2.652 0 5.223-.369 7.711-1.107a77.145 77.145 0 0 0 7.506-2.666v13.699c-5.004 2.215-10.664 3.322-16.98 3.322-9.051 0-15.99-2.625-20.816-7.875-4.826-5.25-7.24-12.838-7.24-22.763 0-6.207 1.17-11.662 3.508-16.366 2.337-4.703 5.7-8.319 10.09-10.848 4.388-2.53 9.55-3.794 15.483-3.794 6.48 0 12.674 1.408 18.58 4.224l-4.963 12.756a55.798 55.798 0 0 0-6.645-2.625c-2.214-.71-4.593-1.066-7.136-1.066z" fill="#FFF"/></g></svg>