<svg width="256" height="256" viewBox="0 0 256 256" xmlns="http://www.w3.org/2000/svg"><title>PBS-component_logos</title><g fill="#222" fill-rule="evenodd"><path d="M174.937 211.775c20.345 0 36.838-16.493 36.838-36.838 0-20.346-16.493-36.839-36.838-36.839-20.346 0-36.839 16.493-36.839 36.839 0 20.345 16.493 36.838 36.839 36.838zM81.613 118.45c20.345 0 36.838-16.493 36.838-36.838 0-20.345-16.493-36.838-36.838-36.838-20.345 0-36.838 16.493-36.838 36.838 0 20.345 16.493 36.838 36.838 36.838z"/><rect x="45" y="138" width="73" height="74" rx="5"/><rect x="139" y="45" width="73" height="74" rx="5"/></g></svg>