<svg width="139" height="173" viewBox="0 0 139 173" xmlns="http://www.w3.org/2000/svg">
    <title>
        PBS-copy
    </title>
    <g fill-rule="evenodd">
        <path d="M123.837 158h-63v-58h44.011a2 2 0 0 0 2-2.004L106.764 56h17.073v102zM91.822 85H67.857l23.92-21.881L91.822 85zm1.514-44L46.492 83.544c-.417.38-.655.917-.655 1.481V171a2 2 0 0 0 2 2h89a2 2 0 0 0 2-2V43a2 2 0 0 0-2-2h-43.5z"/>
        <path d="M19.477 46L46 22.182V46H19.477zM48.06.506L.67 42.706c-.426.38-.67.923-.67 1.494V132a2 2 0 0 0 2 2h44v-15H15V60h43a2 2 0 0 0 2-2V15h18v40l15.337-14L93 2a2 2 0 0 0-2-2H49.39c-.49 0-.963.18-1.33.506z"/>
    </g>
</svg>
