<svg width="256" height="256" viewBox="0 0 256 256" xmlns="http://www.w3.org/2000/svg"><title>PBS-rewind</title><g fill="#222" fill-rule="evenodd"><path d="M63.494 178.561c11.618 16.592 29.317 28.975 50.663 33.43 21.564 4.503 43.591.336 62.023-11.73 18.43-12.066 31.06-30.587 35.562-52.152 9.235-44.25-22.082-74.918-25.776-78.351-2.567-2.636-17.323-16.607-41.598-16.777-1.081-.008-1.964.863-1.938 1.945l.364 15.198a1.891 1.891 0 0 0 1.848 1.849c17.461.292 27.557 10.85 27.658 10.96l.325.357.36.324c1.102 1.003 27.498 25.505 20.17 60.616-3.464 16.6-13.186 30.858-27.375 40.145-14.188 9.289-31.144 12.495-47.744 9.03-33.655-7.025-55.535-39.656-49.531-73.285.182-1.02-.46-2.005-1.475-2.217L52.157 114.8c-1.035-.216-2.062.455-2.255 1.496-4.164 22.528 1.323 44.744 13.592 62.266"/><path d="M108.17 67.44l35.479 22.62c.935.597 1.678.19 1.659-.913l-.804-46.075c-.02-1.1-.777-1.483-1.69-.855l-34.669 23.845c-.567.39-.558 1.007.025 1.378z"/><path d="M79.17 67.44l35.479 22.62c.935.597 1.678.19 1.659-.913l-.804-46.075c-.02-1.1-.777-1.483-1.69-.855L79.145 66.062c-.567.39-.558 1.007.025 1.378z"/><text font-family="OpenSans-Bold, Open Sans" font-size="60" font-weight="bold" letter-spacing="3" transform="translate(28 24)"><tspan x="63" y="129">10</tspan></text></g></svg>