<?xml version="1.0" encoding="UTF-8" standalone="no"?>
<svg width="256px" height="256px" viewBox="0 0 256 256" version="1.1" xmlns="http://www.w3.org/2000/svg" xmlns:xlink="http://www.w3.org/1999/xlink">
    <!-- Generator: Sketch 39.1 (31720) - http://www.bohemiancoding.com/sketch -->
    <title>PBS-youtube</title>
    <desc>Created with Sketch.</desc>
    <defs></defs>
    <g id="Page-1" stroke="none" stroke-width="1" fill="none" fill-rule="evenodd">
        <g id="PBS-youtube" fill="#222222">
            <g id="youTube" transform="translate(58.480000, 46.000000)">
                <g transform="translate(0.000000, 0.000000)" id="Icons">
                    <g>
                        <g id="youTube">
                            <path d="M133.700024,85.028247 C132.905451,81.4160428 131.143868,78.3865249 128.420908,75.9385659 C125.695695,73.4906072 122.55798,72.0513609 119.006636,71.6230808 C107.743997,70.3991015 90.7570568,69.7871118 68.0435608,69.7871118 C45.3311922,69.7871118 28.3746822,70.3991015 17.171777,71.6230808 C13.5606996,72.0513609 10.4083328,73.4906072 7.71354956,75.9385659 C5.01989345,78.3876518 3.2447851,81.41717 2.38709792,85.028247 C0.795699296,92.1309341 0,102.843571 0,117.168413 C0,131.737825 0.795699296,142.451589 2.38709792,149.308579 C3.18392425,152.918529 4.94438092,155.950301 7.66846754,158.397133 C10.3925542,160.846218 13.5302694,162.253908 17.0804858,162.621327 C28.3453788,163.907294 45.3334462,164.549714 68.044688,164.549714 C90.7548025,164.549714 107.745124,163.907294 119.006636,162.621327 C122.55798,162.253908 125.678789,160.846218 128.373572,158.397133 C131.068356,155.950301 132.843464,152.918529 133.700024,149.308579 C135.291422,142.205892 136.088249,131.493255 136.088249,117.168413 C136.087122,102.599001 135.290296,91.8852367 133.700024,85.028247 L133.700024,85.028247 Z M91.3667922,62.1659803 C94.4289949,62.1659803 97.5824888,60.2680234 100.826147,56.4721093 L100.826147,61.5224332 L109.182116,61.5224332 L109.182116,15.7021001 L100.826147,15.7021001 L100.826147,50.6869471 C98.9890505,53.3197425 97.2454999,54.6350134 95.5909864,54.6350134 C94.4876016,54.6350134 93.8451814,53.9621627 93.662599,52.6153345 C93.6006112,52.492486 93.5701806,51.4206585 93.5701806,49.4009799 L93.5701806,15.7021001 L85.2142109,15.7021001 L85.2142109,51.8816231 C85.2142109,55.0035597 85.4599083,57.298239 85.9490494,58.7679161 C86.7458755,61.0332921 88.5514144,62.1659803 91.3667922,62.1659803 L91.3667922,62.1659803 Z M66.1163006,62.1659803 C70.3404945,62.1659803 73.5841527,60.6050123 75.8495287,57.4830757 C77.5637764,55.2176998 78.4203363,51.6054952 78.4203363,46.6475899 L78.4203363,30.5780706 C78.4203363,25.6810261 77.5626492,22.099252 75.8495287,19.8338757 C73.5841527,16.7119395 70.3404945,15.1509713 66.1163006,15.1509713 C62.0138284,15.1509713 58.7994735,16.7119395 56.4743636,19.8338757 C54.7612431,22.099252 53.903556,25.6810261 53.903556,30.5780706 L53.903556,46.6475899 C53.903556,51.5446345 54.7601163,55.1568387 56.4743636,57.4830757 C58.8006006,60.6050123 62.0138284,62.1659803 66.1163006,62.1659803 L66.1163006,62.1659803 Z M33.5208053,36.6382336 L33.5208053,61.5235601 L42.7029048,61.5235601 L42.7029048,36.6382336 L53.8122648,0 L44.4464558,0 L38.2037099,24.1504883 L31.6837095,0 L21.950481,0 C23.6647283,5.14274208 25.6539767,10.8659164 27.9193527,17.171777 C30.7967187,25.6190379 32.6631183,32.1086081 33.5208053,36.6382336 L33.5208053,36.6382336 Z M62.1671074,28.924684 C62.1671074,24.7004901 63.4835051,22.5883928 66.1163006,22.5883928 C68.749096,22.5883928 70.0643665,24.7004901 70.0643665,28.924684 L70.0643665,48.2074311 C70.0643665,52.4936128 68.749096,54.6350134 66.1163006,54.6350134 C63.4835051,54.6350134 62.1671074,52.492486 62.1671074,48.2074311 L62.1671074,28.924684 L62.1671074,28.924684 Z M125.894056,125.433091 L109.458244,125.433091 L109.458244,133.421642 C109.458244,137.645836 110.864806,139.756806 113.681311,139.756806 C115.70099,139.756806 116.926097,138.655675 117.354377,136.450033 C117.476098,135.838043 117.538086,133.971643 117.538086,130.849707 L125.894056,130.849707 L125.894056,132.043256 C125.894056,135.043471 125.832068,136.817452 125.710346,137.370835 C125.527764,139.021967 124.886471,140.675354 123.781959,142.327613 C121.578571,145.572398 118.27067,147.194228 113.863894,147.194228 C109.640827,147.194228 106.335181,145.633259 103.946956,142.51245 C102.172975,140.247074 101.284857,136.696857 101.284857,131.860674 L101.284857,115.973737 C101.284857,111.137553 102.141417,107.587337 103.854538,105.321961 C106.242763,102.200024 109.517978,100.640183 113.681311,100.640183 C117.783784,100.640183 121.029696,102.200024 123.41454,105.321961 C125.069053,107.587337 125.894056,111.137553 125.894056,115.973737 L125.894056,125.433091 L125.894056,125.433091 L125.894056,125.433091 Z M94.857275,132.961804 C94.857275,137.430569 94.5822739,140.492771 94.0333993,142.146158 C92.9908755,145.51041 90.8190447,147.194228 87.5133986,147.194228 C84.5751719,147.194228 81.7282364,145.51041 78.9725921,142.146158 L78.9725921,146.552934 L70.8014591,146.552934 L70.8014591,85.6740484 L78.9725921,85.6740484 L78.9725921,105.600342 C81.6065147,102.295823 84.4511962,100.642437 87.5133986,100.642437 C90.8190447,100.642437 92.9908755,102.356685 94.0333993,105.784052 C94.5822739,107.375451 94.857275,110.406096 94.857275,114.87486 L94.857275,132.961804 L94.857275,132.961804 Z M63.6367842,146.551807 L55.4645243,146.551807 L55.4645243,141.592775 C52.1588782,145.327828 49.0358148,147.194228 46.0975881,147.194228 C43.28221,147.194228 41.5059748,146.061539 40.7722634,143.79729 C40.2831226,142.327613 40.0374249,140.092668 40.0374249,137.09358 L40.0374249,101.190185 L48.2096851,101.190185 L48.2096851,134.614064 C48.2096851,136.572882 48.2401156,137.644709 48.3021034,137.828419 C48.485813,139.114386 49.1282332,139.756806 50.2304908,139.756806 C51.8827503,139.756806 53.628555,138.470838 55.4645243,135.900031 L55.4645243,101.190185 L63.6367842,101.190185 L63.6367842,146.551807 L63.6367842,146.551807 Z M38.8450032,94.3050192 L29.0193564,94.3050192 L29.0193564,146.551807 L19.8372569,146.551807 L19.8372569,94.3050192 L10.1953199,94.3050192 L10.1953199,85.6729212 L38.8450032,85.6729212 L38.8450032,94.3050192 L38.8450032,94.3050192 L38.8450032,94.3050192 Z M113.59002,108.078732 C110.835503,108.078732 109.458244,110.160398 109.458244,114.321477 L109.458244,118.545672 L117.721796,118.545672 L117.721796,114.321477 C117.721796,110.158144 116.34341,108.078732 113.59002,108.078732 L113.59002,108.078732 Z M83.1032408,108.078732 C81.6944247,108.078732 80.3182935,108.753836 78.9714653,110.099537 L78.9714653,137.737127 C80.3182935,139.082828 81.6944247,139.756806 83.1032408,139.756806 C85.4892117,139.756806 86.6850148,137.707824 86.6850148,133.604224 L86.6850148,114.231313 C86.6850148,110.128841 85.4903388,108.078732 83.1032408,108.078732 L83.1032408,108.078732 Z" id="youTube_icon"></path>
                        </g>
                    </g>
                </g>
            </g>
        </g>
    </g>
</svg>