<svg width="174" height="166" viewBox="0 0 174 166" xmlns="http://www.w3.org/2000/svg">
    <title>
        PBS-favorite
    </title>
    <path d="M171.125 69.475l-37.663 36.93 8.775 52.289v1.83c0 1.464-.368 2.926-1.099 3.657-.732 1.1-1.463 1.83-2.925 1.83-1.463 0-2.925-.73-4.388-1.461l-46.8-24.5-46.801 24.5c-1.462.73-2.925 1.462-4.387 1.462-1.463 0-2.562-.731-3.294-1.831-.731-.731-1.099-2.193-1.099-3.656 0-.37 0-1.1.368-1.831l8.775-52.288L2.562 69.475C1.099 67.28 0 65.819 0 64.355c0-2.561 2.193-4.386 5.85-4.755l52.65-7.681L81.9 4.387C83.363 1.462 84.825 0 87.019 0s3.656 1.462 5.119 4.387l23.4 47.532 52.65 7.68c3.656.37 5.85 2.195 5.85 4.757.012 1.463-1.088 3.294-2.913 5.119" fill-rule="evenodd"/>
</svg>
