<svg width="256" height="256" viewBox="0 0 256 256" xmlns="http://www.w3.org/2000/svg"><title>PBS-text</title><path d="M196.303 196.55c-.923-.57-2.167-2.594-3.73-6.076-2.913-5.828-5.22-11.122-6.923-15.883-2.77-7.534-5.08-13.36-6.927-17.482-4.047-9.451-7.456-17.8-10.224-25.049-1.493-3.908-5.894-14.46-13.211-31.659L133.45 49.24c-.648-1.237-2.775-2.239-4.716-2.239h-6.564c-1.949 0-4.098 1.473-4.81 3.316l-28.546 73.856-25.247 65.662c-1.99 3.695-3.694 6.112-5.114 7.25-1.49 1.063-5.398 2.166-11.718 3.301-4.12.784-5.096 1.088-5.096 1.088-1.893.46-3.468 2.456-3.517 4.404l-.033 1.279c-.05 1.972 1.488 3.572 2.147 3.572 6.108 0 12.039-.498 17.79-1.492l5.114-.852c20.1 1.421 33.636 1.972 33.636 1.972 1.957.088 3.698-1.395 3.756-2.717 0-2.133-.03-2.637-.03-2.637-.042-1.959-1.63-3.774-3.563-4.06 0 0 .557.087-.828-.126-1.384-.213-2.45-.391-3.195-.533-.746-.14-1.225-.212-1.439-.212-5.469-.782-9.126-1.919-10.972-3.41-1.207-.852-1.811-2.38-1.811-4.585 0-1.42.817-4.403 2.45-8.954 5.327-14.85 9.77-25.899 9.77-25.899.723-1.825 2.904-3.298 4.834-3.29l40.89.181c1.946.009 4.108 1.463 4.846 3.294l8.48 21.025 5.005 12.15c.426 1.21.638 2.346.638 3.411s-.425 2.026-1.277 2.877c-.853.712-3.267 1.528-7.245 2.45l-10.507 2.247c-1.906.408-3.532 2.341-3.632 4.312l-.06 1.166c-.1 1.974 1.377 3.52 3.34 3.453l2.656-.092 21.307-1.172c3.976-.141 8.772-.215 14.383-.215 6.815 0 13.526.286 20.133.853 7.953.568 16.944.758 16.944.758 1.938.052 3.586-1.478 3.615-2.677 0-1.278-.21-2.548-.21-2.548-.236-1.948-1.974-4.008-3.813-4.559 0 0-4.249-1.418-7.587-1.844-3.338-.287-5.79-1.102-7.352-2.452zm-70.15-55.27c-2.734-.033-6.959-.087-12.676-.159-5.717-.072-12.82-.166-12.82-.166-1.951-.026-2.97-1.535-2.288-3.344l15.62-41.373c.688-1.82 1.898-1.869 2.725-.046 0 0 4.557 9.86 8.32 19.24 4.262 10.376 8.578 22.34 8.578 22.34.676 1.85-.393 3.46-1.867 3.561-.993 0-2.858-.018-5.592-.053z" fill="#000" fill-rule="evenodd"/></svg>