<?xml version="1.0" encoding="UTF-8" standalone="no"?>
<svg width="256px" height="256px" viewBox="0 0 256 256" version="1.1" xmlns="http://www.w3.org/2000/svg" xmlns:xlink="http://www.w3.org/1999/xlink">
    <!-- Generator: Sketch 39.1 (31720) - http://www.bohemiancoding.com/sketch -->
    <title>PBS-archive</title>
    <desc>Created with Sketch.</desc>
    <defs></defs>
    <g id="Page-1" stroke="none" stroke-width="1" fill="none" fill-rule="evenodd">
        <g id="PBS-archive" fill="#221F20">
            <g id="Page-1" transform="translate(38.000000, 42.000000)">
                <path d="M14.0710746,156.970681 L165.928925,156.970681 L165.928925,90.0293188 L149.84944,90.0293188 L124.714748,109.670365 L56.1792342,109.670365 L31.4704273,90.0293188 L14.0710746,90.0293188 L14.0710746,156.970681 Z M178.123857,171 L1.87614327,171 C0.839574115,171 0,170.162917 0,169.129424 L0,77.8705758 C0,76.8370827 0.839574115,76 1.87614327,76 L36.9919169,76 C37.5313081,76 38.0453714,76.2319514 38.4018386,76.6359958 L62.5496787,95.6410463 L118.415597,95.6410463 L142.99026,76.623837 C143.346727,76.227275 143.8561,76 144.389863,76 L178.123857,76 C179.160426,76 180,76.8370827 180,77.8705758 L180,169.129424 C180,170.162917 179.160426,171 178.123857,171 L178.123857,171 Z" id="Fill-1"></path>
                <path d="M11.1946654,84 L0.824669989,78.8115877 C-0.0421485502,78.2239187 -0.261193408,77.0363571 0.337903639,76.1760097 L52.1420125,0.802990955 C52.4921098,0.29994627 53.0649963,0 53.6762625,0 L129.969399,0 C130.608748,0 131.205037,0.328154383 131.548582,0.870690427 L178.70688,76.6104146 C179.262917,77.4876869 179.004556,78.652682 178.129313,79.2093221 L167.392371,83.7367243 L123.258576,14.1040566 L60.0323078,14.1040566 L11.1946654,84 Z" id="Fill-3"></path>
                <path d="M116.09893,31 L65.9014177,31 C64.3655824,31 63.4657235,29.179 64.3465981,27.853 L68.333315,21.853 C68.6883226,21.318 69.2692442,21 69.8881346,21 L113.251275,21 C113.970782,21 114.627641,21.428 114.949426,22.106 L117.797081,28.106 C118.428312,29.435 117.510417,31 116.09893,31" id="Fill-5"></path>
                <path d="M129.11112,49 L52.8888802,49 C51.3631719,49 50.4692463,47.179 51.3443127,45.853 L55.3047423,39.853 C55.6574091,39.318 56.2335573,39 56.8493098,39 L125.15069,39 C125.766443,39 126.342591,39.318 126.695258,39.853 L130.655687,45.853 C131.530754,47.179 130.636828,49 129.11112,49" id="Fill-7"></path>
                <path d="M139.118424,67 L41.8822619,67 C40.3625212,67 39.4711529,65.179 40.3427965,63.853 L44.2877352,57.853 C44.6399618,57.318 45.2138565,57 45.8272005,57 L135.737048,57 C136.397356,57 137.008822,57.369 137.347898,57.971 L140.729274,63.971 C141.480691,65.304 140.578991,67 139.118424,67" id="Fill-9"></path>
            </g>
        </g>
    </g>
</svg>