<svg width="169" height="172" viewBox="0 0 169 172" xmlns="http://www.w3.org/2000/svg" xmlns:xlink="http://www.w3.org/1999/xlink">
    <title>
        PBS-twitter_box
    </title>
    <defs>
        <path id="a" d="M169 86V0H0v172h169z"/>
    </defs>
    <g fill="none" fill-rule="evenodd">
        <mask id="b" fill="#fff">
            <use xlink:href="#a"/>
        </mask>
        <path d="M128.313 63.049c.041.978.061 1.963.061 2.95 0 30.102-21.898 64.81-61.948 64.81-12.295 0-23.738-3.768-33.376-10.234 1.704.212 3.438.32 5.194.32 10.202 0 19.589-3.642 27.04-9.752-9.526-.183-17.566-6.771-20.338-15.82 1.329.268 2.692.41 4.097.41 1.986 0 3.91-.28 5.737-.797-10.048-2.115-17.597-11.461-17.465-22.624a20.994 20.994 0 0 0 9.863 2.85c-5.843-4.083-9.686-11.056-9.686-18.958 0-4.18 1.073-8.091 2.947-11.454 10.739 13.782 26.784 22.849 44.879 23.8a23.856 23.856 0 0 1-.564-5.19c0-12.581 9.748-22.78 21.771-22.78 6.262 0 11.922 2.768 15.892 7.195a42.459 42.459 0 0 0 13.826-5.531c-1.627 5.323-5.076 9.786-9.574 12.603a41.834 41.834 0 0 0 12.506-3.586c-2.917 4.569-6.609 8.583-10.862 11.788M149-.001H20C8.954 0 0 8.955 0 20v132c0 11 9 20 20 20h129c11.046 0 20-8.953 20-20V20c0-11.045-8.954-20-20-20" fill="#000" mask="url(#b)"/>
    </g>
</svg>
