<svg width="175" height="171" viewBox="0 0 175 171" xmlns="http://www.w3.org/2000/svg">
    <title>
        PBS-disqus
    </title>
    <path d="M90.466 170.798c-20.796 0-39.81-7.617-54.511-20.217l-36.18 4.954 13.977-34.578A85.546 85.546 0 0 1 6.15 85.62C6.15 38.579 43.9.439 90.466.439c46.563 0 84.309 38.14 84.309 85.18 0 47.049-37.745 85.179-84.309 85.179zm46.038-85.423v-.237c0-24.58-17.294-42.106-47.112-42.106H57.187v85.179h31.728c30.05.001 47.589-18.258 47.589-42.836zm-46.756 21.908h-9.42V63.965h9.42c13.835 0 23.018 7.906 23.018 21.541v.238c0 13.75-9.183 21.54-23.018 21.54z" fill="#222" fill-rule="evenodd"/>
</svg>
