<?xml version="1.0" encoding="UTF-8" standalone="no"?>
<svg width="256px" height="256px" viewBox="0 0 256 256" version="1.1" xmlns="http://www.w3.org/2000/svg" xmlns:xlink="http://www.w3.org/1999/xlink">
    <!-- Generator: Sketch 39.1 (31720) - http://www.bohemiancoding.com/sketch -->
    <title>PBS-component_add_dropdown</title>
    <desc>Created with Sketch.</desc>
    <defs></defs>
    <g id="Page-1" stroke="none" stroke-width="1" fill="none" fill-rule="evenodd">
        <g id="PBS-component_add_dropdown">
            <g id="Group-2" transform="translate(42.000000, 87.000000)" fill="#222222">
                <rect id="Rectangle" x="3.55271368e-15" y="0" width="21.1111111" height="20" rx="2"></rect>
                <rect id="Rectangle-Copy" x="3.55271368e-15" y="47" width="21.1111111" height="20" rx="2"></rect>
                <rect id="Rectangle-Copy-2" x="3.55271368e-15" y="91" width="21.1111111" height="20" rx="2"></rect>
                <ellipse id="Oval" cx="148" cy="80" rx="46" ry="45"></ellipse>
                <rect id="Rectangle-Copy-4" x="47" y="0" width="97" height="20" rx="2"></rect>
                <rect id="Rectangle-Copy-5" x="47" y="47" width="86.6666667" height="20" rx="2"></rect>
                <rect id="Rectangle-Copy-6" x="47" y="91" width="86.6666667" height="20" rx="2"></rect>
            </g>
            <rect id="Rectangle-3" fill="#222222" x="29" y="45" width="200" height="20" rx="2"></rect>
            <rect id="Rectangle" fill="#FFFFFF" x="186" y="142" width="10" height="48" rx="2"></rect>
            <rect id="Rectangle" fill="#FFFFFF" transform="translate(191.000000, 166.000000) rotate(-270.000000) translate(-191.000000, -166.000000) " x="186" y="142" width="10" height="48" rx="2"></rect>
        </g>
    </g>
</svg>