<?xml version="1.0" encoding="UTF-8" standalone="no"?>
<svg width="256px" height="256px" viewBox="0 0 256 256" version="1.1" xmlns="http://www.w3.org/2000/svg" xmlns:xlink="http://www.w3.org/1999/xlink">
    <!-- Generator: Sketch 39.1 (31720) - http://www.bohemiancoding.com/sketch -->
    <title>PBS-passport_compass_rose</title>
    <desc>Created with Sketch.</desc>
    <defs></defs>
    <g id="Page-1" stroke="none" stroke-width="1" fill="none" fill-rule="evenodd">
        <g id="PBS-passport_compass_rose">
            <g id="passport_compass_rose" transform="translate(42.000000, 42.000000)">
                <g id="Layer_1">
                    <g id="XMLID_37_">
                        <path d="M171.586538,145.951923 C171.586538,160.175 160.092308,171.669231 145.869231,171.669231 L26.1307692,171.669231 C11.9076923,171.669231 0.413461538,160.175 0.413461538,145.951923 L0.413461538,26.2134615 C0.413461538,11.9903846 11.9076923,0.496153846 26.1307692,0.496153846 L145.869231,0.496153846 C160.092308,0.496153846 171.586538,11.9903846 171.586538,26.2134615 L171.586538,145.951923 L171.586538,145.951923 Z" id="XMLID_1_" fill="#00AAEB"></path>
                        <path d="M85.2557692,142.148077 L72.1076923,100.140385 L30.1,86.9923077 L72.1076923,73.8442308 L85.2557692,31.8365385 L98.4038462,73.9269231 L140.411538,87.075 L98.4038462,100.140385 L85.2557692,142.148077 L85.2557692,142.148077 Z M103.861538,68.3865385 L108.409615,69.7923077 L119.325,52.9230769 L102.373077,63.8384615 L103.861538,68.3865385 L103.861538,68.3865385 Z M66.65,68.3865385 L68.0557692,63.8384615 L51.1038462,52.9230769 L62.0192308,69.7923077 L66.65,68.3865385 L66.65,68.3865385 Z M103.861538,105.680769 L102.455769,110.228846 L119.407692,121.144231 L108.492308,104.192308 L103.861538,105.680769 L103.861538,105.680769 Z M66.65,105.680769 L62.1019231,104.275 L51.1865385,121.226923 L68.0557692,110.311538 L66.65,105.680769 L66.65,105.680769 Z M149.590385,87.075 C149.590385,122.55 120.813462,151.409615 85.2557692,151.409615 C49.7807692,151.409615 20.9211538,122.632692 20.9211538,87.075 C20.9211538,51.5173077 49.6980769,22.7403846 85.2557692,22.7403846 C120.730769,22.7403846 149.590385,51.5173077 149.590385,87.075 L149.590385,87.075 L149.590385,87.075 Z M140.411538,87.075 C140.411538,56.6442308 115.686538,31.9192308 85.2557692,31.9192308 C54.825,31.9192308 30.1,56.6442308 30.1,87.075 C30.1,117.505769 54.825,142.230769 85.2557692,142.230769 C115.686538,142.148077 140.411538,117.423077 140.411538,87.075 L140.411538,87.075 L140.411538,87.075 Z" id="XMLID_38_" fill="#FFFFFF"></path>
                    </g>
                </g>
            </g>
        </g>
    </g>
</svg>