<svg width="256" height="256" viewBox="0 0 256 256" xmlns="http://www.w3.org/2000/svg"><title>PBS-instagram</title><path d="M128.14 42.77c-23.259 0-26.175.098-35.31.516-9.115.416-15.34 1.863-20.787 3.98-5.632 2.189-10.408 5.117-15.169 9.878-4.76 4.761-7.69 9.537-9.877 15.169-2.118 5.447-3.566 11.673-3.981 20.788-.417 9.134-.516 12.05-.516 35.309 0 23.259.099 26.175.516 35.309.415 9.115 1.863 15.34 3.98 20.788 2.189 5.632 5.117 10.408 9.878 15.169 4.761 4.76 9.537 7.69 15.169 9.878 5.447 2.117 11.672 3.564 20.788 3.98 9.134.417 12.05.516 35.309.516 23.258 0 26.175-.099 35.309-.516 9.115-.416 15.34-1.863 20.788-3.98 5.632-2.189 10.407-5.117 15.168-9.878 4.761-4.761 7.69-9.537 9.878-15.169 2.118-5.447 3.565-11.673 3.981-20.788.417-9.134.515-12.05.515-35.31 0-23.258-.098-26.174-.515-35.308-.416-9.115-1.863-15.34-3.98-20.788-2.19-5.632-5.118-10.408-9.879-15.169-4.76-4.76-9.536-7.69-15.168-9.878-5.447-2.117-11.673-3.564-20.788-3.98-9.134-.418-12.051-.516-35.31-.516zm0 15.43c22.867 0 25.575.088 34.605.5 8.35.38 12.885 1.776 15.902 2.949 3.998 1.553 6.851 3.41 9.847 6.406 2.998 2.997 4.854 5.85 6.407 9.847 1.172 3.018 2.568 7.553 2.949 15.902.412 9.03.499 11.739.499 34.606s-.087 25.575-.5 34.605c-.38 8.35-1.776 12.885-2.948 15.903-1.553 3.997-3.41 6.85-6.407 9.847-2.996 2.997-5.849 4.853-9.847 6.406-3.017 1.173-7.552 2.568-15.902 2.949-9.029.412-11.737.499-34.605.499-22.869 0-25.577-.087-34.606-.5-8.35-.38-12.884-1.775-15.902-2.948-3.997-1.553-6.85-3.41-9.847-6.406-2.996-2.997-4.852-5.85-6.406-9.847-1.173-3.018-2.568-7.553-2.95-15.903-.41-9.03-.498-11.738-.498-34.605 0-22.867.087-25.575.499-34.606.381-8.35 1.776-12.884 2.95-15.902 1.553-3.998 3.409-6.85 6.405-9.847 2.997-2.997 5.85-4.853 9.847-6.406 3.018-1.173 7.553-2.568 15.902-2.95 9.03-.411 11.739-.498 34.606-.498zm0 26.233c-24.288 0-43.977 19.69-43.977 43.977 0 24.288 19.69 43.977 43.977 43.977 24.287 0 43.977-19.689 43.977-43.977 0-24.288-19.69-43.977-43.977-43.977zm0 72.523c-15.766 0-28.547-12.78-28.547-28.546s12.781-28.547 28.547-28.547 28.546 12.78 28.546 28.547c0 15.766-12.78 28.546-28.546 28.546zm55.991-74.26c0 5.675-4.6 10.276-10.276 10.276s-10.277-4.601-10.277-10.277c0-5.676 4.601-10.277 10.277-10.277 5.675 0 10.276 4.601 10.276 10.277z" fill="#222" fill-rule="evenodd"/></svg>