<?xml version="1.0" encoding="UTF-8" standalone="no"?>
<svg width="256px" height="256px" viewBox="0 0 256 256" version="1.1" xmlns="http://www.w3.org/2000/svg" xmlns:xlink="http://www.w3.org/1999/xlink">
    <!-- Generator: Sketch 39.1 (31720) - http://www.bohemiancoding.com/sketch -->
    <title>PBS-replay_video</title>
    <desc>Created with Sketch.</desc>
    <defs></defs>
    <g id="Page-1" stroke="none" stroke-width="1" fill="none" fill-rule="evenodd">
        <g id="PBS-replay_video" fill="#222222">
            <path d="M189.122618,72.6198352 L212.359071,107.699039 C212.971749,108.623976 212.578116,109.373786 211.474726,109.373786 L165.392224,109.373786 C164.291135,109.373786 163.895875,108.622957 164.507878,107.699039 L187.744331,72.6198352 C188.124935,72.0452527 188.740977,72.0436861 189.122618,72.6198352 Z" id="Triangle-2" transform="translate(188.433864, 90.781048) rotate(-213.000000) translate(-188.433864, -90.781048) "></path>
            <g id="Page-1" transform="translate(47.000000, 43.000000)">
                <path d="M84.9008116,170 C64.0435203,170 43.1451714,162.350605 26.7797836,146.90747 C10.2462549,131.308204 0.751182275,110.1727 0.0424488578,87.39734 C-0.665306996,64.6229615 7.49734684,42.9346203 23.0288731,26.3268911 C54.8984153,-7.75071985 99.2641496,0.588985948 104.341614,1.68189688 C108.080793,2.29365206 128.580296,6.50720175 143.06192,26.9739965 C143.707111,27.8852466 143.493025,29.1499989 142.565318,29.7696097 L129.531466,38.4785288 C128.665344,39.0568977 127.491291,38.8546159 126.880314,38.0091565 C116.320675,23.3879132 101.451936,21.0980046 101.299437,21.0783656 L100.806745,21.0145388 L100.320896,20.9016145 C98.8242461,20.5628415 62.5664221,12.73375 37.2788138,39.7727396 C25.3232142,52.5567535 19.0384596,69.2528582 19.5849175,86.7846029 C20.1294202,104.316348 27.4396388,120.585304 40.1665359,132.594559 C65.9693201,156.942022 106.416003,156.121111 131.236336,131.083337 C131.98906,130.324289 133.199283,130.284029 133.977424,131.017546 L145.379722,141.77776 C146.173504,142.526988 146.214561,143.794686 145.450107,144.575337 C128.906803,161.468814 106.927269,170 84.9008116,170" id="Fill-1"></path>
            </g>
        </g>
    </g>
</svg>