<?xml version="1.0" encoding="UTF-8" standalone="no"?>
<svg width="256px" height="256px" viewBox="0 0 256 256" version="1.1" xmlns="http://www.w3.org/2000/svg" xmlns:xlink="http://www.w3.org/1999/xlink">
    <!-- Generator: Sketch 39.1 (31720) - http://www.bohemiancoding.com/sketch -->
    <title>PBS-close</title>
    <desc>Created with Sketch.</desc>
    <defs></defs>
    <g id="Page-1" stroke="none" stroke-width="1" fill="none" fill-rule="evenodd">
        <g id="PBS-close" fill="#222222">
            <path d="M138.853553,118.853553 L138.853553,49.357922 C138.853553,48.2447806 137.959277,47.3535534 136.856131,47.3535534 L121.850975,47.3535534 C120.744479,47.3535534 119.853553,48.2509398 119.853553,49.357922 L119.853553,118.853553 L50.357922,118.853553 C49.2447806,118.853553 48.3535534,119.74783 48.3535534,120.850975 L48.3535534,135.856131 C48.3535534,136.962628 49.2509398,137.853553 50.357922,137.853553 L119.853553,137.853553 L119.853553,207.349185 C119.853553,208.462326 120.74783,209.353553 121.850975,209.353553 L136.856131,209.353553 C137.962628,209.353553 138.853553,208.456167 138.853553,207.349185 L138.853553,137.853553 L208.349185,137.853553 C209.462326,137.853553 210.353553,136.959277 210.353553,135.856131 L210.353553,120.850975 C210.353553,119.744479 209.456167,118.853553 208.349185,118.853553 L138.853553,118.853553 Z" id="Combined-Shape" transform="translate(129.353553, 128.353553) rotate(-315.000000) translate(-129.353553, -128.353553) "></path>
        </g>
    </g>
</svg>