<svg width="256" height="256" viewBox="0 0 256 256" xmlns="http://www.w3.org/2000/svg"><title>PBS-reply_mail</title><g fill="#222" fill-rule="evenodd"><path d="M197.698 179.525c1.083-12.355-.289-26.462-6.141-40.136-12.445-29.08-40.22-45.687-87.3-43.56l-.097 19.98c21.314-.963 37.486 2.368 49.213 9.136 9.406 5.428 15.806 12.987 19.797 22.313 4.356 10.179 5.424 24.164 4.604 33.52-.078.897 0 0 0 0-.1.924.719 1.677 1.822 1.683l15.752.078c1.106.006 2.125-.868 2.25-1.973 0 0-.02.322.1-1.041z"/><path d="M64.628 105.386l39.368-26.077c.916-.607 1.66-.198 1.66.907v51.88c0 1.107-.748 1.51-1.66.906l-39.368-26.077c-.641-.425-.643-1.113 0-1.539z"/></g></svg>