<svg width="256" height="256" viewBox="0 0 256 256" xmlns="http://www.w3.org/2000/svg"><title>PBS-component_whats_on</title><g fill="#222" fill-rule="evenodd"><path d="M128.494 145.824a7.89 7.89 0 1 1 0-15.781 7.89 7.89 0 0 1 0 15.78zm6.203-23.324v1.42H121.69v-1.42c0-4.017.586-9.17 5.25-13.649 4.663-4.48 10.49-8.181 10.49-13.778 0-6.187-4.294-9.46-9.708-9.46-9.02 0-9.61 9.356-9.833 11.417h-12.65c.337-9.757 4.46-23.403 22.56-23.403 15.685 0 22.737 10.505 22.737 20.356 0 15.68-15.839 18.404-15.839 28.517z"/><path d="M25.997 42A1.993 1.993 0 0 0 24 43.998v132.004c0 1.103.901 1.998 1.997 1.998H230.003a1.993 1.993 0 0 0 1.997-1.998V43.998A2.002 2.002 0 0 0 230.003 42H25.997zm19.996 20.923c-1.1 0-1.993.89-1.993 2v90.155c0 1.104.904 1.999 1.993 1.999H210.007c1.1 0 1.993-.89 1.993-2V64.922c0-1.104-.904-1.999-1.993-1.999H45.993z"/><rect x="80" y="194" width="99" height="20" rx="2"/><rect x="119" y="176" width="20" height="20" rx="2"/></g></svg>