<svg width="256" height="256" viewBox="0 0 256 256" xmlns="http://www.w3.org/2000/svg" xmlns:xlink="http://www.w3.org/1999/xlink"><title>PBS-logo</title><defs><path id="a" d="M0 .126h172.231v172.229H0"/></defs><g fill="none" fill-rule="evenodd"><g transform="translate(40.825 41.825)"><mask id="b" fill="#fff"><use xlink:href="#a"/></mask><path d="M172.231 86.24c0 47.562-38.554 86.114-86.117 86.114C38.555 172.354 0 133.802 0 86.241 0 38.68 38.555.127 86.114.127c47.563 0 86.117 38.555 86.117 86.114" fill="#000" mask="url(#b)"/></g><path d="M164.851 80.107h-14.06l21.37 48.589h-9.738v12.885c.027 7.819-3.238 11.155-13.855 11.018v24.876h13.931v-24.876h4.564c4.046.108 9.523-3.178 9.595-9.563v-14.34h9.479l-21.286-48.59zm-35.964 41.717a8.525 8.525 0 1 1-.002-17.05 8.525 8.525 0 0 1 .002 17.05zm6.82-41.717h-26.045c-21.368 0-38.943 14.922-38.943 37.05 0 18.607 11.198 31.895 27.922 34.434v25.884h34.803v-24.876h4.831c5.633-.552 9.464-4.286 9.52-9.516v-14.387h9.481l-21.57-48.59z" fill="#FFF"/></g></svg>