<svg width="256" height="256" viewBox="0 0 256 256" xmlns="http://www.w3.org/2000/svg"><title>PBS-undo</title><g fill="#222" fill-rule="evenodd"><path d="M177.536 202.259c19.413-10.412 33.609-27.763 39.972-48.854 6.363-21.09 4.133-43.395-6.28-62.809-21.369-39.834-65.073-43.197-70.11-43.452-3.66-.369-23.944-1.587-42.65 13.886-.833.69-.948 1.924-.233 2.736l10.047 11.409c.668.758 1.82.864 2.604.228 13.564-11 28.085-9.401 28.233-9.381l.478.064.484.017c1.489.06 37.46 1.862 54.415 33.468 8.016 14.944 9.733 32.115 4.834 48.35-4.898 16.235-15.826 29.59-30.77 37.607-30.296 16.251-68.032 5.319-85.05-24.302-.516-.898-1.64-1.24-2.554-.75l-13.389 7.182c-.932.5-1.287 1.674-.766 2.595 11.292 19.934 29.775 33.426 50.437 38.962 19.565 5.243 41.083 3.352 60.298-6.956z"/><path d="M76.32 95.149l11.808-45.722c.275-1.064 1.1-1.257 1.84-.436l34.714 38.554c.741.823.456 1.623-.626 1.784L77.35 96.292c-.76.114-1.222-.396-1.03-1.143z"/></g></svg>