<svg width="165" height="165" viewBox="0 0 165 165" xmlns="http://www.w3.org/2000/svg">
    <title>
        PBS-info
    </title>
    <path d="M.003 83.508c.8 45.543 37.953 81.898 83.496 81.498 45.543-.8 81.897-37.952 81.498-83.495-.4-45.943-37.953-82.297-83.496-81.498C35.958.812-.396 37.965.003 83.508m69.114 50.337c-5.593 0-9.988-3.595-5.993-18.776l6.392-27.166c1.2-4.395 1.2-5.993 0-5.993-1.598 0-9.188 3.196-13.583 5.993l-2.796-4.794C67.12 71.523 83.1 64.732 89.891 64.732c5.593 0 6.791 6.79 3.995 17.178l-7.59 28.365c-1.199 5.193-.8 6.79.4 6.79 1.597 0 7.19-1.996 12.783-6.391l3.196 4.395c-13.184 13.583-27.965 18.776-33.558 18.776M90.69 27.179c8.39 0 10.786 4.794 10.786 10.387 0 6.79-5.593 13.183-15.18 13.183-7.99 0-11.586-3.995-11.586-10.387.4-5.193 4.794-13.183 15.98-13.183" fill-rule="evenodd"/>
</svg>
