<svg width="126" height="126" viewBox="0 0 126 126" xmlns="http://www.w3.org/2000/svg">
    <title>
        PBS-close
    </title>
    <path d="M76.601 63.166l49.14-49.141a1.997 1.997 0 0 0 .005-2.83L115.136.585a2 2 0 0 0-2.83.005l-49.14 49.141L14.025.59a1.997 1.997 0 0 0-2.83-.005L.585 11.195a1.998 1.998 0 0 0 .005 2.83l49.141 49.141L.59 112.307a1.997 1.997 0 0 0-.005 2.83l10.61 10.61a2 2 0 0 0 2.83-.005l49.141-49.141 49.14 49.141c.788.787 2.05.785 2.83.005l10.61-10.61a1.998 1.998 0 0 0-.005-2.83l-49.14-49.141z" fill-rule="evenodd"/>
</svg>
