<svg width="175" height="175" viewBox="0 0 175 175" xmlns="http://www.w3.org/2000/svg">
    <title>
        PBS-info_line
    </title>
    <g fill="#222" fill-rule="evenodd">
        <path d="M.503 88.533c.844 48.1 40.046 86.394 88.02 85.973 48.101-.843 86.395-40.045 85.974-88.02-.42-48.34-39.942-86.817-88.1-85.972l.317 17.997c38.157-.67 69.45 29.797 69.784 68.132.334 38.085-30.056 69.196-68.212 69.865-38.004.333-69.115-30.057-69.785-68.212C18.168 50.29 48.558 19.18 86.714 18.51L86.398.514C38.376 1.356.082 40.558.503 88.533z"/>
        <path d="M74.117 138.845c-5.593 0-9.988-3.595-5.993-18.776l6.392-27.166c1.199-4.395 1.199-5.993 0-5.993-1.598 0-9.188 3.196-13.583 5.993l-2.796-4.794C72.119 76.523 88.099 69.732 94.89 69.732c5.593 0 6.791 6.791 3.995 17.178l-7.59 28.365c-1.2 5.193-.8 6.791.399 6.791 1.598 0 7.19-1.997 12.784-6.392l3.196 4.395c-13.184 13.583-27.965 18.776-33.558 18.776zM95.69 32.18c8.39 0 10.786 4.794 10.786 10.387 0 6.791-5.593 13.183-15.18 13.183-7.99 0-11.586-3.995-11.586-10.387.4-5.193 4.794-13.183 15.98-13.183z"/>
    </g>
</svg>
