<svg width="208" height="172" viewBox="0 0 208 172" xmlns="http://www.w3.org/2000/svg">
    <title>
        PBS-tv_schedule
    </title>
    <path d="M205.607 0H1.601C.498 0 0 .593 0 1.705v132.002C0 134.813.505 136 1.601 136H95v16H55.602c-1.103 0-1.602.598-1.602 1.697v16.019c0 1.092.498 2.284 1.602 2.284h96.004c1.103 0 2.394-1.185 2.394-2.284v-16.02c0-1.091-1.29-1.696-2.394-1.696H115v-16h90.607c1.103 0 2.393-1.18 2.393-2.292V1.705C208 .6 206.703 0 205.607 0zM188 26.168v86.616c0 1.11-1.288 2.216-2.389 2.216H21.597c-1.089 0-1.597-1.112-1.597-2.216V22.628c0-1.11.496-1.628 1.597-1.628h164.014c1.089 0 2.389.525 2.389 1.629v3.539zM49 73h21V52H49v21zm29 31h21V83H78v21zm-29 0h21V83H49v21zm59-31h21V52h-21v21zm-30 0h21V52H78v21zm30 31h21V83h-21v21zm29-31h21V52h-21v21zm0 31h21V83h-21v21zM49.25 43.185h109V30.706h-109v12.479z" fill-rule="evenodd"/>
</svg>
