<svg width="169" height="169" viewBox="0 0 169 169" xmlns="http://www.w3.org/2000/svg">
    <title>
        PBS-circle
    </title>
    <path d="M169.109 84.555c0 15.34-3.779 29.487-11.338 42.444-7.559 12.956-17.817 23.213-30.773 30.772-12.956 7.559-27.103 11.339-42.443 11.339-15.34 0-29.488-3.78-42.444-11.34-12.956-7.559-23.213-17.816-30.772-30.772C3.78 114.043 0 99.895 0 84.555c0-15.34 3.78-29.488 11.339-42.444 7.559-12.956 17.816-23.212 30.772-30.771C55.067 3.779 69.215-.002 84.555-.002c15.34 0 29.487 3.78 42.443 11.34 12.956 7.559 23.214 17.816 30.773 30.772 7.559 12.956 11.338 27.104 11.338 42.444" fill-rule="evenodd"/>
</svg>
