<?xml version="1.0" encoding="UTF-8" standalone="no"?>
<svg width="256px" height="256px" viewBox="0 0 256 256" version="1.1" xmlns="http://www.w3.org/2000/svg" xmlns:xlink="http://www.w3.org/1999/xlink">
    <!-- Generator: Sketch 39.1 (31720) - http://www.bohemiancoding.com/sketch -->
    <title>PBS-tumblr</title>
    <desc>Created with Sketch.</desc>
    <defs></defs>
    <g id="Page-1" stroke="none" stroke-width="1" fill="none" fill-rule="evenodd">
        <g id="PBS-tumblr" fill="#222222">
            <g id="tumblr" transform="translate(74.584943, 42.735909)">
                <path d="M63.8543551,74.49054 L63.8543551,113.427809 C63.8543551,123.308448 63.726657,129.001653 64.7748453,131.800369 C65.8123921,134.588444 68.419561,137.477612 71.2555223,139.148329 C75.0279361,141.409649 79.3271044,142.537648 84.1743102,142.537648 C92.7939299,142.537648 97.8858903,141.399007 106.409736,135.796254 L106.409736,161.394396 C99.141588,164.81032 92.7992506,166.816244 86.9038564,168.199639 C81.0031415,169.572394 74.6235588,170.264091 67.7704292,170.264091 C59.9861677,170.264091 55.3890373,169.285073 49.4138318,167.327036 C43.4333056,165.353037 38.3307036,162.538358 34.1113466,158.925567 C29.8813481,155.280851 26.9602547,151.407343 25.3214629,147.315684 C23.682671,143.224025 22.8739165,137.270103 22.8739165,129.485842 L22.8739165,69.776353 L0.0212830114,69.776353 L0.0212830114,45.6680218 C6.7041486,43.4971546 14.1798064,40.3845142 18.9418802,36.3301005 C23.725237,32.2650453 27.5508583,27.4018772 30.4347064,21.7086717 C33.3238752,16.0314284 35.3138367,8.78456297 36.3992703,0.00532075286 L63.8490343,0.00532075286 L63.8490343,42.5713436 L106.409736,42.5713436 L106.409736,74.4958608 L63.8490343,74.4958608 L63.8543551,74.49054 Z" id="Shape"></path>
            </g>
        </g>
    </g>
</svg>