<svg width="256" height="256" viewBox="0 0 256 256" xmlns="http://www.w3.org/2000/svg"><title>PBS-replay_video</title><g fill="#222" fill-rule="evenodd"><path d="M197.748 106.387l-38.594-16.764c-1.017-.442-1.096-1.285-.17-1.886l38.648-25.099c.923-.6 1.664-.185 1.654.923l-.383 42.076c-.006.689-.522 1.026-1.155.75z"/><path d="M131.9 213c-20.856 0-41.755-7.65-58.12-23.093-16.534-15.599-26.029-36.734-26.738-59.51-.707-22.774 7.455-44.462 22.987-61.07 31.87-34.078 76.235-25.738 81.313-24.645 3.739.612 24.238 4.825 38.72 25.292.645.911.431 2.176-.497 2.796l-13.034 8.709a1.942 1.942 0 0 1-2.65-.47c-10.56-14.621-25.43-16.911-25.582-16.93l-.492-.064-.486-.113c-1.497-.34-37.755-8.168-63.042 18.87-11.956 12.785-18.24 29.48-17.694 47.013.544 17.531 7.855 33.8 20.582 45.81 25.802 24.347 66.249 23.526 91.07-1.512.752-.759 1.962-.799 2.74-.065l11.403 10.76c.794.749.835 2.017.07 2.797C175.907 204.47 153.927 213 131.9 213"/></g></svg>