<?xml version="1.0" encoding="UTF-8" standalone="no"?>
<svg width="256px" height="256px" viewBox="0 0 256 256" version="1.1" xmlns="http://www.w3.org/2000/svg" xmlns:xlink="http://www.w3.org/1999/xlink">
    <!-- Generator: Sketch 39.1 (31720) - http://www.bohemiancoding.com/sketch -->
    <title>PBS-google</title>
    <desc>Created with Sketch.</desc>
    <defs></defs>
    <g id="Page-1" stroke="none" stroke-width="1" fill="none" fill-rule="evenodd">
        <g id="PBS-google" fill="#222222">
            <g id="google" transform="translate(72.087196, 42.590880)">
                <path d="M109.885348,3.41060513e-13 L57.3405722,3.41060513e-13 C33.7823389,3.41060513e-13 11.6109916,17.8475267 11.6109916,38.5190292 C11.6109916,59.6423678 27.6700003,76.6929058 51.6361411,76.6929058 C53.3054246,76.6929058 54.924504,76.6615283 56.5059304,76.5422938 C54.949606,79.5231571 53.8388422,82.8742749 53.8388422,86.3571784 C53.8388422,92.2310479 56.9954196,96.9878782 60.9929141,100.872414 C57.9743978,100.872414 55.0625651,100.960271 51.8808857,100.960271 C22.7060785,100.960271 0.246058042,119.542031 0.246058042,138.814097 C0.246058042,157.791214 24.8648511,169.664463 54.0459338,169.664463 C87.3123681,169.664463 105.680761,150.787754 105.680761,131.810637 C105.680761,116.592545 101.193778,107.480517 87.3060926,97.6593569 C82.5555378,94.295688 73.4748869,86.1187093 73.4748869,81.3179505 C73.4748869,75.6888255 75.0814154,72.9087783 83.5596181,66.288124 C92.2511879,59.4980313 98.4011795,49.9529932 98.4011795,38.8516308 C98.4011795,25.6354243 92.514759,12.7518194 81.4636005,8.49702925 L98.1250575,8.49702925 L109.885348,3.57781809e-13 L109.885348,3.41060513e-13 Z M91.5295052,128.541101 C91.9436883,130.298241 92.1758819,132.111861 92.1758819,133.956858 C92.1758819,149.294185 82.2919668,161.274117 53.9392503,161.274117 C33.7697879,161.274117 19.2043486,148.503471 19.2043486,133.172421 C19.2043486,118.142594 37.2715178,105.629244 57.4409802,105.848887 C62.1476064,105.899091 66.5341821,106.658426 70.5128501,107.944904 C81.4636005,115.557088 89.3142531,119.862082 91.5295052,128.534825 L91.5295052,128.541101 Z M59.2420492,71.3399029 C45.7057921,70.9319953 32.8410137,56.1971174 30.5002516,38.4186212 C28.1594894,20.640125 37.2401403,7.03483736 50.7763974,7.43646947 C64.3126545,7.84437708 77.1774329,22.1085924 79.518195,39.8870886 C81.8589571,57.6655848 72.7720307,71.7478105 59.2420492,71.3399029 L59.2420492,71.3399029 Z" id="Shape"></path>
            </g>
        </g>
    </g>
</svg>