<svg width="170" height="170" viewBox="0 0 170 170" xmlns="http://www.w3.org/2000/svg">
    <title>
        PBS-help
    </title>
    <path d="M85 0C38.056 0 0 38.056 0 85s38.056 85 85 85 85-38.056 85-85S131.944 0 85 0m8.146 104.182v2.112h-18v-2.112c0-5.587 1.013-12.754 7.499-18.986 6.488-6.233 14.694-11.381 14.694-19.166 0-8.607-5.924-13.387-13.455-13.387-12.549 0-13.321 13.65-13.63 15.65H52.656c.469-13 6.205-32.325 31.384-32.325 21.818 0 31.383 14.728 31.383 28.432 0 21.812-22.277 25.715-22.277 39.782m-8.14 32.446c-6.061 0-10.977-4.916-10.977-10.98 0-6.06 4.916-10.973 10.977-10.973 6.062 0 10.976 4.914 10.976 10.974 0 6.063-4.914 10.979-10.976 10.979" fill-rule="evenodd"/>
</svg>
