<svg width="256" height="256" viewBox="0 0 256 256" xmlns="http://www.w3.org/2000/svg"><title>PBS-passport_logo</title><g transform="translate(42 42)" fill="none" fill-rule="evenodd"><rect fill="#000" width="171.514" height="171.746" rx="15.987"/><path d="M85.649 134.823l-11.346-37.24-36.3-11.627 36.3-11.636L85.65 37.09l11.339 37.23 36.31 11.636-36.31 11.628-11.34 37.24zm16.092-65.378l3.94 1.256 9.457-14.984-14.62 9.702 1.223 4.026zm-32.191 0l1.226-4.026-14.612-9.703L65.628 70.7l3.922-1.256zm32.191 33.015l-1.224 4.033 14.62 9.703-9.46-14.994-3.936 1.258zm-32.191 0l-3.925-1.258-9.461 14.994 14.612-9.698-1.226-4.038zm71.69-16.504c0 31.48-24.894 57.011-55.591 57.011-30.701 0-55.59-25.53-55.59-57.01 0-31.489 24.889-57.013 55.59-57.013 30.698 0 55.59 25.524 55.59 57.012zm-7.942 0c0-26.947-21.372-48.866-47.65-48.866-26.273 0-47.646 21.919-47.646 48.866s21.373 48.867 47.647 48.867c26.277 0 47.649-21.92 47.649-48.867z" fill="#FFF"/></g></svg>