<?xml version="1.0" encoding="UTF-8" standalone="no"?>
<svg width="256px" height="256px" viewBox="0 0 256 256" version="1.1" xmlns="http://www.w3.org/2000/svg" xmlns:xlink="http://www.w3.org/1999/xlink">
    <!-- Generator: Sketch 39.1 (31720) - http://www.bohemiancoding.com/sketch -->
    <title>PBS-rss</title>
    <desc>Created with Sketch.</desc>
    <defs></defs>
    <g id="Page-1" stroke="none" stroke-width="1" fill="none" fill-rule="evenodd">
        <g id="PBS-rss">
            <g id="Group-3" transform="translate(-246.000000, 27.000000)">
                <g id="Page-1" transform="translate(309.000000, 129.000000)" fill="#000000">
                    <path d="M19.9901386,0.206276552 C31.0452294,0.206276552 40,9.08741168 40,20.07539 C40,31.0630562 31.0452294,39.9638523 19.9901386,39.9638523 C8.94819638,39.9638523 0,31.0630562 0,20.07539 C0,9.08741168 8.94819638,0.206276552 19.9901386,0.206276552 L19.9901386,0.206276552 Z" id="Fill-1"></path>
                </g>
                <g id="Group-2" transform="translate(386.000000, 89.500000) rotate(46.000000) translate(-386.000000, -89.500000) translate(289.000000, 62.000000)" fill="#1A1A1A">
                    <g id="Group" transform="translate(0.000000, 0.000000)">
                        <path d="M0.875089116,40.3315472 L14.4333941,54.351149 C60.2511145,8.08646317 134.1205,8.08646317 179.938221,54.351149 L193.964054,40.3315472 C140.665889,-13.4102596 54.1732537,-13.4102596 0.875089116,40.3315472" id="Fill-5"></path>
                    </g>
                </g>
                <path d="M307.219449,75.0063987 L307,94.4381056 C349.121151,93.6316054 382.813262,127.570422 382.012624,170 L400.985229,169.458767 C401.902906,116.665612 359.946692,74.4021797 307.219449,75.0063987" id="Fill-1" fill="#1A1A1A"></path>
            </g>
        </g>
    </g>
</svg>