<svg width="201" height="168" viewBox="0 0 201 168" xmlns="http://www.w3.org/2000/svg">
    <title>
        PBS-component_gallery_promo
    </title>
    <path d="M0 65.997C0 64.894.899 64 1.992 64h41.016c1.1 0 1.992.892 1.992 1.997v36.006A1.999 1.999 0 0 1 43.008 104H1.992C.892 104 0 103.108 0 102.003V65.997zm78 0c0-1.103.899-1.997 1.992-1.997h41.016c1.1 0 1.992.892 1.992 1.997v36.006a1.999 1.999 0 0 1-1.992 1.997H79.992c-1.1 0-1.992-.892-1.992-1.997V65.997zM1 1.99C1 .89 1.892 0 2.996 0h196.008C200.107 0 201 .898 201 1.99v16.02c0 1.1-.892 1.99-1.996 1.99H2.996A1.998 1.998 0 0 1 1 18.01V1.99zm0 148c0-1.1.892-1.991 1.996-1.991h196.008c1.103 0 1.996.898 1.996 1.99v16.019c0 1.1-.892 1.99-1.996 1.99H2.996A1.998 1.998 0 0 1 1 166.01v-16.02zm155-83.994c0-1.103.899-1.997 1.992-1.997h41.016c1.1 0 1.992.892 1.992 1.997v36.006a1.999 1.999 0 0 1-1.992 1.997h-41.016c-1.1 0-1.992-.892-1.992-1.997V65.997z" fill-rule="evenodd"/>
</svg>
