<svg width="207" height="110" viewBox="0 0 207 110" xmlns="http://www.w3.org/2000/svg">
    <title>
        PBS-slideout_nav_close
    </title>
    <path d="M13.23 55.291l16.343-16.343a2.006 2.006 0 0 0 .005-2.834l-4.243-4.243a1.998 1.998 0 0 0-2.833.006L.592 53.787a2.007 2.007 0 0 0-.589 1.474 2.006 2.006 0 0 0 .59 1.535l21.91 21.91a2.005 2.005 0 0 0 2.832.005l4.243-4.243a1.997 1.997 0 0 0-.005-2.833L13.23 55.291zM204.413 90H58.428c-1.107 0-1.86.597-1.86 1.698v16.017c0 1.093.752 2.285 1.86 2.285h145.986c1.107 0 2.153-1.185 2.153-2.285V91.698c0-1.094-1.045-1.698-2.153-1.698zm0-90H58.428c-1.107 0-1.86.597-1.86 1.698v16.017c0 1.093.752 2.285 1.86 2.285h145.986c1.107 0 2.153-1.185 2.153-2.285V1.698c0-1.094-1.045-1.698-2.153-1.698zm0 45H58.428c-1.107 0-1.86.597-1.86 1.698v16.017c0 1.093.752 2.285 1.86 2.285h145.986c1.107 0 2.153-1.185 2.153-2.285V46.698c0-1.094-1.045-1.698-2.153-1.698z" fill-rule="evenodd"/>
</svg>
