<?xml version="1.0" encoding="UTF-8" standalone="no"?>
<svg width="256px" height="256px" viewBox="0 0 256 256" version="1.1" xmlns="http://www.w3.org/2000/svg" xmlns:xlink="http://www.w3.org/1999/xlink">
    <!-- Generator: Sketch 39.1 (31720) - http://www.bohemiancoding.com/sketch -->
    <title>PBS-circle</title>
    <desc>Created with Sketch.</desc>
    <defs></defs>
    <g id="Page-1" stroke="none" stroke-width="1" fill="none" fill-rule="evenodd">
        <g id="PBS-circle" fill="#222222">
            <g id="circle" transform="translate(43.000000, 43.000000)">
                <path d="M169.115125,85 C169.115125,100.339911 165.335637,114.487815 157.776661,127.44371 C150.217685,140.399605 139.96025,150.65704 127.004355,158.216016 C114.04846,165.774992 99.9005565,169.55448 84.5606451,169.55448 C69.2207337,169.55448 55.0728304,165.774992 42.1169352,158.216016 C29.1610401,150.65704 18.9036047,140.399605 11.344629,127.44371 C3.78565338,114.487815 0.00616555925,100.339911 0.00616555925,85 C0.00616555925,69.6600886 3.78565338,55.5121853 11.344629,42.5562901 C18.9036047,29.600395 29.1610401,19.3429596 42.1169352,11.7839839 C55.0728304,4.22500831 69.2207337,0.445520487 84.5606451,0.445520487 C99.9005565,0.445520487 114.04846,4.22500831 127.004355,11.7839839 C139.96025,19.3429596 150.217685,29.600395 157.776661,42.5562901 C165.335637,55.5121853 169.115125,69.6600886 169.115125,85 L169.115125,85 Z" id="Shape"></path>
            </g>
        </g>
    </g>
</svg>