<svg width="256" height="256" viewBox="0 0 256 256" xmlns="http://www.w3.org/2000/svg"><title>PBS-disqus</title><path d="M131.466 212.798c-20.796 0-39.81-7.617-54.511-20.217l-36.18 4.954 13.977-34.578a85.546 85.546 0 0 1-7.602-35.338c0-47.04 37.75-85.18 84.316-85.18 46.563 0 84.309 38.14 84.309 85.18 0 47.049-37.745 85.179-84.309 85.179zm46.038-85.423v-.237c0-24.58-17.294-42.106-47.112-42.106H98.187v85.179h31.728c30.05.001 47.589-18.258 47.589-42.836zm-46.756 21.908h-9.42v-43.318h9.42c13.835 0 23.018 7.906 23.018 21.541v.238c0 13.75-9.183 21.54-23.018 21.54z" fill="#222" fill-rule="evenodd"/></svg>