<svg width="256" height="256" viewBox="0 0 256 256" xmlns="http://www.w3.org/2000/svg"><title>PBS-tumblr</title><path d="M138.44 117.226v38.938c0 9.88-.128 15.574.92 18.372 1.037 2.788 3.645 5.678 6.48 7.348 3.773 2.262 8.072 3.39 12.92 3.39 8.619 0 13.71-1.14 22.235-6.742v25.598c-7.268 3.416-13.61 5.422-19.506 6.806-5.9 1.372-12.28 2.064-19.134 2.064-7.784 0-12.381-.979-18.356-2.937-5.98-1.974-11.083-4.789-15.303-8.402-4.23-3.644-7.15-7.518-8.79-11.61-1.638-4.091-2.447-10.045-2.447-17.83v-59.709H74.606V88.404c6.683-2.17 14.159-5.284 18.92-9.338 4.784-4.065 8.61-8.928 11.494-14.621 2.889-5.678 4.879-12.925 5.964-21.704h27.45v42.566h42.56v31.925h-42.56l.005-.006z" fill="#222" fill-rule="evenodd"/></svg>