<svg width="256" height="256" viewBox="0 0 256 256" xmlns="http://www.w3.org/2000/svg"><title>PBS-power_off</title><g fill="none" fill-rule="evenodd"><path d="M159.515 66.562v18.793c0 .522.266 1.005.703 1.294 15.968 10.557 26.469 28.706 26.24 49.25-.347 31.193-25.729 56.849-57.012 57.606-32.894.796-59.909-25.648-59.909-58.264 0-20.273 10.447-38.149 26.246-48.592a1.55 1.55 0 0 0 .702-1.293V66.562c0-1.153-1.212-1.904-2.253-1.404-26.91 12.939-45.283 40.831-44.185 72.796 1.39 40.499 34.249 73.416 74.866 74.986 44.41 1.717 81.087-33.8 81.087-77.7 0-30.824-18.087-57.513-44.235-70.083-1.04-.5-2.25.253-2.25 1.405" fill="#221F20"/><path d="M136 106.198h-16c-1.105 0-2-.719-2-1.605V43.605c0-.887.895-1.605 2-1.605h16c1.105 0 2 .718 2 1.605v60.988c0 .886-.895 1.605-2 1.605" fill="#222"/></g></svg>