<?xml version="1.0" encoding="UTF-8" standalone="no"?>
<svg width="256px" height="256px" viewBox="0 0 256 256" version="1.1" xmlns="http://www.w3.org/2000/svg" xmlns:xlink="http://www.w3.org/1999/xlink">
    <!-- Generator: Sketch 39.1 (31720) - http://www.bohemiancoding.com/sketch -->
    <title>PBS-reply_mail</title>
    <desc>Created with Sketch.</desc>
    <defs></defs>
    <g id="Page-1" stroke="none" stroke-width="1" fill="none" fill-rule="evenodd">
        <g id="PBS-reply_mail" fill="#222222">
            <g id="Group" transform="translate(104.000000, 95.000000)">
                <path d="M93.6976898,84.5247543 C94.7807637,72.1700127 93.4089912,58.0633005 87.5569754,44.3890864 C75.1115343,15.3082307 47.3379036,-1.29776197 0.257023007,0.829214014 L0.159643659,20.8088355 C21.474304,19.8459017 37.6463301,23.1774755 49.3726051,29.9450064 C58.7785111,35.3733935 65.1790666,42.932474 69.1700063,52.2579725 C73.5261507,62.4368326 74.5943387,76.4216143 73.7741006,85.7781602 C73.6955113,86.6746364 73.7741006,85.7781602 73.7741006,85.7781602 C73.6737999,86.7020392 74.4928193,87.4554575 75.595785,87.4609291 L91.3477957,87.5390709 C92.4541849,87.5445595 93.4732827,86.6706797 93.5987041,85.5655461 C93.5987041,85.5655461 93.5782005,85.8877823 93.6976898,84.5247543 Z" id="Path-5"></path>
            </g>
            <path d="M85.6698171,85.8825821 L111.747142,125.250544 C112.354105,126.166853 111.945591,126.909668 110.84047,126.909668 L58.9606337,126.909668 C57.8529296,126.909668 57.449853,126.162544 58.0539613,125.250544 L84.1312866,85.8825821 C84.5561401,85.2411967 85.2438053,85.239448 85.6698171,85.8825821 Z" id="Triangle-2" transform="translate(84.900922, 106.155278) rotate(-90.000000) translate(-84.900922, -106.155278) "></path>
        </g>
    </g>
</svg>