<svg width="256" height="256" viewBox="0 0 256 256" xmlns="http://www.w3.org/2000/svg"><title>PBS-pause_circle</title><g fill="none" fill-rule="evenodd"><path d="M129 213c46.835 0 85-38.165 85-85s-38.165-85-85-85-85 38.165-85 85 38.165 85 85 85zM100.552 92.613h22.206v70.774h-22.206V92.613zm35.386 0h22.206v70.774h-22.206V92.613z" fill="#444"/><path d="M212.115 128c0 15.34-3.78 29.488-11.338 42.444-7.56 12.956-17.817 23.213-30.773 30.772-12.956 7.559-27.103 11.338-42.443 11.338-15.34 0-29.488-3.779-42.444-11.338-12.956-7.559-23.213-17.816-30.772-30.772-7.56-12.956-11.339-27.104-11.339-42.444 0-15.34 3.78-29.488 11.339-42.444C61.904 72.6 72.16 62.343 85.117 54.784c12.956-7.559 27.104-11.338 42.444-11.338 15.34 0 29.487 3.779 42.443 11.338 12.956 7.559 23.214 17.816 30.773 30.772 7.559 12.956 11.338 27.104 11.338 42.444z" fill="#222"/><rect fill="#FFF" x="97" y="78" width="21" height="100" rx="2"/><rect fill="#FFF" x="138" y="78" width="21" height="100" rx="2"/></g></svg>