<?xml version="1.0" encoding="UTF-8" standalone="no"?>
<svg width="256px" height="256px" viewBox="0 0 256 256" version="1.1" xmlns="http://www.w3.org/2000/svg" xmlns:xlink="http://www.w3.org/1999/xlink">
    <!-- Generator: Sketch 39.1 (31720) - http://www.bohemiancoding.com/sketch -->
    <title>PBS-logo</title>
    <desc>Created with Sketch.</desc>
    <defs>
        <polyline id="path-1" points="0 0.12599551 172.231173 0.12599551 172.231173 172.354765 0 172.354765"></polyline>
    </defs>
    <g id="Page-1" stroke="none" stroke-width="1" fill="none" fill-rule="evenodd">
        <g id="PBS-logo">
            <g id="p-head" transform="translate(40.824571, 41.824571)">
                <g transform="translate(-0.000000, -0.000000)" id="Page-1">
                    <g>
                        <g id="Icons_pg3">
                            <g id="p-head">
                                <g id="Group-3">
                                    <g id="Fill-1-Clipped">
                                        <mask id="mask-2" fill="white">
                                            <use xlink:href="#path-1"></use>
                                        </mask>
                                        <g id="path-1"></g>
                                        <path d="M172.231413,86.2406207 C172.231413,133.801985 133.676591,172.354404 86.1140243,172.354404 C38.5550635,172.354404 0.000240366728,133.801985 0.000240366728,86.2406207 C0.000240366728,38.68166 38.5550635,0.126836794 86.1140243,0.126836794 C133.676591,0.126836794 172.231413,38.68166 172.231413,86.2406207" id="Fill-1" fill="#000000" mask="url(#mask-2)"></path>
                                    </g>
                                </g>
                                <path d="M124.026587,38.2822906 L109.966336,38.2822906 L131.33614,86.8712228 L121.598884,86.8712228 L121.598884,99.7560813 C121.625324,107.575211 118.359942,110.911501 107.742944,110.774492 L107.742944,135.650045 L121.6746,135.650045 L121.6746,110.774492 L126.237961,110.774492 C130.284536,110.882657 135.761292,107.596844 135.833402,101.211502 L135.833402,86.8712228 L145.312264,86.8712228 L124.026587,38.2822906 L124.026587,38.2822906 Z M88.0629177,79.9991381 C83.3529317,79.9991381 79.5371099,76.1821145 79.5371099,71.4745321 C79.5371099,66.7681516 83.3529317,62.9523298 88.0629177,62.9523298 C92.7692983,62.9523298 96.5863219,66.7681516 96.5863219,71.4745321 C96.5863219,76.1821145 92.7692983,79.9991381 88.0629177,79.9991381 L88.0629177,79.9991381 L88.0629177,79.9991381 Z M94.8821218,38.2822906 L68.837185,38.2822906 C47.4697848,38.2822906 29.8941695,53.2042571 29.8941695,75.332418 C29.8941695,93.9392065 41.0928554,107.227881 57.8163705,109.766154 L57.8163705,135.650045 L92.619069,135.650045 L92.619069,110.774492 L97.4504403,110.774492 C103.083435,110.22285 106.91488,106.488753 106.971366,101.258373 L106.971366,86.8712228 L116.45143,86.8712228 L94.8821218,38.2822906 L94.8821218,38.2822906 Z" id="Fill-4" fill="#FFFFFF"></path>
                            </g>
                        </g>
                    </g>
                </g>
            </g>
        </g>
    </g>
</svg>