<?xml version="1.0" encoding="UTF-8" standalone="no"?>
<svg width="256px" height="256px" viewBox="0 0 256 256" version="1.1" xmlns="http://www.w3.org/2000/svg" xmlns:xlink="http://www.w3.org/1999/xlink">
    <!-- Generator: Sketch 39.1 (31720) - http://www.bohemiancoding.com/sketch -->
    <title>PBS-component_embed</title>
    <desc>Created with Sketch.</desc>
    <defs></defs>
    <g id="Page-1" stroke="none" stroke-width="1" fill="none" fill-rule="evenodd">
        <g id="PBS-component_embed" fill="#222222">
            <g id="Group" transform="translate(14.000000, 70.000000)">
                <path d="M32.002071,79.335388 L32.002071,19.2778488 C32.002071,18.1794675 31.1067842,17.2807323 30.002392,17.2807323 L18.2128186,17.2807323 C17.1072594,17.2807323 16.2131395,18.1748718 16.2131395,19.2778488 L16.2131395,92.9194539 C16.2131395,94.0178352 17.1084264,94.9165704 18.2128186,94.9165704 L18.3715863,94.9165704 C18.6390174,95.049569 18.9404736,95.1243195 19.259389,95.1243195 L92.9009941,95.1243195 C93.9993754,95.1243195 94.8981106,94.2290327 94.8981106,93.1246404 L94.8981106,81.3350671 C94.8981106,80.2295079 94.0039711,79.335388 92.9009941,79.335388 L32.002071,79.335388 Z" id="Combined-Shape" transform="translate(55.555625, 56.202526) rotate(-315.000000) translate(-55.555625, -56.202526) "></path>
            </g>
            <g id="Group" transform="translate(129.000000, 71.000000)">
                <path d="M32.6994758,78.9513687 L32.6994758,18.319272 C32.6994758,17.2169689 31.8031433,16.3235294 30.697461,16.3235294 L18.7667207,16.3235294 C17.6670846,16.3235294 16.7647059,17.2170538 16.7647059,18.319272 L16.7647059,92.680728 C16.7647059,93.7830311 17.6610384,94.6764706 18.7667207,94.6764706 L18.9313016,94.6764706 C19.1987422,94.8105511 19.5002665,94.8861386 19.819272,94.8861386 L94.180728,94.8861386 C95.2830311,94.8861386 96.1764706,93.9898061 96.1764706,92.8841238 L96.1764706,80.9533835 C96.1764706,79.8537473 95.2829462,78.9513687 94.180728,78.9513687 L32.6994758,78.9513687 Z" id="Combined-Shape" transform="translate(57.000000, 55.500000) scale(-1, 1) rotate(-315.000000) translate(-57.000000, -55.500000) "></path>
            </g>
            <path d="M120.029999,66.4139728 C120.029999,65.3071187 120.923396,64.409836 122.021883,64.409836 L133.038115,64.409836 C134.138202,64.409836 135.029999,65.3101681 135.029999,66.4139728 L135.029999,189.995863 C135.029999,191.102717 134.136601,192 133.038115,192 L122.021883,192 C120.921796,192 120.029999,191.099668 120.029999,189.995863 L120.029999,66.4139728 Z" id="Rectangle-5-Copy" transform="translate(127.529999, 128.204918) rotate(-335.000000) translate(-127.529999, -128.204918) "></path>
        </g>
    </g>
</svg>