<svg width="256" height="256" viewBox="0 0 256 256" xmlns="http://www.w3.org/2000/svg"><title>PBS-component_form</title><g fill="#222" fill-rule="evenodd"><path d="M48 115v78h156v-72.007c0-1.1.898-1.993 1.99-1.993h16.02a2 2 0 0 1 1.99 1.993v90.414a1.997 1.997 0 0 1-1.99 1.993h-16.02c-.446 0-.859-.15-1.191-.4H30.004A2.003 2.003 0 0 1 28 211.001V97A1.995 1.995 0 0 1 30.007 95h87.986c1.108 0 2.007.898 2.007 1.99v16.02c0 1.099-.896 1.99-2.007 1.99H48z"/><path d="M191.64 63.987l18.537 15.554-54.057 64.424-18.537-15.554 54.058-64.424zm-61.7 73.531l18.537 15.555-19.08 7.601c-2.566 1.022-4.19-.346-3.63-3.045l4.174-20.11zm77.774-92.686a2.996 2.996 0 0 1 4.224-.38L225.89 56.16a2.993 2.993 0 0 1 .36 4.226l-10.011 11.93-18.537-15.554 10.011-11.93z"/></g></svg>