<svg width="207" height="167" viewBox="0 0 207 167" xmlns="http://www.w3.org/2000/svg">
    <title>
        PBS-component_add_dropdown
    </title>
    <path d="M31.96 89H14.859C13.748 89 13 89.597 13 90.697v16.018c0 1.093.752 2.285 1.859 2.285H31.96c1.112 0 2.04-1.185 2.04-2.285V90.697C34 89.604 33.067 89 31.96 89zm0 44H14.859c-1.111 0-1.859.597-1.859 1.697v16.018c0 1.093.752 2.285 1.859 2.285H31.96c1.112 0 2.04-1.185 2.04-2.285v-16.018c0-1.093-.933-1.697-2.04-1.697zM200 17.715V1.697C200 .604 198.961 0 197.858 0H1.85C.746 0 0 .597 0 1.697v16.018C0 18.808.748 20 1.85 20h196.008c1.104 0 2.142-1.185 2.142-2.285zM61.858 42C60.752 42 60 42.597 60 43.697v16.018c0 1.093.75 2.285 1.858 2.285h92.992c1.106 0 2.15-1.185 2.15-2.285V43.697c0-1.093-1.043-1.697-2.15-1.697H61.858zM31.96 42H14.859C13.748 42 13 42.597 13 43.697v16.018c0 1.093.752 2.285 1.859 2.285H31.96c1.112 0 2.04-1.185 2.04-2.285V43.697C34 42.604 33.067 42 31.96 42zm128.894 34.853C148.777 76.853 137.787 81 129.58 89H61.848C60.74 89 60 89.597 60 90.697v16.018c0 1.093.747 2.285 1.848 2.285h54.955c-1.268 4-1.949 8.48-1.949 13 0 3.795.48 7 1.384 11h-54.39c-1.108 0-1.848.597-1.848 1.697v16.018c0 1.093.747 2.285 1.848 2.285h65.662c8.381 8 20.221 13.853 33.344 13.853 25.405 0 46-20.147 46-45s-20.595-45-46-45zM186 123.706c0 1.105-1.041 2.294-2.147 2.294H167v16.705c0 1.105-1.033 2.295-2.146 2.295h-6c-1.105 0-1.854-1.189-1.854-2.295V126h-17.145c-1.105 0-1.855-1.18-1.855-2.294v-6c0-1.105.749-1.706 1.855-1.706H157V98.707c0-1.105.741-1.707 1.854-1.707h6c1.105 0 2.146.601 2.146 1.707V116h16.853c1.105 0 2.147.593 2.147 1.706v6z" fill-rule="evenodd"/>
</svg>
