<svg width="182" height="183" viewBox="0 0 182 183" xmlns="http://www.w3.org/2000/svg">
    <title>
        PBS-passport_logo
    </title>
    <g fill="none" fill-rule="evenodd">
        <path d="M20 1h141.174c11.046 0 20 8.954 20 20v141.173c0 11.046-8.954 20-20 20H20c-11.046 0-20-8.954-20-20V21C0 9.954 8.954 1 20 1" fill="#000"/>
        <path d="M90.584 145.908l12.281-41.793 41.793-12.28c-.134 29.758-24.314 53.94-54.074 54.073M36.015 91.834l41.794 12.281 12.28 41.793c-29.76-.134-53.94-24.315-54.074-54.074M90.09 37.265L77.81 79.058 36.015 91.34C36.15 61.58 60.33 37.4 90.09 37.265m54.57 54.074l-41.794-12.28-12.28-41.794c29.76.134 53.94 24.314 54.073 54.074m-54.32-64.08c-35.472 0-64.329 28.857-64.329 64.328 0 35.47 28.857 64.327 64.328 64.327 35.47 0 64.327-28.857 64.327-64.327S125.807 27.26 90.337 27.26" fill="#FFF"/>
        <path fill="#FFF" d="M114.603 75.212l9.482-17.374-17.374 9.482 1.792 6.1zm-6.099 34.542l-1.792 6.1 17.374 9.482-9.482-17.374zm-42.434-1.792l-9.481 17.374 17.374-9.482-1.792-6.1zm6.1-34.542l1.792-6.1-17.374-9.482 9.483 17.374z"/>
    </g>
</svg>
