<svg width="256" height="256" viewBox="0 0 256 256" xmlns="http://www.w3.org/2000/svg"><title>PBS-copyright</title><g fill="none" fill-rule="evenodd"><path d="M128.275 58.88c38.265 0 69.396 31.13 69.396 69.395s-31.131 69.396-69.396 69.396-69.396-31.131-69.396-69.396 31.131-69.396 69.396-69.396zm0-13.88C82.286 45 45 82.286 45 128.275c0 45.988 37.286 83.275 83.275 83.275 45.988 0 83.275-37.287 83.275-83.275C211.55 82.286 174.263 45 128.275 45zm-26.239 83.275c0-14.47 11.77-26.239 26.239-26.239 7.323 0 14.433 2.943 19.98 9.335.614.706 0 0 0 0 .985 1.241 3.018 1.437 4.579.413l7.294-4.784c1.544-1.013 1.913-3.033.838-4.438 0 0 .672.833 0 0-8.763-10.872-20.703-15.925-32.691-15.925-22.956 0-41.638 18.682-41.638 41.638s18.675 41.637 41.638 41.637c12.058 0 23.892-5.087 32.573-15.77.717-.881.07-.085.07-.085 1.111-1.477.777-3.484-.783-4.507l-7.294-4.785c-1.545-1.013-3.72-.637-4.405.208 0 0 .552-.646 0 0-5.559 6.503-12.725 9.54-20.161 9.54-14.462 0-26.239-11.77-26.239-26.238z" fill="#000"/><circle stroke="#222" stroke-width="20" cx="127" cy="128" r="76"/></g></svg>