<svg width="226" height="121" viewBox="0 0 226 121" xmlns="http://www.w3.org/2000/svg">
    <title>
        PBS-component_embed
    </title>
    <path d="M204.576 58.027l-42.874-42.874a2 2 0 0 1 .005-2.827l8.436-8.436a2.002 2.002 0 0 1 2.827-.004l52.58 52.58a2 2 0 0 1-.003 2.828l-.116.116a1.975 1.975 0 0 1-.48.776l-52.582 52.582a1.999 1.999 0 0 1-2.826-.004l-8.437-8.437a2.004 2.004 0 0 1-.004-2.827l43.474-43.473zm-183.223.005L63.82 15.565a2 2 0 0 0-.001-2.826l-8.337-8.337a1.999 1.999 0 0 0-2.826-.002L.584 56.473a2 2 0 0 0 0 2.826l.114.112c.095.284.255.55.48.775l52.073 52.073a2.002 2.002 0 0 0 2.826-.002l8.337-8.337a1.998 1.998 0 0 0 0-2.826l-43.06-43.062zM131.657 1.16a1.999 1.999 0 0 1 2.652-.975l9.984 4.656a2 2 0 0 1 .958 2.658L93.023 119.503a1.999 1.999 0 0 1-2.652.975l-9.984-4.656a2 2 0 0 1-.958-2.658L131.657 1.16z" fill-rule="evenodd"/>
</svg>
