<svg width="256" height="256" viewBox="0 0 256 256" xmlns="http://www.w3.org/2000/svg"><title>PBS-calendar</title><g fill="#222" fill-rule="evenodd"><path d="M180.942 183.478h-27.834v-27.575h27.834v27.575zm-38.75-68.938h-27.834v27.575h27.834V114.54zm38.75 0h-27.834v27.575h27.834V114.54zm-77.5 41.363H75.608v27.575h27.834v-27.575zm38.75 0h-27.834v27.575h27.834v-27.575zm-38.75-41.363H75.608v27.575h27.834V114.54zm104.997 99.486H48.111c-1.843 0-3.336-1.47-3.336-3.242V68.658c0-1.79 1.501-3.242 3.354-3.242h15.919c1.109 0 2.008.893 2.008 2.001v14.19h36.995v-14.19c0-1.105.886-2.001 1.996-2.001h46.81a2.03 2.03 0 0 1 2.022 2.001l.188 14.19H190.9v-14.19c0-1.105.898-2.001 1.992-2.001h15.529c1.852 0 3.354 1.47 3.354 3.242v142.126c0 1.79-1.495 3.242-3.336 3.242zM64.775 99.236v94.975h127V99.236h-127z"/><rect x="74" y="42" width="20" height="31" rx="2"/><rect x="163" y="42" width="20" height="31" rx="2"/></g></svg>