<svg width="172" height="172" viewBox="0 0 172 172" xmlns="http://www.w3.org/2000/svg">
    <title>
        PBS-copyright
    </title>
    <g fill-rule="evenodd">
        <path d="M107.356 69.486c.04.048.086.1.12.138l-.12-.138m-.1-.115c.044.05.068.08.1.115l-.1-.115m.232.268c.042.048.05.058 0 0m.107 33.149c.143-.167.083-.098 0 0"/>
        <path d="M111.834 69.784L119.127 65c1.546-1.013 1.915-3.033.839-4.438-8.762-10.872-20.703-15.925-32.691-15.925-22.957 0-41.638 18.682-41.638 41.638s18.674 41.637 41.638 41.637c12.058 0 23.891-5.087 32.573-15.77l.31-.38-.24.295c1.111-1.477.777-3.484-.784-4.507l-7.293-4.785c-1.544-1.013-3.72-.637-4.404.208-5.56 6.503-12.727 9.54-20.162 9.54-14.463 0-26.239-11.769-26.239-26.238s11.77-26.239 26.239-26.239c7.323 0 14.432 2.943 19.98 9.335.985 1.241 3.017 1.437 4.579.413"/>
        <path d="M86 152c-36.451 0-66-29.549-66-66s29.549-66 66-66 66 29.549 66 66-29.549 66-66 66M86 0C38.503 0 0 38.504 0 86s38.503 86 86 86 86-38.504 86-86S133.497 0 86 0"/>
    </g>
</svg>
