<?xml version="1.0" encoding="UTF-8" standalone="no"?>
<svg width="256px" height="256px" viewBox="0 0 256 256" version="1.1" xmlns="http://www.w3.org/2000/svg" xmlns:xlink="http://www.w3.org/1999/xlink">
    <!-- Generator: Sketch 39.1 (31720) - http://www.bohemiancoding.com/sketch -->
    <title>PBS-copyright</title>
    <desc>Created with Sketch.</desc>
    <defs></defs>
    <g id="Page-1" stroke="none" stroke-width="1" fill="none" fill-rule="evenodd">
        <g id="PBS-copyright">
            <g id="copyright" transform="translate(45.000000, 45.000000)" fill="#000000">
                <g id="Icons">
                    <g>
                        <g id="copyright">
                            <path d="M83.2748571,13.8791429 C121.539654,13.8791429 152.670571,45.0100602 152.670571,83.2748571 C152.670571,121.539654 121.539654,152.670571 83.2748571,152.670571 C45.0100602,152.670571 13.8791429,121.539654 13.8791429,83.2748571 C13.8791429,45.0100602 45.0100602,13.8791429 83.2748571,13.8791429 L83.2748571,13.8791429 L83.2748571,13.8791429 Z M83.2748571,0 C37.2863172,0 0,37.2863172 0,83.2748571 C0,129.263397 37.2863172,166.549714 83.2748571,166.549714 C129.263397,166.549714 166.549714,129.263397 166.549714,83.2748571 C166.549714,37.2863172 129.263397,0 83.2748571,0 L83.2748571,0 L83.2748571,0 Z M57.0363376,83.2748571 C57.0363376,68.8058506 68.8058506,57.0363376 83.2748571,57.0363376 C90.5981309,57.0363376 97.7076056,59.978891 103.255717,66.3706007 C103.8693,67.07748 103.255717,66.3706007 103.255717,66.3706007 C104.239687,67.6120716 106.272992,67.8080307 107.833593,66.7844378 L115.127897,62.0001287 C116.672218,60.987214 117.041255,58.9671884 115.965529,57.5615478 C115.965529,57.5615478 116.637563,58.3953786 115.965529,57.5615478 C107.203275,46.6897211 95.2630105,41.6374285 83.2748571,41.6374285 C60.3187547,41.6374285 41.6374285,60.3187547 41.6374285,83.2748571 C41.6374285,106.230959 60.3118152,124.912286 83.2748571,124.912286 C95.3333128,124.912286 107.16673,119.825232 115.848281,109.142349 C116.564549,108.260962 115.917275,109.056889 115.917275,109.056889 C117.029467,107.580489 116.695438,105.573178 115.134836,104.549585 L107.840533,99.7652764 C106.296212,98.7523616 104.120893,99.1279096 103.436152,99.9727227 C103.436152,99.9727227 103.988499,99.3265794 103.436152,99.9727227 C97.8769713,106.475919 90.7108484,109.513376 83.2748571,109.513376 C68.8127901,109.513376 57.0363376,97.7438635 57.0363376,83.2748571 L57.0363376,83.2748571 Z" id="Shape"></path>
                        </g>
                    </g>
                </g>
            </g>
            <circle id="Oval-5" stroke="#222222" stroke-width="20" cx="127" cy="128" r="76"></circle>
        </g>
    </g>
</svg>