<svg width="256" height="256" viewBox="0 0 256 256" xmlns="http://www.w3.org/2000/svg"><title>PBS-component_audio</title><path d="M201.193 200.434c16.784-21.038 25.207-45.06 25.207-71.951 0-27.246-8.544-51.448-25.607-72.533l-.995-1.337c-.658-.882-2.576-.53-2.77-.38l-14.51 11.184c-.912.703-.493 2.598-.278 2.844l1.223 1.398c14.004 17.193 21.015 36.795 21.015 58.824 0 21.57-5.271 40.5-18.864 57.632l-1.163 1.326c-1.574 1.06-1.482 3.036-.35 3.962l12.393 9.652c1.34 1.33 3.459 1.032 3.65.777l1.049-1.398zm-36.584-127.72c-.665-.809-2.57-.416-2.709-.31l1.504-1.155-4.608 3.541-5.844 4.492-4.718 3.625 1.614-1.24c-.892.685-.517 2.562-.314 2.807 10.538 12.698 15.794 27.226 15.794 43.659 0 15.644-4.86 29.664-14.612 42.13-.652.834.163 2.612.3 2.724l-1.48-1.215 4.495 3.69 5.678 4.661 4.553 3.738-1.538-1.262c.85.697 2.626-.103 2.778-.293 12.628-15.838 18.951-33.917 18.951-54.173 0-20.842-6.623-39.34-19.844-55.419zm-34.676-12.296c1.81-1.207 3.279-.418 3.279 1.699v132.032c0 2.146-1.457 2.914-3.28 1.699L84.067 165.27c-1.812-1.208-5.024-2.186-7.22-2.186H32.3a3.921 3.921 0 0 1-3.94-3.959V97.141a3.937 3.937 0 0 1 3.94-3.959h44.545c2.176 0 5.397-.97 7.22-2.186l45.867-30.578z" fill="#000" fill-rule="evenodd"/></svg>