<svg width="256" height="256" viewBox="0 0 256 256" xmlns="http://www.w3.org/2000/svg"><title>PBS-component_space</title><g fill="#222" fill-rule="evenodd"><rect x="29" y="65" width="200" height="20" rx="2"/><rect x="29" y="173" width="200" height="20" rx="2"/><path d="M129.144 98.451l17.577 19.735c.735.824.426 1.492-.679 1.492h-34.866c-1.11 0-1.412-.67-.68-1.492l17.578-19.735a.7.7 0 0 1 1.07 0zM129.258 159.539l18.058-20.274c.469-.527.276-.953-.434-.953h-36.318c-.709 0-.905.424-.434.953l18.058 20.274a.7.7 0 0 0 1.07 0"/></g></svg>