<?xml version="1.0" encoding="UTF-8" standalone="no"?>
<svg width="256px" height="256px" viewBox="0 0 256 256" version="1.1" xmlns="http://www.w3.org/2000/svg" xmlns:xlink="http://www.w3.org/1999/xlink">
    <!-- Generator: Sketch 39.1 (31720) - http://www.bohemiancoding.com/sketch -->
    <title>PBS-duplicate</title>
    <desc>Created with Sketch.</desc>
    <defs></defs>
    <g id="Page-1" stroke="none" stroke-width="1" fill="none" fill-rule="evenodd">
        <g id="PBS-duplicate" fill="#222222">
            <g id="Group" transform="translate(78.000000, 78.000000)">
                <path d="M130.990476,0 C132.100306,0 133,0.902312717 133,2.0095237 L133,130.990476 C133,132.100306 132.097687,133 130.990476,133 L2.0095237,133 C0.899694405,133 0,132.097687 0,130.990476 L0,2.0095237 C0,0.899694405 0.902312717,0 2.0095237,0 L130.990476,0 Z M113,20 L113,113 L20,113 L20,20 L113,20 Z" id="Combined-Shape"></path>
                <rect id="Rectangle" x="61" y="43" width="10" height="48" rx="2"></rect>
                <rect id="Rectangle" transform="translate(66.000000, 67.000000) rotate(-270.000000) translate(-66.000000, -67.000000) " x="61" y="43" width="10" height="48" rx="2"></rect>
            </g>
            <g id="Group" transform="translate(115.263456, 117.263456) rotate(-315.000000) translate(-115.263456, -117.263456) translate(9.263456, 11.263456)">
                <path d="M50.5961641,159.987186 L50.5961641,33.8511095 C50.5961641,32.745647 49.7048547,31.8579006 48.6053689,31.8579006 L32.5869592,31.8579006 C31.4943765,31.8579006 30.5961641,32.7502906 30.5961641,33.8511095 L30.5961641,168.371333 L30.5961641,177.996391 C30.5961641,179.088973 31.4881554,179.987186 32.5884825,179.987186 L179.603846,179.987186 C180.709398,179.987186 181.596164,179.095876 181.596164,177.996391 L181.596164,161.977981 C181.596164,160.885398 180.704173,159.987186 179.603846,159.987186 L50.5961641,159.987186 Z" id="Combined-Shape" transform="translate(106.096164, 105.922543) rotate(-315.000000) translate(-106.096164, -105.922543) "></path>
            </g>
        </g>
    </g>
</svg>