<svg width="256" height="256" viewBox="0 0 256 256" xmlns="http://www.w3.org/2000/svg"><title>PBS-facebook_box</title><path d="M192.94 42.457c5.823 0 10.865 1.944 15.137 6.21 4.272 3.88 6.21 8.928 6.21 14.746V191.87c0 5.824-1.944 10.866-6.21 15.138s-9.314 6.21-15.138 6.21h-32.213V151.9h22.508v-26.78h-22.508V111.15c0-3.88 1.943-5.824 5.433-5.824h17.075v-30.27h-19.019c-9.705 0-17.851 3.496-24.452 10.866-6.6 6.985-10.09 15.914-10.09 26.004v13.195h-20.57v26.78h20.57v61.316H64.861c-5.824 0-10.866-1.943-15.138-6.209s-6.209-9.314-6.209-15.138V63.413c0-5.824 1.944-10.866 6.21-14.746 4.271-4.272 9.313-6.21 15.137-6.21H192.94z" fill="#222" fill-rule="evenodd"/></svg>