<svg width="256" height="256" viewBox="0 0 256 256" xmlns="http://www.w3.org/2000/svg"><title>PBS-history_emptyset</title><g fill="#222" fill-rule="evenodd"><path d="M61.252 107.387l38.594-16.764c1.017-.442 1.096-1.285.17-1.886L61.368 63.638c-.923-.6-1.664-.185-1.654.923l.383 42.076c.006.689.522 1.026 1.155.75z"/><path d="M129.37 213.563c20.951 0 41.944-7.65 58.382-23.093 16.608-15.6 26.146-36.735 26.858-59.51.71-22.774-7.489-44.463-23.09-61.07-32.012-34.078-76.577-25.738-81.677-24.645-3.756.611-24.348 4.825-38.895 25.292-.648.91-.433 2.176.5 2.795l13.092 8.71c.87.578 2.049.375 2.663-.47C97.81 66.95 112.745 64.66 112.898 64.64l.495-.064.488-.113c1.504-.338 37.924-8.168 63.325 18.871 12.01 12.784 18.322 29.48 17.773 47.012-.546 17.532-7.89 33.8-20.673 45.81-25.919 24.348-66.547 23.527-91.479-1.511-.756-.76-1.972-.8-2.753-.066L68.62 185.34c-.797.75-.838 2.017-.07 2.798 16.617 16.893 38.695 25.424 60.82 25.424"/><path d="M134.404 129.084V87.956c0-1.103-.897-2-2.004-2h-9.983a2.001 2.001 0 0 0-2.005 2v53.121c0 .55.224 1.05.586 1.412.364.364.864.588 1.416.588h47.473a2.002 2.002 0 0 0 2.002-2.005v-9.983a2.003 2.003 0 0 0-2.002-2.005h-35.483z"/></g></svg>