<svg width="256" height="256" viewBox="0 0 256 256" xmlns="http://www.w3.org/2000/svg"><title>PBS-notification_line</title><g fill="none" fill-rule="evenodd"><path d="M127.5 43c-5.593 0-10.63 2.087-14.57 6.037-2.086 2.093-3.651 4.494-4.662 7.125-7.299 2.277-13.496 5.973-18.502 11.045-7.636 7.738-11.508 17.965-11.508 30.397 0 12.517-2.335 24.57-6.94 35.828-4.518 11.047-10.995 20.053-19.802 27.536L47 164.806v5.936c0 6.248 2.363 11.92 6.835 16.404C58.306 191.63 63.964 194 70.195 194h114.611c6.238 0 11.897-2.373 16.366-6.86 4.465-4.477 6.828-10.15 6.828-16.398v-5.935l-4.515-3.838c-8.806-7.484-15.285-16.492-19.805-27.538-4.603-11.257-6.938-23.312-6.938-35.827 0-12.432-3.871-22.658-11.506-30.396-5.01-5.074-11.207-8.77-18.505-11.047-1.012-2.632-2.578-5.034-4.666-7.126C138.133 45.089 133.095 43 127.5 43m5.535 15.096c2.279 1.766 2.279 8.571 2.279 8.571 9.117 1.088 15.63 4.272 20.841 9.55 5.208 5.28 7.812 12.408 7.812 21.387 0 14.258 2.631 27.821 7.894 40.69 5.267 12.87 13.055 23.686 23.364 32.448 0 2.83-1.03 5.278-3.093 7.346-2.06 2.069-4.504 3.101-7.326 3.101H70.195c-2.823 0-5.265-1.033-7.327-3.101-2.061-2.068-3.093-4.517-3.093-7.346 10.31-8.762 18.098-19.578 23.362-32.448 5.265-12.869 7.896-26.432 7.896-40.69 0-8.979 2.605-16.107 7.814-21.386 5.21-5.279 11.721-8.462 20.838-9.55 0 0 0-6.938 2.28-8.572 2.279-1.634 3.365-2.285 5.535-2.285s3.256.519 5.535 2.285z" fill="#000"/><path d="M150 185c0 12.702-10.074 23-22.5 23S105 197.702 105 185" stroke="#000" stroke-width="13"/></g></svg>