<svg width="208" height="172" viewBox="0 0 208 172" xmlns="http://www.w3.org/2000/svg">
    <title>
        PBS-component_whats_on
    </title>
    <path d="M188 26.168v86.616c0 1.11-1.038 2.216-2.139 2.216H21.847c-1.089 0-1.847-1.112-1.847-2.216V22.628c0-1.11.746-1.628 1.847-1.628h164.014c1.089 0 2.139.525 2.139 1.629v3.539zM205.857 0H1.851C.748 0 0 .593 0 1.705v132.002C0 134.813.755 136 1.851 136H95v16H57.854c-1.114 0-1.854.598-1.854 1.697v16.019c0 1.092.75 2.284 1.854 2.284h95c1.114 0 2.146-1.185 2.146-2.284v-16.02c0-1.091-1.042-1.696-2.146-1.696H115v-16h90.857c1.103 0 2.143-1.18 2.143-2.292V1.705C208 .6 206.953 0 205.857 0zm-101.51 87.749a7.89 7.89 0 1 0 7.892 7.889 7.89 7.89 0 0 0-7.891-7.89zm-.694-56.283C85.553 31.465 81.43 45 81.093 55h12.65c.222-2 .812-11.55 9.833-11.55 5.414 0 9.708 3.207 9.708 9.395 0 5.597-5.6 9.264-10.263 13.745C98.358 71.07 98 76.19 98 80.206V82h13v-1.794c0-10.112 15.614-12.77 15.614-28.45 0-9.852-7.276-20.29-22.961-20.29z" fill-rule="evenodd"/>
</svg>
