<svg width="256" height="256" viewBox="0 0 256 256" xmlns="http://www.w3.org/2000/svg"><title>PBS-tv_schedule</title><g fill="#222" fill-rule="evenodd"><path d="M159.275 143.615v-16h16v16zM148.608 143.615h-16v-16h16v16zM121.942 143.615h-16v-16h16v16zM95.275 143.615h-16v-16h16v16zM175.275 117.949h-16v-16h16v16zM148.608 117.949h-16v-16h16v16zM121.942 117.949h-16v-16h16v16zM95.275 117.949h-16v-16h16v16zM79.275 91.282v-15h96v15z"/><g><path d="M25.997 42A1.993 1.993 0 0 0 24 43.998v132.004c0 1.103.901 1.998 1.997 1.998H230.003a1.993 1.993 0 0 0 1.997-1.998V43.998A2.002 2.002 0 0 0 230.003 42H25.997zm19.996 20.923c-1.1 0-1.993.89-1.993 2v90.155c0 1.104.904 1.999 1.993 1.999H210.007c1.1 0 1.993-.89 1.993-2V64.922c0-1.104-.904-1.999-1.993-1.999H45.993z"/></g><rect x="78" y="194" width="100" height="20" rx="2"/><rect x="119" y="176" width="20" height="20" rx="2"/></g></svg>