<svg width="171" height="171" viewBox="0 0 171 171" xmlns="http://www.w3.org/2000/svg">
    <title>
        PBS-tumblr_box
    </title>
    <path d="M28.548 0C12.845 0 0 12.845 0 28.547v114.169c0 15.714 12.845 28.548 28.548 28.548h114.179c15.698 0 28.537-12.834 28.537-28.548V28.547C171.264 12.85 158.425 0 142.727 0H28.548zm93.831 137.926c-5.042 2.371-9.623 4.046-13.717 5.01-4.095.953-8.526 1.429-13.279 1.429-5.405 0-8.59-.68-12.743-2.039-4.148-1.37-7.696-3.324-10.618-5.834-2.938-2.531-4.967-5.218-6.101-8.06-1.135-2.842-1.697-6.974-1.697-12.379V74.607H48.168V57.871c4.64-1.504 10.024-3.666 13.326-6.481 3.319-2.821 5.973-6.198 7.975-10.148 2.007-3.939 3.388-8.97 4.142-15.065h16.811v27.338h27.322v21.092H90.417v30.303c0 6.856-.091 10.811.637 12.754.722 1.932 2.531 3.939 4.501 5.1 2.617 1.568 5.603 2.35 8.97 2.35 5.983 0 11.94-1.943 17.854-5.834v18.646z" fill-rule="evenodd"/>
</svg>
