<svg width="256" height="256" viewBox="0 0 256 256" xmlns="http://www.w3.org/2000/svg"><title>PBS-component_icon</title><g fill="#222" fill-rule="evenodd"><g transform="translate(194 160)"><rect x="13.854" width="7.292" height="35" rx="2"/><rect transform="rotate(90 17.5 17.5)" x="13.854" width="7.292" height="35" rx="2"/></g><path d="M245.439 210.667a2.307 2.307 0 0 1-1.808.814h-63.807c-.69 0-1.284-.272-1.78-.814a2.774 2.774 0 0 1-.747-1.94v-63.351c0-.751.249-1.398.746-1.94.497-.543 1.09-.814 1.78-.814h63.808c.727 0 1.33.27 1.808.813.478.543.717 1.19.717 1.941v63.35c0 .752-.239 1.398-.717 1.94zm-9.28-11.987c0 .513-.17.955-.51 1.326-.339.37-.766.555-1.282.555h-45.28c-.49 0-.91-.185-1.263-.555a1.855 1.855 0 0 1-.53-1.326v-43.258c0-.513.177-.955.53-1.325.353-.37.774-.556 1.264-.556h45.28c.515 0 .942.185 1.282.556.34.37.509.812.509 1.325v43.258z"/><rect x="94.666" y="142.772" width="68.859" height="68.859" rx="2"/><rect x="94.666" y="46" width="151.49" height="82.631" rx="2"/><rect x="12" y="178.937" width="68.859" height="20" rx="2"/><rect x="12" y="144" width="68.859" height="20" rx="2"/><rect x="12" y="46.369" width="68.859" height="82.631" rx="2"/></g></svg>