<svg width="256" height="256" viewBox="0 0 256 256" xmlns="http://www.w3.org/2000/svg"><title>PBS-passport_compass_rose</title><g fill="none" fill-rule="evenodd"><path d="M213.587 187.952c0 14.223-11.495 25.717-25.718 25.717H68.131c-14.223 0-25.718-11.494-25.718-25.717V68.213c0-14.223 11.495-25.717 25.718-25.717h119.738c14.223 0 25.718 11.494 25.718 25.717v119.739z" fill="#00AAEB"/><path d="M127.256 184.148l-13.148-42.008L72.1 128.992l42.008-13.148 13.148-42.007 13.148 42.09 42.008 13.148-42.008 13.065-13.148 42.008zm18.606-73.761l4.548 1.405 10.915-16.869-16.952 10.915 1.489 4.549zm-37.212 0l1.406-4.549-16.952-10.915 10.915 16.87 4.631-1.406zm37.212 37.294l-1.406 4.548 16.952 10.915-10.916-16.952-4.63 1.489zm-37.212 0l-4.548-1.406-10.915 16.952 16.869-10.915-1.406-4.631zm82.94-18.606c0 35.475-28.777 64.335-64.334 64.335-35.475 0-64.335-28.777-64.335-64.335 0-35.558 28.777-64.335 64.335-64.335 35.475 0 64.334 28.777 64.334 64.335zm-9.178 0c0-30.43-24.725-55.156-55.156-55.156-30.431 0-55.156 24.725-55.156 55.156 0 30.43 24.725 55.156 55.156 55.156 30.43-.083 55.156-24.808 55.156-55.156z" fill="#FFF"/></g></svg>