<?xml version="1.0" encoding="UTF-8" standalone="no"?>
<svg width="256px" height="256px" viewBox="0 0 256 256" version="1.1" xmlns="http://www.w3.org/2000/svg" xmlns:xlink="http://www.w3.org/1999/xlink">
    <!-- Generator: Sketch 39.1 (31720) - http://www.bohemiancoding.com/sketch -->
    <title>PBS-tv_schedule</title>
    <desc>Created with Sketch.</desc>
    <defs></defs>
    <g id="Page-1" stroke="none" stroke-width="1" fill="none" fill-rule="evenodd">
        <g id="PBS-tv_schedule" fill="#222222">
            <g id="Group-2" transform="translate(79.000000, 76.000000)">
                <polygon id="tv_schedule_component-path" points="80.2748569 67.6152075 80.2748569 51.6152077 96.2748571 51.6152077 96.2748571 67.6152075"></polygon>
                <polygon id="tv_schedule_component-path" points="69.6081906 67.6152075 53.6081904 67.6152075 53.6081904 51.6152077 69.6081906 51.6152077 69.6081906 67.6152075"></polygon>
                <polygon id="tv_schedule_component-path" points="42.9415237 67.6152075 26.9415236 67.6152075 26.9415236 51.6152077 42.9415237 51.6152077 42.9415237 67.6152075"></polygon>
                <polygon id="tv_schedule_component-path" points="16.2748572 67.6152075 0.274857057 67.6152075 0.274857057 51.6152077 16.2748572 51.6152077 16.2748572 67.6152075"></polygon>
                <polygon id="tv_schedule_component-path" points="96.2748571 41.948541 80.2748569 41.948541 80.2748569 25.9485408 96.2748571 25.9485408 96.2748571 41.948541"></polygon>
                <polygon id="tv_schedule_component-path" points="69.6081906 41.948541 53.6081904 41.948541 53.6081904 25.9485408 69.6081906 25.9485408 69.6081906 41.948541"></polygon>
                <polygon id="tv_schedule_component-path" points="42.9415237 41.948541 26.9415236 41.948541 26.9415236 25.9485408 42.9415237 25.9485408 42.9415237 41.948541"></polygon>
                <polygon id="tv_schedule_component-path" points="16.2748572 41.948541 0.274857057 41.948541 0.274857057 25.9485408 16.2748572 25.9485408 16.2748572 41.948541"></polygon>
                <polygon id="tv_schedule_component-path" points="0.274857057 15.2818743 0.274857057 0.281874338 96.2748571 0.281874338 96.2748571 15.2818743"></polygon>
            </g>
            <g id="Group" transform="translate(24.000000, 42.000000)">
                <path d="M1.99711101,0 C0.894137057,0 0,0.886706352 0,1.99810135 L0,8 L0,128 L0,134.001899 C0,135.10542 0.901076175,136 1.99711101,136 L11.2432432,136 L196.756757,136 L206.002889,136 C207.105863,136 208,135.113294 208,134.001899 L208,128 L208,8 L208,1.99810135 C208,0.894580447 207.098924,0 206.002889,0 L196.756757,0 L11.2432432,0 L1.99711101,0 Z M21.9928818,20.9230769 C20.8922436,20.9230769 20,21.8129266 20,22.9225886 L20,26.4615385 L20,109.538462 L20,113.077411 C20,114.181711 20.9039286,115.076923 21.9928818,115.076923 L29.0810811,115.076923 L178.918919,115.076923 L186.007118,115.076923 C187.107756,115.076923 188,114.187073 188,113.077411 L188,109.538462 L188,26.4615385 L188,22.9225886 C188,21.8182888 187.096071,20.9230769 186.007118,20.9230769 L178.918919,20.9230769 L29.0810811,20.9230769 L21.9928818,20.9230769 Z" id="Combined-Shape"></path>
            </g>
            <rect id="Rectangle-3" x="78" y="194" width="100" height="20" rx="2"></rect>
            <rect id="Rectangle-3-Copy" x="119" y="176" width="20" height="20" rx="2"></rect>
        </g>
    </g>
</svg>