<svg width="172" height="172" viewBox="0 0 172 172" xmlns="http://www.w3.org/2000/svg">
    <title>
        PBS-upload_circle
    </title>
    <g fill-rule="evenodd">
        <path d="M86 152c-36.451 0-66-29.549-66-66s29.549-66 66-66 66 29.549 66 66-29.549 66-66 66M86 0C38.504 0 0 38.504 0 86s38.504 86 86 86c47.497 0 86-38.504 86-86S133.497 0 86 0"/>
        <path d="M85.78 35.482c-.424-.643-1.109-.642-1.531 0L58.307 74.73c-.61.925-.209 1.564.893 1.564h15.946v55.71c0 1.1.634 2.29 1.734 2.29h16.018c1.093 0 2.248-1.188 2.248-2.29v-55.71h15.682c1.099 0 1.502-.641.893-1.564L85.78 35.482z"/>
    </g>
</svg>
