<svg width="228" height="153" viewBox="0 0 228 153" xmlns="http://www.w3.org/2000/svg">
    <title>
        PBS-closed_caption
    </title>
    <path d="M225.593 0H1.858C.748 0 0 .603 0 1.71v148.943C0 151.759.751 153 1.858 153h223.735c1.11 0 2.407-1.24 2.407-2.347V1.71C228 .604 226.7 0 225.593 0m-78.827 89.278a27.03 27.03 0 0 0 7.719-1.107c2.489-.738 4.515-1.627 7.515-2.666v13.699c-5 2.215-10.672 3.322-16.989 3.322-9.05 0-15.994-2.625-20.82-7.875-4.826-5.25-7.241-12.838-7.241-22.763 0-6.207 1.168-11.662 3.506-16.366 2.338-4.703 5.7-8.319 10.089-10.848 4.389-2.53 9.549-3.794 15.483-3.794 6.48 0 12.674 1.408 18.58 4.224l-4.963 12.756a55.88 55.88 0 0 0-6.644-2.625c-2.215-.711-4.594-1.066-7.137-1.066-3.856 0-6.863 1.579-9.024 4.737-2.16 3.158-3.24 7.513-3.24 13.064 0 11.539 4.389 17.308 13.166 17.308m-57.828 0a26.45 26.45 0 0 0 7.634-1.107c2.488-.738 5.428-1.627 7.428-2.666v13.699c-5 2.215-10.586 3.322-16.903 3.322-9.05 0-15.951-2.625-20.777-7.875-4.826-5.25-7.219-12.838-7.219-22.763 0-6.207 1.178-11.662 3.515-16.366 2.338-4.703 5.707-8.319 10.095-10.848 4.389-2.53 9.553-3.794 15.487-3.794 6.48 0 12.675 1.408 18.581 4.224l-4.963 12.756a55.813 55.813 0 0 0-6.644-2.625c-2.214-.711-4.593-1.066-7.136-1.066-3.856 0-6.864 1.579-9.024 4.737-2.16 3.158-3.24 7.513-3.24 13.064 0 11.539 4.389 17.308 13.166 17.308" fill-rule="evenodd"/>
</svg>
