<svg width="176" height="127" viewBox="0 0 176 127" xmlns="http://www.w3.org/2000/svg">
    <title>
        PBS-component_list
    </title>
    <path d="M0 2.002C0 .896.902 0 1.996 0h17.641c1.103 0 1.997.894 1.997 2.002v16.491a2.005 2.005 0 0 1-1.997 2.002H1.996A1.998 1.998 0 0 1 0 18.493V2.002zm48.163 0c0-1.106.887-2.002 2-2.002h124.096c1.104 0 1.999.894 1.999 2.002v16.491a1.995 1.995 0 0 1-1.999 2.002H50.163a2 2 0 0 1-2-2.002V2.002zM0 55.29c0-1.106.902-2.003 1.996-2.003h17.641c1.103 0 1.997.894 1.997 2.003v16.49a2.006 2.006 0 0 1-1.997 2.003H1.996A1.998 1.998 0 0 1 0 71.78V55.29zm48.163 0c0-1.106.887-2.003 2-2.003h124.096a2 2 0 0 1 1.999 2.003v16.49a1.995 1.995 0 0 1-1.999 2.003H50.163a2 2 0 0 1-2-2.003V55.29zM0 108.577c0-1.106.902-2.002 1.996-2.002h17.641c1.103 0 1.997.894 1.997 2.002v16.491a2.005 2.005 0 0 1-1.997 2.002H1.996A1.998 1.998 0 0 1 0 125.068v-16.491zm48.163 0c0-1.106.887-2.002 2-2.002h124.096c1.104 0 1.999.894 1.999 2.002v16.491a1.995 1.995 0 0 1-1.999 2.002H50.163a2 2 0 0 1-2-2.002v-16.491z" fill-rule="evenodd"/>
</svg>
