<?xml version="1.0" encoding="UTF-8" standalone="no"?>
<svg width="256px" height="256px" viewBox="0 0 256 256" version="1.1" xmlns="http://www.w3.org/2000/svg" xmlns:xlink="http://www.w3.org/1999/xlink">
    <!-- Generator: Sketch 39.1 (31720) - http://www.bohemiancoding.com/sketch -->
    <title>PBS-play_circle</title>
    <desc>Created with Sketch.</desc>
    <defs></defs>
    <g id="Page-1" stroke="none" stroke-width="1" fill="none" fill-rule="evenodd">
        <g id="PBS-play_circle">
            <g id="play-2" transform="translate(42.375000, 42.375000)" fill="#444444">
                <path d="M85.3599732,170.719946 C132.638728,170.719946 170.719946,132.638728 170.719946,85.3599732 C170.719946,38.081218 132.638728,0 85.3599732,0 C38.081218,0 0,38.081218 0,85.3599732 C0,132.638728 38.081218,170.719946 85.3599732,170.719946 L85.3599732,170.719946 Z M59.5332463,127.383755 C58.6583066,126.946285 57.7833668,126.071345 56.9084271,124.321466 L56.9084271,52.5337285 C56.9084271,52.5337285 57.345897,50.3463792 59.0957764,49.4714395 L59.0957764,49.4714395 C59.5332463,49.4714395 59.5332463,49.4714395 59.9707162,49.0339696 L59.9707162,49.0339696 C60.8456559,48.5964997 62.1580655,49.0339696 63.9079449,49.9089093 C67.8451737,51.6587888 95.8645849,66.5434341 114.248989,76.6105759 L114.248989,76.6105759 C122.566251,80.9852745 128.696165,84.4903684 129.571104,84.9278383 C131.758454,86.2402479 131.758454,90.1828117 129.571104,91.4952212 C128.258695,92.370161 121.691312,95.8699199 112.93658,100.687423 L112.93658,100.687423 C92.8022958,111.629505 63.4704751,127.38909 63.4704751,127.38909 C63.4704751,127.38909 62.5955353,127.82656 60.8456559,127.82656 L60.8456559,127.82656 C59.9707162,127.82656 59.9707162,127.82656 59.5332463,127.38909 C59.5332463,127.82656 59.5332463,127.82656 59.5332463,127.38909 L59.5332463,127.38909 L59.5332463,127.38909 L59.5332463,127.383755 Z" id="Shape"></path>
            </g>
            <g id="circle" transform="translate(43.000000, 43.000000)" fill="#222222">
                <path d="M169.115125,85 C169.115125,100.339911 165.335637,114.487815 157.776661,127.44371 C150.217685,140.399605 139.96025,150.65704 127.004355,158.216016 C114.04846,165.774992 99.9005565,169.55448 84.5606451,169.55448 C69.2207337,169.55448 55.0728304,165.774992 42.1169352,158.216016 C29.1610401,150.65704 18.9036047,140.399605 11.344629,127.44371 C3.78565338,114.487815 0.00616555925,100.339911 0.00616555925,85 C0.00616555925,69.6600886 3.78565338,55.5121853 11.344629,42.5562901 C18.9036047,29.600395 29.1610401,19.3429596 42.1169352,11.7839839 C55.0728304,4.22500831 69.2207337,0.445520487 84.5606451,0.445520487 C99.9005565,0.445520487 114.04846,4.22500831 127.004355,11.7839839 C139.96025,19.3429596 150.217685,29.600395 157.776661,42.5562901 C165.335637,55.5121853 169.115125,69.6600886 169.115125,85 L169.115125,85 Z" id="Shape"></path>
            </g>
            <path d="M136.385983,96.4403066 C137.556704,94.5642366 139.455543,94.5653992 140.625538,96.4403066 L178.549238,157.212712 C179.719959,159.088782 178.868724,160.609637 176.67263,160.609637 L100.338892,160.609637 C98.131749,160.609637 97.2922882,159.08762 98.4622835,157.212712 L136.385983,96.4403066 Z" id="Triangle" fill="#FFFFFF" transform="translate(138.505761, 126.826509) scale(-1, 1) rotate(-90.000000) translate(-138.505761, -126.826509) "></path>
        </g>
    </g>
</svg>