<?xml version="1.0" encoding="UTF-8" standalone="no"?>
<svg width="256px" height="256px" viewBox="0 0 256 256" version="1.1" xmlns="http://www.w3.org/2000/svg" xmlns:xlink="http://www.w3.org/1999/xlink">
    <!-- Generator: Sketch 39.1 (31720) - http://www.bohemiancoding.com/sketch -->
    <title>PBS-home</title>
    <desc>Created with Sketch.</desc>
    <defs></defs>
    <g id="Page-1" stroke="none" stroke-width="1" fill="none" fill-rule="evenodd">
        <g id="PBS-home" fill="#000000">
            <g id="home" transform="translate(42.187500, 45.500000)">
                <g transform="translate(-0.000000, 0.000000)" id="Icons">
                    <g>
                        <g id="home">
                            <path d="M146.378604,162.217617 C146.378604,164.125311 144.852027,165.671803 142.881949,165.671803 L112.681094,165.671803 C110.749945,165.671803 109.18444,164.125689 109.18444,162.155468 L109.18444,105.079584 L63.9902746,105.079584 L63.9902746,162.155468 C63.9902746,164.097486 62.4636969,165.671803 60.4936196,165.671803 L29.2927648,165.671803 C27.3616156,165.671803 25.7961099,164.137722 25.7961099,162.217617 L25.7961099,85.2834739 L2.50312339,85.2834739 C0.568401777,85.2834739 0.111270034,84.1925319 1.48883645,82.8401649 L84.4024038,1.44330896 C85.7769502,0.0939066956 87.9821822,0.0909419285 89.3345492,1.44330896 L170.731405,82.8401649 C172.080807,84.1895671 171.61822,85.2834739 169.671591,85.2834739 L146.378604,85.2834739 L146.378604,162.217617 Z" id="home_icon"></path>
                        </g>
                    </g>
                </g>
            </g>
        </g>
    </g>
</svg>