<svg width="256" height="256" viewBox="0 0 256 256" xmlns="http://www.w3.org/2000/svg"><title>PBS-newsletter</title><g fill="#222" fill-rule="evenodd"><g transform="translate(62 43)"><text font-family="OpenSans-Extrabold, Open Sans" font-size="26" font-weight="600"><tspan x="29" y="45">NEWS</tspan></text><path d="M1.994 0A1.997 1.997 0 0 0 0 1.999V166C0 167.105.894 168 1.994 168h134.012a1.997 1.997 0 0 0 1.994-1.999V2A1.997 1.997 0 0 0 136.006 0H1.994zm15.85 15.878a2 2 0 0 0-2 2.006v132.232c0 1.108.897 2.006 2 2.006h102.312a2 2 0 0 0 2-2.006V17.884a2.004 2.004 0 0 0-2-2.006H17.844z"/><rect x="57" y="72" width="26" height="31" rx="2"/></g><rect x="92" y="99" width="77" height="10" rx="2"/><rect x="92" y="154" width="77" height="10" rx="2"/><rect x="92" y="171" width="77" height="10" rx="2"/><rect x="92" y="120" width="20" height="10" rx="2"/><rect x="149" y="120" width="20" height="10" rx="2"/><rect x="92" y="136" width="20" height="10" rx="2"/><rect x="149" y="136" width="20" height="10" rx="2"/></g></svg>