<svg width="256" height="256" viewBox="0 0 256 256" xmlns="http://www.w3.org/2000/svg"><title>PBS-play_circle</title><g fill="none" fill-rule="evenodd"><path d="M127.735 213.095c47.279 0 85.36-38.081 85.36-85.36 0-47.279-38.081-85.36-85.36-85.36-47.279 0-85.36 38.081-85.36 85.36 0 47.279 38.081 85.36 85.36 85.36zm-25.827-43.336c-.875-.438-1.75-1.313-2.625-3.063V94.91s.438-2.188 2.188-3.063c.437 0 .437 0 .875-.437.875-.438 2.187 0 3.937.875 3.937 1.75 31.957 16.634 50.341 26.702 8.317 4.374 14.447 7.88 15.322 8.317 2.187 1.312 2.187 5.255 0 6.567-1.312.875-7.88 4.375-16.634 9.192-20.135 10.943-49.467 26.702-49.467 26.702s-.874.438-2.624.438c-.875 0-.875 0-1.313-.438 0 .438 0 .438 0 0v-.005z" fill="#444"/><path d="M212.115 128c0 15.34-3.78 29.488-11.338 42.444-7.56 12.956-17.817 23.213-30.773 30.772-12.956 7.559-27.103 11.338-42.443 11.338-15.34 0-29.488-3.779-42.444-11.338-12.956-7.559-23.213-17.816-30.772-30.772-7.56-12.956-11.339-27.104-11.339-42.444 0-15.34 3.78-29.488 11.339-42.444C61.904 72.6 72.16 62.343 85.117 54.784c12.956-7.559 27.104-11.338 42.444-11.338 15.34 0 29.487 3.779 42.443 11.338 12.956 7.559 23.214 17.816 30.773 30.772 7.559 12.956 11.338 27.104 11.338 42.444z" fill="#222"/><path d="M168.892 128.946c1.876-1.17 1.875-3.07 0-4.24L108.12 86.784c-1.877-1.17-3.397-.32-3.397 1.877v76.333c0 2.208 1.522 3.047 3.397 1.877l60.772-37.924z" fill="#FFF"/></g></svg>