<?xml version="1.0" encoding="UTF-8" standalone="no"?>
<svg width="256px" height="256px" viewBox="0 0 256 256" version="1.1" xmlns="http://www.w3.org/2000/svg" xmlns:xlink="http://www.w3.org/1999/xlink">
    <!-- Generator: Sketch 39.1 (31720) - http://www.bohemiancoding.com/sketch -->
    <title>PBS-component_horizontal_linebreak</title>
    <desc>Created with Sketch.</desc>
    <defs></defs>
    <g id="Page-1" stroke="none" stroke-width="1" fill="none" fill-rule="evenodd">
        <g id="PBS-component_horizontal_linebreak" fill="#222222">
            <rect id="Rectangle-3" x="29" y="117" width="200" height="20" rx="2"></rect>
            <path d="M131.752554,44.4061629 L160.495637,77.4913018 C161.219516,78.3245328 160.908758,79 159.802447,79 L102.001231,79 C100.894514,79 100.584202,78.3244864 101.308041,77.4913018 L130.051123,44.4061629 C130.52096,43.8653499 131.281436,43.8638754 131.752554,44.4061629 Z" id="Triangle-2"></path>
            <path d="M131.752554,176.406163 L160.495637,209.491302 C161.219516,210.324533 160.908758,211 159.802447,211 L102.001231,211 C100.894514,211 100.584202,210.324486 101.308041,209.491302 L130.051123,176.406163 C130.52096,175.86535 131.281436,175.863875 131.752554,176.406163 Z" id="Triangle-2" transform="translate(130.903773, 193.500000) scale(1, -1) translate(-130.903773, -193.500000) "></path>
        </g>
    </g>
</svg>