<svg width="167" height="172" viewBox="0 0 167 172" xmlns="http://www.w3.org/2000/svg">
    <title>
        PBS-calendar
    </title>
    <path d="M163.664 172.026H3.336c-1.843 0-3.336-1.471-3.336-3.242V26.658c0-1.791 1.501-3.243 3.354-3.243h15.919c1.109 0 2.008.894 2.008 2.002v14.191h36.995V25.417c0-1.105.886-2.002 1.996-2.002h46.81a2.03 2.03 0 0 1 2.022 2.002l.188 14.191h36.833V25.417c0-1.105.898-2.002 1.992-2.002h15.529c1.852 0 3.354 1.471 3.354 3.243v142.126c0 1.79-1.495 3.242-3.336 3.242zm-55.331-30.548h27.834v-27.576h-27.834v27.576zm-38.75-41.362h27.834V72.54H69.583v27.576zm38.75 0h27.834V72.54h-27.834v27.576zm-77.5 41.363h27.834v-27.576H30.833v27.576zm38.75 0h27.834v-27.576H69.583v27.576zm-38.75-41.363h27.834V72.54H30.833v27.576zM20 152.211h127V57.235H20v94.976zM29.225 1.998C29.225.894 30.123 0 31.216 0h16.018c1.1 0 1.991.894 1.991 1.998v27.004A2 2 0 0 1 47.234 31H31.216c-1.1 0-1.991-.894-1.991-1.998V1.998zm89 0c0-1.104.898-1.998 1.991-1.998h16.018c1.1 0 1.991.894 1.991 1.998v27.004A2 2 0 0 1 136.234 31h-16.018c-1.1 0-1.991-.894-1.991-1.998V1.998z" fill-rule="evenodd"/>
</svg>
