<?xml version="1.0" encoding="UTF-8" standalone="no"?>
<svg width="256px" height="256px" viewBox="0 0 256 256" version="1.1" xmlns="http://www.w3.org/2000/svg" xmlns:xlink="http://www.w3.org/1999/xlink">
    <!-- Generator: Sketch 39.1 (31720) - http://www.bohemiancoding.com/sketch -->
    <title>PBS-download</title>
    <desc>Created with Sketch.</desc>
    <defs></defs>
    <g id="Page-1" stroke="none" stroke-width="1" fill="none" fill-rule="evenodd">
        <g id="PBS-download" fill="#222222">
            <g id="Group-2" transform="translate(49.000000, 143.000000)">
                <path d="M20,29.0099945 L20,2.70900936 C20,1.61113191 19.1086907,0.710801494 18.0092049,0.710801494 L1.99079514,0.710801494 C0.898212381,0.710801494 0,1.60542963 0,2.70900936 L0,47.0017921 C0,48.0996696 0.891309342,49 1.99079514,49 L3.79047851,49 C3.85624354,49.0066087 3.92295122,49.0099945 3.99044349,49.0099945 L153.009557,49.0099945 C153.241568,49.0099945 153.464846,48.9697548 153.672629,48.8958285 C154.458457,48.6294642 155.029999,47.8821071 155.029999,47.0017921 L155.029999,2.70900936 C155.029999,1.61113191 154.138689,0.710801494 153.039204,0.710801494 L137.020794,0.710801494 C135.928211,0.710801494 135.029999,1.60542963 135.029999,2.70900936 L135.029999,29.0099945 L20,29.0099945 Z" id="Combined-Shape"></path>
            </g>
            <g id="Group" transform="translate(126.500000, 101.500000) scale(1, -1) translate(-126.500000, -101.500000) translate(99.000000, 52.000000)">
                <path d="M36.8888641,41.5099983 L52.827611,41.5099983 C53.9273492,41.5099983 54.330092,40.7614239 53.7214203,39.8380105 L27.7795542,0.481709145 C27.3556173,-0.161443809 26.6713014,-0.159695026 26.2485172,0.481709145 L0.306651122,39.8380105 C-0.302961959,40.762852 0.098151464,41.5099983 1.20046039,41.5099983 L16.8888641,41.5099983 L16.8888641,97.0036926 C16.8888641,98.1052696 17.7801735,99 18.8796593,99 L34.898069,99 C35.9906518,99 36.8888641,98.1062227 36.8888641,97.0036926 L36.8888641,41.5099983 Z" id="Combined-Shape"></path>
            </g>
        </g>
    </g>
</svg>