<?xml version="1.0" encoding="UTF-8" standalone="no"?>
<svg width="256px" height="256px" viewBox="0 0 256 256" version="1.1" xmlns="http://www.w3.org/2000/svg" xmlns:xlink="http://www.w3.org/1999/xlink">
    <!-- Generator: Sketch 39.1 (31720) - http://www.bohemiancoding.com/sketch -->
    <title>PBS-facebook_box</title>
    <desc>Created with Sketch.</desc>
    <defs></defs>
    <g id="Page-1" stroke="none" stroke-width="1" fill="none" fill-rule="evenodd">
        <g id="PBS-facebook_box" fill="#222222">
            <g id="facebook-square" transform="translate(42.980127, 41.979417)">
                <path d="M149.958975,0.477902358 C155.78323,0.477902358 160.825122,2.42139045 165.097071,6.68712948 C169.369019,10.5678964 171.306298,15.6159981 171.306298,21.4340439 L171.306298,149.890535 C171.306298,155.71479 169.36281,160.756682 165.097071,165.02863 C160.831332,169.300579 155.78323,171.237857 149.958975,171.237857 L117.745505,171.237857 L117.745505,109.92174 L140.253953,109.92174 L140.253953,83.141343 L117.745505,83.141343 L117.745505,69.170582 C117.745505,65.289815 119.688993,63.346327 123.178578,63.346327 L140.253953,63.346327 L140.253953,33.0763447 L121.23509,33.0763447 C111.530068,33.0763447 103.383562,36.5721396 96.7831538,43.9424922 C90.1827453,50.9278727 86.6931597,59.8567413 86.6931597,69.9467354 L86.6931597,83.141343 L66.1219902,83.141343 L66.1219902,109.92174 L86.6931597,109.92174 L86.6931597,171.237857 L21.881247,171.237857 C16.056992,171.237857 11.0150995,169.294369 6.74315128,165.02863 C2.47120302,160.762891 0.533924156,155.71479 0.533924156,149.890535 L0.533924156,21.4340439 C0.533924156,15.6097889 2.47741224,10.5678964 6.74315128,6.68712948 C11.0150995,2.41518122 16.056992,0.477902358 21.881247,0.477902358 L149.946556,0.477902358 L149.958975,0.477902358 Z" id="Shape"></path>
            </g>
        </g>
    </g>
</svg>