<?xml version="1.0" encoding="UTF-8" standalone="no"?>
<svg width="256px" height="256px" viewBox="0 0 256 256" version="1.1" xmlns="http://www.w3.org/2000/svg" xmlns:xlink="http://www.w3.org/1999/xlink">
    <!-- Generator: Sketch 39.1 (31720) - http://www.bohemiancoding.com/sketch -->
    <title>PBS-component_audio</title>
    <desc>Created with Sketch.</desc>
    <defs></defs>
    <g id="Page-1" stroke="none" stroke-width="1" fill="none" fill-rule="evenodd">
        <g id="PBS-component_audio" fill="#000000">
            <g id="audio_component" transform="translate(28.360354, 53.863800)">
                <g transform="translate(0.000000, -0.000000)" id="Icons">
                    <g>
                        <g id="audio_component">
                            <path d="M172.832166,146.570062 C189.616447,125.532013 198.039216,101.509329 198.039216,74.6187204 C198.039216,47.3727875 189.496042,23.1713314 172.432407,2.08610275 L171.437282,0.749293725 C170.779517,-0.132625098 168.861967,0.219442745 168.668499,0.368563529 L154.158194,11.5527408 C153.245445,12.2562643 153.664875,14.1515643 153.879571,14.3969314 L155.10284,15.7949533 C169.106368,32.9882071 176.118112,52.5903192 176.118112,74.6187204 C176.118112,96.1892608 170.846259,115.118462 157.253919,132.251664 L156.091107,133.577138 C154.517016,134.636593 154.608234,136.612834 155.741394,137.538894 L168.13385,147.190931 C169.473303,148.521841 171.59232,148.223189 171.783649,147.968084 L172.832166,146.570062 L172.832166,146.570062 Z M136.248944,18.8505518 C135.583456,18.0411737 133.678431,18.4344435 133.5396,18.5411333 L135.043971,17.3850435 C134.213129,18.0235341 132.157069,19.6035906 130.43588,20.926302 L124.591203,25.4178616 C122.877066,26.7351537 120.125566,28.8496467 119.873359,29.0434643 L121.487484,27.8030302 C120.596027,28.4881031 120.970282,30.3652004 121.173416,30.6099667 C131.711823,43.308209 136.967667,57.8363275 136.967667,74.2692149 C136.967667,89.9136204 132.107337,103.933531 122.355334,116.399776 C121.703613,117.232888 122.518996,119.011303 122.655608,119.123447 L121.175288,117.908259 C121.992846,118.579389 123.998715,120.225997 125.670821,121.598622 L131.348831,126.259675 C133.014087,127.626676 135.712796,129.842034 135.901293,129.996771 L134.364044,128.734849 C135.213043,129.431789 136.989189,128.632412 137.14123,128.441734 C149.769313,112.604534 156.092726,94.5248537 156.092726,74.2692149 C156.092726,53.4272937 149.469253,34.9293055 136.248944,18.8505518 L136.248944,18.8505518 Z M101.572191,6.55442118 C103.383392,5.34695333 104.851661,6.13572392 104.851661,8.25313098 L104.851661,140.285298 C104.851661,142.430938 103.394777,143.199066 101.572191,141.984009 L55.7053012,111.406082 C53.8940996,110.198615 50.6815294,109.219769 48.4853725,109.219769 L3.94045808,109.219769 C1.76420318,109.219769 0,107.491866 0,105.261301 L0,43.2771286 C0,41.0909275 1.74430122,39.3186612 3.94045808,39.3186612 L48.4853725,39.3186612 C50.6616275,39.3186612 53.8827145,38.3474051 55.7053012,37.1323475 L101.572191,6.55442118 L101.572191,6.55442118 Z" id="Combined-Shape"></path>
                        </g>
                    </g>
                </g>
            </g>
        </g>
    </g>
</svg>