<svg width="256" height="256" viewBox="0 0 256 256" xmlns="http://www.w3.org/2000/svg"><title>PBS-duplicate</title><g fill="#222" fill-rule="evenodd"><g transform="translate(78 78)"><path d="M130.99 0c1.11 0 2.01.902 2.01 2.01v128.98c0 1.11-.902 2.01-2.01 2.01H2.01C.9 133 0 132.098 0 130.99V2.01C0 .9.902 0 2.01 0h128.98zM113 20v93H20V20h93z"/><rect x="61" y="43" width="10" height="48" rx="2"/><rect transform="rotate(90 66 67)" x="61" y="43" width="10" height="48" rx="2"/></g><path d="M61.322 61.777h126.136a1.989 1.989 0 0 0 1.993-1.991V43.767c0-1.092-.893-1.99-1.993-1.99H43.312c-1.092 0-1.99.892-1.99 1.992v147.015c0 1.106.89 1.993 1.99 1.993h16.019c1.092 0 1.99-.892 1.99-1.993V61.777z"/></g></svg>