<svg width="165" height="172" viewBox="0 0 165 172" xmlns="http://www.w3.org/2000/svg">
    <title>
        PBS-rewind
    </title>
    <path d="M137.442 27.634c-2.567-2.635-17.323-16.606-41.6-16.777-.032 0-.066 0-.1.002l-.34-9.717c-.037-1.1-.801-1.47-1.704-.825l-26.66 19.03-.635-18.205c-.038-1.1-.802-1.47-1.705-.825L30.452 24.763c-.561.4-.541 1.017.048 1.378l35.869 21.998c.945.58 1.68.16 1.642-.943l-.565-16.182 27.923 17.125c.945.58 1.68.16 1.642-.943l-.605-17.341c17.284.402 27.269 10.845 27.369 10.955l.325.357.36.323c1.102 1.003 27.499 25.505 20.17 60.616-3.464 16.6-13.186 30.858-27.375 40.145-14.187 9.289-31.144 12.496-47.744 9.03-33.654-7.024-55.534-39.655-49.53-73.284.18-1.02-.461-2.005-1.476-2.218L3.632 72.676c-1.035-.216-2.062.454-2.254 1.495-4.164 22.528 1.323 44.744 13.592 62.267 11.618 16.592 29.317 28.975 50.663 33.43 21.563 4.502 43.59.335 62.023-11.731 18.43-12.066 31.06-30.586 35.56-52.151 9.237-44.25-22.081-74.92-25.774-78.352zM58.622 86.09v25.079h9v-43h-7.803L46.02 79.093l4.365 5.418 4.922-3.971c.586-.468 1.631-1.463 3.135-2.967l.06 4.45.12 4.068zm38.21 25.37c5.099 0 8.873-1.796 11.325-5.39 2.45-3.593 3.676-9.13 3.676-16.611 0-7.226-1.264-12.715-3.794-16.465-2.53-3.75-6.264-5.625-11.206-5.625-5.078 0-8.838 1.792-11.28 5.376-2.44 3.584-3.661 9.155-3.661 16.714 0 7.246 1.255 12.725 3.765 16.436 2.509 3.71 6.235 5.566 11.176 5.566zm-4.57-33.324c.919-2.295 2.442-3.442 4.57-3.442 2.09 0 3.61 1.147 4.557 3.442.947 2.295 1.42 6.069 1.42 11.323 0 5.196-.468 8.946-1.405 11.25-.938 2.305-2.461 3.457-4.571 3.457-2.148 0-3.676-1.137-4.585-3.413-.908-2.275-1.362-6.04-1.362-11.294 0-5.254.459-9.028 1.377-11.323z" fill-rule="evenodd"/>
</svg>
