<svg width="256" height="256" viewBox="0 0 256 256" xmlns="http://www.w3.org/2000/svg"><title>PBS-close</title><path d="M142.789 128.354l49.14-49.141c.788-.787.785-2.05.005-2.83l-10.61-10.61a1.999 1.999 0 0 0-2.83.005l-49.14 49.14-49.141-49.14a1.997 1.997 0 0 0-2.83-.005l-10.61 10.61a1.999 1.999 0 0 0 .005 2.83l49.14 49.14-49.14 49.141a1.997 1.997 0 0 0-.005 2.83l10.61 10.61a1.999 1.999 0 0 0 2.83-.005l49.14-49.14 49.141 49.14c.787.788 2.05.785 2.83.005l10.61-10.61a1.999 1.999 0 0 0-.005-2.83l-49.14-49.14z" fill="#222" fill-rule="evenodd"/></svg>