<?xml version="1.0" encoding="UTF-8" standalone="no"?>
<svg width="256px" height="256px" viewBox="0 0 256 256" version="1.1" xmlns="http://www.w3.org/2000/svg" xmlns:xlink="http://www.w3.org/1999/xlink">
    <!-- Generator: Sketch 39.1 (31720) - http://www.bohemiancoding.com/sketch -->
    <title>PBS-expand</title>
    <desc>Created with Sketch.</desc>
    <defs></defs>
    <g id="Page-1" stroke="none" stroke-width="1" fill="none" fill-rule="evenodd">
        <g id="PBS-expand" fill="#222222">
            <g id="Group-4" transform="translate(129.109433, 128.109433) rotate(-315.000000) translate(-129.109433, -128.109433) translate(12.109433, 11.609433)">
                <g id="Group-3" transform="translate(84.676734, 0.000000)">
                    <g id="Group-2" transform="translate(31.000000, 181.390057) scale(1, -1) translate(-31.000000, -181.390057) translate(-0.000000, 129.890057)">
                        <path d="M22.1633565,102.819171 C21.0584758,102.819171 20.162793,101.926534 20.162793,100.811876 L20.162793,46.5126116 C20.162793,45.4040133 21.0654842,44.5053168 22.1633565,44.5053168 L40.4841216,44.5053168 C41.5890023,44.5053168 42.4846851,45.3979532 42.4846851,46.5126116 L42.4846851,100.811876 C42.4846851,101.920474 41.5819939,102.819171 40.4841216,102.819171 L22.1633565,102.819171 Z" id="Rectangle"></path>
                        <path d="M32.3271537,0.537632977 L61.7017416,44.6722905 C62.3107506,45.5873129 61.9183858,46.3290851 60.807537,46.3290851 L2.12136248,46.3290851 C1.01849792,46.3290851 0.615519429,45.5912636 1.22715794,44.6722905 L30.6017459,0.537632977 C31.0782041,-0.178234756 31.8493964,-0.180186564 32.3271537,0.537632977 Z" id="Triangle-2"></path>
                    </g>
                    <g id="Group-2-Copy" transform="translate(0.000000, 0.232309)">
                        <path d="M22.1633565,102.819171 C21.0584758,102.819171 20.162793,101.926534 20.162793,100.811876 L20.162793,46.5126116 C20.162793,45.4040133 21.0654842,44.5053168 22.1633565,44.5053168 L40.4841216,44.5053168 C41.5890023,44.5053168 42.4846851,45.3979532 42.4846851,46.5126116 L42.4846851,100.811876 C42.4846851,101.920474 41.5819939,102.819171 40.4841216,102.819171 L22.1633565,102.819171 Z" id="Rectangle"></path>
                        <path d="M32.3271537,0.537632977 L61.7017416,44.6722905 C62.3107506,45.5873129 61.9183858,46.3290851 60.807537,46.3290851 L2.12136248,46.3290851 C1.01849792,46.3290851 0.615519429,45.5912636 1.22715794,44.6722905 L30.6017459,0.537632977 C31.0782041,-0.178234756 31.8493964,-0.180186564 32.3271537,0.537632977 Z" id="Triangle-2"></path>
                    </g>
                </g>
                <g id="Group-3-Copy" transform="translate(116.622366, 115.676734) rotate(-270.000000) translate(-116.622366, -115.676734) translate(85.622366, -0.823266)">
                    <g id="Group-2" transform="translate(31.000000, 181.390057) scale(1, -1) translate(-31.000000, -181.390057) translate(0.000000, 129.890057)">
                        <path d="M22.1633565,102.819171 C21.0584758,102.819171 20.162793,101.926534 20.162793,100.811876 L20.162793,46.5126116 C20.162793,45.4040133 21.0654842,44.5053168 22.1633565,44.5053168 L40.4841216,44.5053168 C41.5890023,44.5053168 42.4846851,45.3979532 42.4846851,46.5126116 L42.4846851,100.811876 C42.4846851,101.920474 41.5819939,102.819171 40.4841216,102.819171 L22.1633565,102.819171 Z" id="Rectangle"></path>
                        <path d="M32.3271537,0.537632977 L61.7017416,44.6722905 C62.3107506,45.5873129 61.9183858,46.3290851 60.807537,46.3290851 L2.12136248,46.3290851 C1.01849792,46.3290851 0.615519429,45.5912636 1.22715794,44.6722905 L30.6017459,0.537632977 C31.0782041,-0.178234756 31.8493964,-0.180186564 32.3271537,0.537632977 Z" id="Triangle-2"></path>
                    </g>
                    <g id="Group-2-Copy" transform="translate(0.000000, 0.232309)">
                        <path d="M22.1633565,102.819171 C21.0584758,102.819171 20.162793,101.926534 20.162793,100.811876 L20.162793,46.5126116 C20.162793,45.4040133 21.0654842,44.5053168 22.1633565,44.5053168 L40.4841216,44.5053168 C41.5890023,44.5053168 42.4846851,45.3979532 42.4846851,46.5126116 L42.4846851,100.811876 C42.4846851,101.920474 41.5819939,102.819171 40.4841216,102.819171 L22.1633565,102.819171 Z" id="Rectangle"></path>
                        <path d="M32.3271537,0.537632977 L61.7017416,44.6722905 C62.3107506,45.5873129 61.9183858,46.3290851 60.807537,46.3290851 L2.12136248,46.3290851 C1.01849792,46.3290851 0.615519429,45.5912636 1.22715794,44.6722905 L30.6017459,0.537632977 C31.0782041,-0.178234756 31.8493964,-0.180186564 32.3271537,0.537632977 Z" id="Triangle-2"></path>
                    </g>
                </g>
            </g>
        </g>
    </g>
</svg>