<svg width="198" height="148" viewBox="0 0 198 148" xmlns="http://www.w3.org/2000/svg">
    <title>
        PBS-component_audio
    </title>
    <path d="M101.573 6.381c1.811-1.207 3.279-.418 3.279 1.7v132.031c0 2.146-1.457 2.914-3.279 1.7l-45.867-30.579c-1.812-1.207-5.024-2.186-7.22-2.186H3.941A3.922 3.922 0 0 1 0 105.088V43.104a3.937 3.937 0 0 1 3.941-3.958h44.545c2.176 0 5.397-.972 7.22-2.187l45.867-30.578zm71.26 140.016c16.784-21.038 25.207-45.06 25.207-71.95 0-27.247-8.544-51.449-25.607-72.534l-.995-1.337c-.658-.882-2.576-.53-2.769-.38l-14.51 11.184c-.913.703-.494 2.6-.279 2.844l1.223 1.398c14.004 17.193 21.015 36.795 21.015 58.824 0 21.57-5.271 40.5-18.864 57.633l-1.163 1.325c-1.574 1.06-1.482 3.036-.349 3.962l12.392 9.652c1.34 1.331 3.459 1.032 3.65.777l1.049-1.398zM136.249 18.678c-.665-.81-2.57-.417-2.709-.31l1.504-1.156c-.83.638-2.887 2.22-4.608 3.541l-5.844 4.492-4.718 3.625 1.614-1.24c-.892.685-.517 2.562-.314 2.807 10.538 12.698 15.794 27.226 15.794 43.66 0 15.644-4.86 29.663-14.612 42.13-.652.833.163 2.611.3 2.723l-1.48-1.215 4.495 3.691 5.678 4.661 4.553 3.737-1.538-1.262c.849.697 2.626-.103 2.778-.293 12.628-15.838 18.951-33.917 18.951-54.173 0-20.842-6.623-39.34-19.844-55.418z" fill-rule="evenodd"/>
</svg>
