<?xml version="1.0" encoding="UTF-8" standalone="no"?>
<svg width="256px" height="256px" viewBox="0 0 256 256" version="1.1" xmlns="http://www.w3.org/2000/svg" xmlns:xlink="http://www.w3.org/1999/xlink">
    <!-- Generator: Sketch 39.1 (31720) - http://www.bohemiancoding.com/sketch -->
    <title>PBS-move</title>
    <desc>Created with Sketch.</desc>
    <defs></defs>
    <g id="Page-1" stroke="none" stroke-width="1" fill="none" fill-rule="evenodd">
        <g id="PBS-move" fill="#222222">
            <g id="Group-4" transform="translate(129.109433, 128.109433) rotate(-360.000000) translate(-129.109433, -128.109433) translate(12.109433, 11.609433)">
                <g id="Group-3" transform="translate(84.676734, 0.000000)">
                    <g id="Group-2" transform="translate(31.000000, 174.390057) scale(1, -1) translate(-31.000000, -174.390057) translate(-0.000000, 115.890057)">
                        <path d="M20.1701591,46.3290851 C20.1652826,46.3857137 20.162793,46.443017 20.162793,46.5008957 L20.162793,115.004421 C20.162793,116.109554 21.0584758,117 22.1633565,117 L40.4841216,117 C41.5819939,117 42.4846851,116.106549 42.4846851,115.004421 L42.4846851,46.5008957 C42.4846851,46.443004 42.4822272,46.3857014 42.4774102,46.3290851 L60.807537,46.3290851 C61.9183858,46.3290851 62.3107506,45.5873129 61.7017416,44.6722905 L32.3271537,0.537632977 C31.8493964,-0.180186564 31.0782041,-0.178234756 30.6017459,0.537632977 L1.22715794,44.6722905 C0.615519429,45.5912636 1.01849792,46.3290851 2.12136248,46.3290851 L20.1701591,46.3290851 Z" id="Combined-Shape"></path>
                    </g>
                    <g id="Group-2-Copy" transform="translate(0.000000, 0.232309)">
                        <path d="M20.1700661,46.3290851 C20.1652509,46.3853276 20.162793,46.4422352 20.162793,46.4997106 L20.162793,111.005606 C20.162793,112.108923 21.0584758,113 22.1633565,113 L40.4841216,113 C41.5819939,113 42.4846851,112.107079 42.4846851,111.005606 L42.4846851,46.4997106 C42.4846851,46.4422273 42.4822538,46.3853201 42.4774883,46.3290851 L60.807537,46.3290851 C61.9183858,46.3290851 62.3107506,45.5873129 61.7017416,44.6722905 L32.3271537,0.537632977 C31.8493964,-0.180186564 31.0782041,-0.178234756 30.6017459,0.537632977 L1.22715794,44.6722905 C0.615519429,45.5912636 1.01849792,46.3290851 2.12136248,46.3290851 L20.1700661,46.3290851 Z" id="Combined-Shape"></path>
                    </g>
                </g>
                <g id="Group-3-Copy" transform="translate(116.622366, 115.676734) rotate(-270.000000) translate(-116.622366, -115.676734) translate(85.622366, -0.823266)">
                    <g id="Group-2" transform="translate(31.000000, 173.890057) scale(1, -1) translate(-31.000000, -173.890057) translate(0.000000, 114.890057)">
                        <path d="M20.1708276,46.3290851 C20.1655102,46.3884297 20.162793,46.4485186 20.162793,46.5092382 L20.162793,115.996079 C20.162793,117.097271 21.0584758,118 22.1633565,118 L40.4841216,118 C41.5819939,118 42.4846851,117.102814 42.4846851,115.996079 L42.4846851,46.5092382 C42.4846851,46.448545 42.4819642,46.3884546 42.4766374,46.3290851 L60.807537,46.3290851 C61.9183858,46.3290851 62.3107506,45.5873129 61.7017416,44.6722905 L32.3271537,0.537632977 C31.8493964,-0.180186564 31.0782041,-0.178234756 30.6017459,0.537632977 L1.22715794,44.6722905 C0.615519429,45.5912636 1.01849792,46.3290851 2.12136248,46.3290851 L20.1708276,46.3290851 Z" id="Combined-Shape"></path>
                    </g>
                    <g id="Group-2-Copy" transform="translate(-0.000000, 0.232309)">
                        <path d="M20.1708276,46.3290851 C20.1655102,46.3884297 20.162793,46.4485186 20.162793,46.5092382 L20.162793,115.996079 C20.162793,117.097271 21.0584758,118 22.1633565,118 L40.4841216,118 C41.5819939,118 42.4846851,117.102814 42.4846851,115.996079 L42.4846851,46.5092382 C42.4846851,46.448545 42.4819642,46.3884546 42.4766374,46.3290851 L60.807537,46.3290851 C61.9183858,46.3290851 62.3107506,45.5873129 61.7017416,44.6722905 L32.3271537,0.537632977 C31.8493964,-0.180186564 31.0782041,-0.178234756 30.6017459,0.537632977 L1.22715794,44.6722905 C0.615519429,45.5912636 1.01849792,46.3290851 2.12136248,46.3290851 L20.1708276,46.3290851 Z" id="Combined-Shape"></path>
                    </g>
                </g>
            </g>
        </g>
    </g>
</svg>