<svg width="256" height="256" viewBox="0 0 256 256" xmlns="http://www.w3.org/2000/svg"><title>PBS-slideout_nav_open</title><g fill="#222" fill-rule="evenodd"><rect x="24" y="73" width="150" height="20" rx="2"/><rect x="24" y="118" width="150" height="20" rx="2"/><path d="M217.192 128.585l-16.344-16.343a2.005 2.005 0 0 1-.005-2.834l4.243-4.243a1.999 1.999 0 0 1 2.833.006l21.91 21.91c.406.405.603.942.589 1.474a2.006 2.006 0 0 1-.589 1.535L207.92 152a2.005 2.005 0 0 1-2.833.005l-4.243-4.243a1.999 1.999 0 0 1 .005-2.833l16.344-16.344z"/><rect x="24" y="163" width="150" height="20" rx="2"/></g></svg>