<?xml version="1.0" encoding="UTF-8" standalone="no"?>
<svg width="256px" height="256px" viewBox="0 0 256 256" version="1.1" xmlns="http://www.w3.org/2000/svg" xmlns:xlink="http://www.w3.org/1999/xlink">
    <!-- Generator: Sketch 39.1 (31720) - http://www.bohemiancoding.com/sketch -->
    <title>PBS-share</title>
    <desc>Created with Sketch.</desc>
    <defs></defs>
    <g id="Page-1" stroke="none" stroke-width="1" fill="none" fill-rule="evenodd">
        <g id="PBS-share" fill="#222222">
            <g id="Group-2" transform="translate(49.000000, 82.000000)">
                <path d="M132.826087,40 L132.826087,111 L20,111 L20,40 L40.9980004,40 C42.1018839,40 43,39.1086907 43,38.0092049 L43,21.9907951 C43,20.8982124 42.1036743,20 40.9980004,20 L2.00199958,20 C1.44819151,20 0.94617376,20.2243368 0.583370808,20.5867497 C0.225460908,20.9445037 0,21.444776 0,21.9974782 L0,129.002522 C0,129.555631 0.223727508,130.055901 0.585272945,130.417443 C0.945888996,130.773454 1.44925373,131 2.00551258,131 L142.405685,131 L150.835292,131 C151.927875,131 152.826087,130.105699 152.826087,129.002522 L152.826087,21.9974782 C152.826087,20.8934882 151.934778,20 150.835292,20 L142.624833,20 L111.436782,20 C110.332899,20 109.434783,20.8913093 109.434783,21.9907951 L109.434783,38.0092049 C109.434783,39.1017876 110.331108,40 111.436782,40 L132.826087,40 Z M66,1.9937508 C66,0.89263264 66.8982124,0 67.9907951,0 L84.0092049,0 C85.1086907,0 86,0.893082022 86,1.9937508 L86,74.0062492 C86,75.1073674 85.1017876,76 84.0092049,76 L67.9907951,76 C66.8913093,76 66,75.106918 66,74.0062492 L66,1.9937508 Z" id="Combined-Shape"></path>
            </g>
            <path d="M125.890817,42.4817091 L151.875514,81.8380105 C152.48519,82.7614239 152.081783,83.5099983 150.980229,83.5099983 L99.26784,83.5099983 C98.1637111,83.5099983 97.7619354,82.762852 98.372555,81.8380105 L124.357252,42.4817091 C124.780734,41.840305 125.46618,41.8385562 125.890817,42.4817091 Z" id="Triangle-2"></path>
        </g>
    </g>
</svg>