<svg width="225" height="172" viewBox="0 0 225 172" xmlns="http://www.w3.org/2000/svg" xmlns:xlink="http://www.w3.org/1999/xlink">
    <title>
        PBS-filter
    </title>
    <defs>
        <path id="a" d="M225 30.5V61H0V0h225v30.5z"/>
    </defs>
    <g fill="none" fill-rule="evenodd">
        <path d="M176.854 45.706c-8.561 0-15.5-6.94-15.5-15.5 0-8.56 6.939-15.5 15.5-15.5 8.56 0 15.5 6.94 15.5 15.5 0 8.56-6.94 15.5-15.5 15.5M222.857 22.5h-16.57C202.771 9.5 190.929 0 176.854 0c-14.076 0-25.917 9.5-29.433 22.5H1.851C.749 22.5 0 23.097 0 24.197v16.018C0 41.308.748 42.5 1.851 42.5h146.958c4.66 11 15.461 18.5 28.045 18.5 12.584 0 23.385-7.5 28.045-18.5h17.958c1.102 0 2.143-1.185 2.143-2.285V24.197c0-1.093-1.04-1.697-2.143-1.697M63.854 98.706c-8.561 0-15.5-6.94-15.5-15.5 0-8.56 6.939-15.5 15.5-15.5 8.56 0 15.5 6.94 15.5 15.5 0 8.56-6.94 15.5-15.5 15.5M222.857 75.5H93.287C89.771 62.5 77.929 53 63.854 53c-14.076 0-25.917 9.5-29.433 22.5H1.851C.749 75.5 0 76.097 0 77.197v16.018C0 94.308.748 95.5 1.851 95.5h33.958c4.66 11 15.461 18.5 28.045 18.5 12.584 0 23.385-7.5 28.045-18.5h130.958c1.102 0 2.143-1.185 2.143-2.285V77.197c0-1.093-1.04-1.697-2.143-1.697" fill="#222"/>
        <g transform="translate(0 111)">
            <mask id="b" fill="#fff">
                <use xlink:href="#a"/>
            </mask>
            <path d="M132.854 45.706c-8.561 0-15.5-6.94-15.5-15.5 0-8.56 6.939-15.5 15.5-15.5 8.56 0 15.5 6.94 15.5 15.5 0 8.56-6.94 15.5-15.5 15.5M222.857 22.5h-60.57C158.771 9.5 146.929 0 132.854 0c-14.076 0-25.917 9.5-29.433 22.5H1.851C.749 22.5 0 23.097 0 24.197v16.018C0 41.308.748 42.5 1.851 42.5h102.958c4.66 11 15.461 18.5 28.045 18.5 12.584 0 23.385-7.5 28.045-18.5h61.958c1.102 0 2.143-1.185 2.143-2.285V24.197c0-1.093-1.04-1.697-2.143-1.697" fill="#222" mask="url(#b)"/>
        </g>
    </g>
</svg>
