<svg width="199" height="171" viewBox="0 0 199 171" xmlns="http://www.w3.org/2000/svg">
    <title>
        PBS-shop
    </title>
    <path d="M56.136 22.48c.322-.221.712-.35 1.131-.35h139.729c1.107 0 2.004.898 2.004 2.003v66.4c0 .702-.359 1.32-.903 1.679a2 2 0 0 1-1.44.902L74.341 108.132l3.956 18.61h113.68a2 2 0 0 1 1.997 2.003v11.08a1.995 1.995 0 0 1-1.997 2.005h-11.676c5.646 2.179 9.653 7.663 9.653 14.082 0 8.333-6.751 15.088-15.078 15.088-8.327 0-15.077-6.755-15.077-15.088 0-6.42 4.006-11.903 9.653-14.082H80.759c5.647 2.179 9.653 7.663 9.653 14.082 0 8.333-6.75 15.088-15.077 15.088s-15.077-6.755-15.077-15.088c0-6.42 4.006-11.903 9.653-14.082h-1.914a1.997 1.997 0 0 1-1.845-1.237 1.983 1.983 0 0 1-.549-1.001L39.139 15.089H2.01c-1.11 0-2.01-.9-2.01-2.004V2.004A2 2 0 0 1 2.01 0h47.243c.617 0 1.169.278 1.537.714.498.27.878.747 1.003 1.338l4.343 20.428zm3.132 14.738h124.655v42.258L71.192 93.316 59.268 37.219z" fill-rule="evenodd"/>
</svg>
