<svg width="256" height="256" viewBox="0 0 256 256" xmlns="http://www.w3.org/2000/svg"><title>PBS-pinterest_circle</title><g transform="translate(50.912 51.912)" fill="none" fill-rule="evenodd"><circle stroke="#222" stroke-width="20" fill="#222" cx="76.088" cy="76.088" r="76"/><path d="M48.462 129.328c1.45-6.25 9.387-39.806 9.387-39.806s-2.398-4.798-2.398-11.884c0-11.148 6.454-19.452 14.494-19.452 6.832 0 10.128 5.127 10.128 11.282 0 6.861-4.374 17.142-6.63 26.666-1.885 7.965 4 14.462 11.856 14.462 14.24 0 25.183-15.007 25.183-36.671 0-19.174-13.775-32.584-33.456-32.584-22.787 0-36.159 17.096-36.159 34.759 0 6.884 2.652 14.264 5.958 18.273.655.799.75 1.486.554 2.298-.606 2.526-1.958 7.968-2.223 9.083-.35 1.469-1.158 1.774-2.681 1.073-9.997-4.657-16.254-19.284-16.254-31.028 0-25.256 18.358-48.458 52.917-48.458 27.777 0 49.366 19.793 49.366 46.257 0 27.588-17.4 49.809-41.545 49.809-8.128 0-15.75-4.222-18.36-9.198 0 0-4.018 15.292-4.994 19.035-1.806 6.96-7.796 17.691-9.952 20.997a6616.578 6616.578 0 0 0-2.368 3.632c-1.024 1.571-2.107 1.33-2.4-.551 0 0-.058-.032-.706-5.021-.65-4.983-1.33-16.056.283-22.973z" fill="#FFF"/></g></svg>