<?xml version="1.0" encoding="UTF-8" standalone="no"?>
<svg width="256px" height="256px" viewBox="0 0 256 256" version="1.1" xmlns="http://www.w3.org/2000/svg" xmlns:xlink="http://www.w3.org/1999/xlink">
    <!-- Generator: Sketch 39.1 (31720) - http://www.bohemiancoding.com/sketch -->
    <title>PBS-power_off</title>
    <desc>Created with Sketch.</desc>
    <defs></defs>
    <g id="Page-1" stroke="none" stroke-width="1" fill="none" fill-rule="evenodd">
        <g id="PBS-power_off">
            <g id="Page-1" transform="translate(50.000000, 42.000000)">
                <path d="M109.515025,24.5619914 L109.515025,43.3553638 C109.515025,43.8773586 109.780739,44.3603986 110.217603,44.6486645 C126.186189,55.2062049 136.686552,73.3552642 136.458352,93.898488 C136.111361,125.091965 110.729491,150.747621 79.4464423,151.504904 C46.5519203,152.30114 19.5374768,125.857038 19.5374768,93.2409303 C19.5374768,72.9680531 29.9839161,55.0924567 45.7829148,44.6486645 C46.2189972,44.3603986 46.4847105,43.8781377 46.4847105,43.3561429 L46.4847105,24.5619914 C46.4847105,23.4089282 45.2733705,22.6578789 44.2316182,23.158059 C17.3211155,36.0965192 -1.05061302,63.9889628 0.0466265073,95.9537453 C1.43615064,136.452754 34.2955047,169.369593 74.9129049,170.940252 C119.32219,172.657381 156,137.139138 156,93.2409303 C156,62.4159664 137.912741,35.7272273 111.764992,23.1572799 C110.724802,22.6570998 109.515025,23.4104864 109.515025,24.5619914" id="Fill-1" fill="#221F20"></path>
                <path d="M86,64.1975309 L70,64.1975309 C68.895,64.1975309 68,63.479321 68,62.5925926 L68,1.60493827 C68,0.718209877 68.895,0 70,0 L86,0 C87.105,0 88,0.718209877 88,1.60493827 L88,62.5925926 C88,63.479321 87.105,64.1975309 86,64.1975309" id="Fill-4" fill="#222222"></path>
            </g>
        </g>
    </g>
</svg>