<svg width="200" height="128" viewBox="0 0 200 128" xmlns="http://www.w3.org/2000/svg">
    <title>
        PBS-component_space
    </title>
    <path d="M0 1.991C0 .891.892 0 1.996 0h196.008C199.107 0 200 .898 200 1.991v16.018c0 1.1-.892 1.991-1.996 1.991H1.996A1.998 1.998 0 0 1 0 18.009V1.991zm0 108c0-1.1.892-1.991 1.996-1.991h196.008c1.103 0 1.996.898 1.996 1.991v16.018c0 1.1-.892 1.991-1.996 1.991H1.996A1.998 1.998 0 0 1 0 126.009v-16.018zm100.144-76.54l17.577 19.735c.735.824.426 1.492-.679 1.492H82.176c-1.109 0-1.412-.67-.679-1.492l17.577-19.735a.699.699 0 0 1 1.07 0zm.114 61.088l18.058-20.274c.469-.527.276-.953-.434-.953H81.564c-.709 0-.905.424-.434.953l18.058 20.274a.699.699 0 0 0 1.07 0z" fill-rule="evenodd"/>
</svg>
