<svg width="169" height="169" viewBox="0 0 169 169" xmlns="http://www.w3.org/2000/svg">
    <title>
        PBS-pause_circle
    </title>
    <path d="M157.771 42.111c-7.559-12.956-17.817-23.213-30.773-30.773C114.042 3.779 99.895 0 84.555 0c-15.34 0-29.488 3.779-42.444 11.338-12.956 7.56-23.213 17.817-30.772 30.773C3.78 55.067 0 69.214 0 84.555c0 15.339 3.78 29.487 11.34 42.443 7.558 12.956 17.815 23.214 30.771 30.773 12.956 7.558 27.104 11.338 42.444 11.338 15.34 0 29.487-3.78 42.443-11.338 12.956-7.559 23.214-17.817 30.773-30.773 7.56-12.956 11.338-27.104 11.338-42.443 0-15.341-3.779-29.488-11.338-42.444zm-41.63 90.446c0 1.103-1.049 2.291-2.142 2.291H96.99c-1.102 0-1.849-1.188-1.849-2.291V36.552c0-1.103.756-1.704 1.85-1.704H114c1.101 0 2.14.602 2.14 1.704v96.005zm-41 0c0 1.103-1.049 2.291-2.142 2.291H55.99c-1.102 0-1.849-1.188-1.849-2.291V36.552c0-1.103.756-1.704 1.85-1.704H73c1.101 0 2.14.602 2.14 1.704v96.005z" fill-rule="evenodd"/>
</svg>
