<svg width="111" height="167" viewBox="0 0 111 167" xmlns="http://www.w3.org/2000/svg">
    <title>
        PBS-countdown
    </title>
    <path d="M111.333 21.453V1.998a2 2 0 0 0-2.003-2H2.003A2.001 2.001 0 0 0 0 2v19.454C0 31.606 3.674 41.576 10.347 49.53l21.48 25.606c3.939 4.712 3.967 11.308.063 16.046l-21.78 26.4C3.59 125.488 0 135.362 0 145.382v19.624C0 166.107.896 167 2.003 167H109.33a2.004 2.004 0 0 0 2.003-1.995V145.38c0-10.02-3.597-19.888-10.11-27.793l-21.78-26.4c-3.91-4.737-3.883-11.335.063-16.046l21.48-25.605c6.666-7.954 10.347-17.932 10.347-28.084zM92 20c0 7.9-2.208 14.71-6.205 20.334l-5.95 8.374H31.154l-5.949-8.373C21.19 34.701 19 27.877 19 20h73zm-.323 126.125h-6.368c-11.637-13.917-29.642-13.917-29.642-13.917s-18.006 0-29.643 13.917h-6.368c0-7.683 2.065-14.189 5.978-19.686l18.779-26.392c2.053-2.888 3.427-6.165 4.268-9.581h.984v1.956a4.995 4.995 0 0 0 5.003 5.002h1.997a5.003 5.003 0 0 0 5.003-5.003v-1.956h.979c.846 3.416 2.214 6.694 4.267 9.575l18.785 26.4c3.913 5.504 5.978 12.002 5.978 19.685zm-36.304-33.9a5.5 5.5 0 1 0 0-11 5.5 5.5 0 0 0 0 11zm0 17a5.5 5.5 0 1 0 0-11 5.5 5.5 0 0 0 0 11z" fill-rule="evenodd"/>
</svg>
