<?xml version="1.0" encoding="UTF-8" standalone="no"?>
<svg width="256px" height="256px" viewBox="0 0 256 256" version="1.1" xmlns="http://www.w3.org/2000/svg" xmlns:xlink="http://www.w3.org/1999/xlink">
    <!-- Generator: Sketch 39.1 (31720) - http://www.bohemiancoding.com/sketch -->
    <title>PBS-component_form</title>
    <desc>Created with Sketch.</desc>
    <defs></defs>
    <g id="Page-1" stroke="none" stroke-width="1" fill="none" fill-rule="evenodd">
        <g id="PBS-component_form" fill="#222222">
            <g id="Group-2" transform="translate(28.000000, 95.000000)">
                <path d="M20,20 L20,98 L176,98 L176,25.9934587 C176,24.8925018 176.898212,24 177.990795,24 L194.009205,24 C195.108691,24 196,24.9040379 196,25.9934587 L196,116.406541 C196,117.507498 195.101788,118.4 194.009205,118.4 L177.990795,118.4 C177.543785,118.4 177.131184,118.250568 176.798902,118 L2.00372394,118 C1.44825753,118 0.945581724,117.773696 0.582650031,117.410099 C0.223882698,117.05336 0,116.552647 0,116.0014 L0,1.99859993 C0,1.445401 0.225612865,0.944696801 0.588234782,0.582821309 C0.944744154,0.225012284 1.44871094,0 2.00711042,0 L89.9928896,0 C91.1013861,0 92,0.898212381 92,1.99079514 L92,18.0092049 C92,19.1086907 91.1042531,20 89.9928896,20 L20,20 Z" id="Combined-Shape"></path>
            </g>
            <g id="Group" transform="translate(172.913884, 105.751588) rotate(-320.000000) translate(-172.913884, -105.751588) translate(160.413884, 33.251588)">
                <path d="M-3.12638804e-13,28.4693803 L24.1978014,28.4693803 L24.1978014,112.567993 L-3.12638804e-13,112.567993 L-3.12638804e-13,28.4693803 Z M-2.64321898e-12,124.457447 L24.1978014,124.457447 L14.4676115,142.545575 C13.1594087,144.977485 11.0358078,144.972679 9.73018989,142.545575 L-2.64321898e-12,124.457447 Z M-1.25055521e-12,3.46328356 C-1.25055521e-12,1.80320607 1.33544666,0.457447378 2.99139499,0.457447378 L21.2064064,0.457447378 C22.8585083,0.457447378 24.1978014,1.79366984 24.1978014,3.46328356 L24.1978014,19.0373735 L-1.25055521e-12,19.0373735 L-1.25055521e-12,3.46328356 Z" id="Combined-Shape"></path>
            </g>
        </g>
    </g>
</svg>