<svg width="256" height="256" viewBox="0 0 256 256" xmlns="http://www.w3.org/2000/svg"><title>PBS-component_video_line</title><g fill="#222" fill-rule="evenodd"><path d="M165.063 129.994c1.912-1.101 1.917-2.884 0-3.988l-7.82-4.505-46-26.5-7.778-4.48c-1.914-1.103-3.465-.207-3.465 2.002V163.477c0 2.209 1.552 3.105 3.465 2.003l7.779-4.481 46-26.5 7.82-4.505zm-21.74-.178c1.922-1.082 1.915-2.838 0-3.915l-2.249-1.264-23.363-13.136-2.225-1.25c-1.925-1.083-3.486-.17-3.486 2.04V143.426c0 2.209 1.56 3.123 3.486 2.04l2.225-1.25 23.363-13.137 2.248-1.263z"/><path d="M227 42c1.105 0 2 .905 2 1.991V212.01c0 1.1-.9 1.991-2 1.991H29c-1.105 0-2-.905-2-1.991V43.99c0-1.1.9-1.991 2-1.991h198zm-13 15v142H42V57h172z"/></g></svg>