<svg width="256" height="256" viewBox="0 0 256 256" xmlns="http://www.w3.org/2000/svg"><title>PBS-pinterest</title><path d="M90.04 175.41c1.883-8.114 12.19-51.682 12.19-51.682s-3.115-6.23-3.115-15.43c0-14.474 8.38-25.256 18.82-25.256 8.87 0 13.149 6.657 13.149 14.649 0 8.908-5.679 22.256-8.609 34.621-2.447 10.342 5.194 18.778 15.394 18.778 18.488 0 32.698-19.484 32.698-47.613 0-24.895-17.886-42.306-43.438-42.306-29.588 0-46.949 22.196-46.949 45.13 0 8.938 3.443 18.52 7.736 23.725.85 1.038.973 1.93.719 2.984-.787 3.28-2.543 10.346-2.887 11.794-.454 1.906-1.503 2.303-3.481 1.392-12.98-6.046-21.103-25.038-21.103-40.286 0-32.791 23.836-62.917 68.706-62.917 36.066 0 64.096 25.7 64.096 60.06 0 35.82-22.59 64.67-53.941 64.67-10.553 0-20.449-5.48-23.84-11.942 0 0-5.216 19.855-6.483 24.714-2.345 9.038-10.123 22.97-12.921 27.264l-3.075 4.715c-1.33 2.04-2.735 1.728-3.116-.716 0 0-.075-.04-.916-6.52-.844-6.469-1.729-20.846.367-29.827z" fill="#222" fill-rule="evenodd"/></svg>