<svg width="256" height="256" viewBox="0 0 256 256" xmlns="http://www.w3.org/2000/svg"><title>PBS-component_hero_carousel</title><g fill="#222" fill-rule="evenodd"><path d="M14.999 43A1.994 1.994 0 0 0 13 45v166c0 1.105.893 2 1.999 2H246a1.994 1.994 0 0 0 1.999-2V45c0-1.105-.893-2-1.999-2H15zm19.004 15A2.001 2.001 0 0 0 32 59.994v136.012c0 1.101.89 1.994 2.003 1.994H226.997a2.001 2.001 0 0 0 2.003-1.994V59.994c0-1.101-.89-1.994-2.003-1.994H34.003z"/><path stroke="#222" stroke-width="10" d="M28 203l55.728-53.947 37.816 17.105L163.34 128 233 203"/><circle cx="114" cy="95" r="19"/><path d="M50.677 127.742l13.984-13.984c.788-.787.785-2.05.005-2.832l-1.12-1.119a2.003 2.003 0 0 0-2.83.005l-16.45 16.449a1.999 1.999 0 0 0-.109 2.718c.093.181.216.351.367.503l16.449 16.448c.787.788 2.05.786 2.831.005l1.12-1.12c.779-.779.778-2.048-.005-2.83l-14.242-14.243zM210.323 127.742l-13.984-13.984a1.998 1.998 0 0 1-.005-2.832l1.12-1.119a2.003 2.003 0 0 1 2.83.005l16.45 16.449c.75.75.783 1.933.109 2.718-.093.181-.216.351-.367.503l-16.449 16.448a1.998 1.998 0 0 1-2.831.005l-1.12-1.12a2.003 2.003 0 0 1 .005-2.83l14.242-14.243z"/></g></svg>