<svg width="174" height="123" viewBox="0 0 174 123" xmlns="http://www.w3.org/2000/svg">
    <title>
        PBS-retweet
    </title>
    <path d="M156.872 81.49c.04-.154.06-.315.06-.48V1.99A2 2 0 0 0 154.94 0H61.896a1.997 1.997 0 0 0-2.008 1.991V18.01c0 1.093.9 1.991 2.007 1.991h75.036v61.01c0 .165.021.326.06.48h-15.922c-1.099 0-1.502.75-.893 1.672l25.942 39.356c.423.643 1.108.642 1.531 0l25.941-39.356c.61-.925.21-1.672-.893-1.672h-15.825zM17.003 41.51a1.954 1.954 0 0 0-.059.48v79.02c0 1.086.891 1.99 1.991 1.99h94.005a1.992 1.992 0 0 0 2.005-1.99v-16.02a2.002 2.002 0 0 0-2.005-1.99H36.944V41.99c0-.166-.02-.327-.059-.48h15.921c1.1 0 1.502-.75.893-1.673L27.757.482c-.423-.643-1.108-.642-1.53 0L.284 39.838c-.61.925-.209 1.672.893 1.672h15.825z" fill-rule="evenodd"/>
</svg>
