<?xml version="1.0" encoding="UTF-8" standalone="no"?>
<svg width="256px" height="256px" viewBox="0 0 256 256" version="1.1" xmlns="http://www.w3.org/2000/svg" xmlns:xlink="http://www.w3.org/1999/xlink">
    <!-- Generator: Sketch 39.1 (31720) - http://www.bohemiancoding.com/sketch -->
    <title>PBS-instagram</title>
    <desc>Created with Sketch.</desc>
    <defs></defs>
    <g id="Page-1" stroke="none" stroke-width="1" fill="none" fill-rule="evenodd">
        <g id="PBS-instagram" fill="#222222">
            <g id="instagram" transform="translate(42.500000, 42.500000)">
                <g id="Icons">
                    <g>
                        <g id="instagram">
                            <path d="M85.6397195,0.270275271 C62.3814072,0.270275271 59.4650621,0.368250057 50.3308842,0.785675183 C41.2151005,1.20197415 34.98976,2.64944833 29.5429629,4.76622915 C23.9111021,6.95470799 19.1351131,9.88306535 14.3741393,14.6440392 C9.6131655,19.405013 6.68480811,24.1813773 4.49670465,29.8128628 C2.37879768,35.2604109 0.931323498,41.4857511 0.515775298,50.6011597 C0.0987255567,59.7353373 0.000375385084,62.6513071 0.000375385084,85.9096193 C0.000375385084,109.168682 0.0987255567,112.084652 0.515775298,121.21883 C0.931323498,130.334238 2.37879768,136.559578 4.49670465,142.007127 C6.68480811,147.638612 9.6131655,152.414976 14.3741393,157.17595 C19.1351131,161.936924 23.9111021,164.865281 29.5429629,167.05376 C34.98976,169.170541 41.2151005,170.618015 50.3308842,171.034314 C59.4650621,171.450989 62.3814072,171.549714 85.6397195,171.549714 C108.898032,171.549714 111.814752,171.450989 120.94893,171.034314 C130.064338,170.618015 136.289679,169.170541 141.736851,167.05376 C147.368712,164.865281 152.144326,161.936924 156.9053,157.17595 C161.666273,152.414976 164.594631,147.638612 166.78311,142.007127 C168.900641,136.559578 170.348115,130.334238 170.764039,121.21883 C171.181089,112.084652 171.279064,109.168682 171.279064,85.9096193 C171.279064,62.6513071 171.181089,59.7353373 170.764039,50.6011597 C170.348115,41.4857511 168.900641,35.2604109 166.78311,29.8128628 C164.594631,24.1813773 161.666273,19.405013 156.9053,14.6440392 C152.144326,9.88306535 147.368712,6.95470799 141.736851,4.76622915 C136.289679,2.64944833 130.064338,1.20197415 120.94893,0.785675183 C111.814752,0.368250057 108.898032,0.270275271 85.6397195,0.270275271 L85.6397195,0.270275271 Z M85.6397195,15.7007404 C108.506508,15.7007404 111.214516,15.7878291 120.245463,16.1996234 C128.595092,16.5806365 133.129711,17.9763079 136.147409,19.1486268 C140.14523,20.702334 142.998136,22.5582244 145.994437,25.5549014 C148.991865,28.5519535 150.847755,31.4044839 152.400712,35.4019298 C153.573031,38.4196283 154.968702,42.9546218 155.349715,51.3038754 C155.76151,60.3348229 155.848974,63.0428309 155.848974,85.9096193 C155.848974,108.777159 155.76151,111.485167 155.349715,120.515363 C154.968702,128.865368 153.573031,133.400361 152.400712,136.418059 C150.847755,140.41513 148.991865,143.268036 145.994437,146.265088 C142.998136,149.261765 140.14523,151.117655 136.147409,152.670987 C133.129711,153.843681 128.595092,155.239353 120.245463,155.619615 C111.216018,156.03216 108.508385,156.118874 85.6397195,156.118874 C62.7710539,156.118874 60.0634213,156.03216 51.0339752,155.619615 C42.684722,155.239353 38.1497284,153.843681 35.13203,152.670987 C31.134584,151.117655 28.2816783,149.261765 25.2850013,146.265088 C22.2886999,143.268036 20.4328099,140.41513 18.8791023,136.418059 C17.706408,133.400361 16.311112,128.865368 15.9297236,120.515363 C15.5183046,111.485167 15.4308405,108.777159 15.4308405,85.9096193 C15.4308405,63.0428309 15.5183046,60.3348229 15.9297236,51.3038754 C16.311112,42.9546218 17.706408,38.4196283 18.8791023,35.4019298 C20.4328099,31.4044839 22.2886999,28.5519535 25.2850013,25.5549014 C28.2816783,22.5582244 31.134584,20.702334 35.13203,19.1486268 C38.1497284,17.9763079 42.684722,16.5806365 51.0339752,16.1996234 C60.064923,15.7878291 62.772931,15.7007404 85.6397195,15.7007404 L85.6397195,15.7007404 Z M85.6397195,41.9328312 C61.3521089,41.9328312 41.6629314,61.6223841 41.6629314,85.9096193 C41.6629314,110.197981 61.3521089,129.886783 85.6397195,129.886783 C109.92733,129.886783 129.616508,110.197981 129.616508,85.9096193 C129.616508,61.6223841 109.92733,41.9328312 85.6397195,41.9328312 L85.6397195,41.9328312 Z M85.6397195,114.456318 C69.8740379,114.456318 57.0930212,101.675676 57.0930212,85.9096193 C57.0930212,70.1439378 69.8740379,57.3632964 85.6397195,57.3632964 C101.405776,57.3632964 114.186418,70.1439378 114.186418,85.9096193 C114.186418,101.675676 101.405776,114.456318 85.6397195,114.456318 L85.6397195,114.456318 Z M141.631369,40.1951867 C141.631369,45.8705916 137.030308,50.4720281 131.354527,50.4720281 C125.679123,50.4720281 121.077686,45.8705916 121.077686,40.1951867 C121.077686,34.5194061 125.679123,29.9183453 131.354527,29.9183453 C137.030308,29.9183453 141.631369,34.5194061 141.631369,40.1951867 L141.631369,40.1951867 Z" id="instagram_icon"></path>
                        </g>
                    </g>
                </g>
            </g>
        </g>
    </g>
</svg>