<?xml version="1.0" encoding="UTF-8" standalone="no"?>
<svg width="256px" height="256px" viewBox="0 0 256 256" version="1.1" xmlns="http://www.w3.org/2000/svg" xmlns:xlink="http://www.w3.org/1999/xlink">
    <!-- Generator: Sketch 39.1 (31720) - http://www.bohemiancoding.com/sketch -->
    <title>PBS-text</title>
    <desc>Created with Sketch.</desc>
    <defs></defs>
    <g id="Page-1" stroke="none" stroke-width="1" fill="none" fill-rule="evenodd">
        <g id="PBS-text" fill="#000000">
            <g id="text" transform="translate(38.000000, 47.000000)">
                <g id="Icons">
                    <g>
                        <g id="text">
                            <path d="M158.302708,149.550757 C157.379584,148.980332 156.136112,146.95637 154.5736,143.473639 C151.660399,137.646408 149.353896,132.351661 147.65017,127.590706 C144.87949,120.057434 142.569064,114.230204 140.722816,110.109015 C136.675976,100.657754 133.267216,92.3080946 130.499151,85.0600348 C129.005939,81.1521009 124.604756,70.5992401 117.287755,53.4014527 L95.450509,2.23852526 C94.8034759,1.00222191 92.6761477,0 90.7353375,0 L88.6329891,0 L84.1705631,0 C82.2221255,0 80.0733926,1.47270665 79.3609489,3.31599339 L50.8149745,77.1722098 L25.5676609,142.833873 C23.5788907,146.528552 21.873857,148.946316 20.4538673,150.083241 C18.9632703,151.1469 15.0563371,152.249809 8.73568289,153.385425 C4.61562051,154.169106 3.63990173,154.47256 3.63990173,154.47256 C1.74734753,154.93215 0.172035753,156.928747 0.122743234,158.876801 L0.0903859793,160.155569 C0.0404671844,162.128373 1.5780686,163.727648 2.23720302,163.727648 C8.34472807,163.727648 14.275735,163.230488 20.0276089,162.23617 L25.1414025,161.384457 C45.2409263,162.805286 58.7765364,163.356352 58.7765364,163.356352 C60.7335536,163.444358 62.4749202,161.961177 62.5331587,160.638718 C62.5331587,158.506166 62.5038611,158.002047 62.5038611,158.002047 C62.4608266,156.043413 60.8727571,154.228129 58.9404814,153.941472 C58.9404814,153.941472 59.4970481,154.029116 58.1123618,153.815861 C56.7276759,153.602605 55.6620298,153.424675 54.9167311,153.283377 C54.1714328,153.143387 53.6915649,153.07143 53.4784357,153.07143 C48.008991,152.289058 44.3517982,151.152133 42.5055498,149.660655 C41.2986894,148.808943 40.6946054,147.280832 40.6946054,145.076323 C40.6946054,143.655494 41.5118186,140.672538 43.1449375,136.122222 C48.4718607,121.27155 52.9145891,110.223332 52.9145891,110.223332 C53.6376102,108.397868 55.8187736,106.925089 57.7488544,106.933622 L98.6383056,107.114399 C100.585176,107.123006 102.747191,108.577481 103.485277,110.407627 L111.964755,131.433225 L116.970022,143.583537 C117.396281,144.792419 117.608102,145.929344 117.608102,146.994312 C117.608102,148.059279 117.183152,149.019581 116.330635,149.871294 C115.478118,150.583017 113.064397,151.399405 109.085549,152.321766 L98.5788245,154.568347 C96.6734583,154.975758 95.0471712,156.909118 94.9467323,158.880309 L94.887332,160.046087 C94.7867492,162.020107 96.2642141,163.566552 98.227404,163.498788 L100.883343,163.407111 L122.189727,162.234861 C126.16596,162.093563 130.962021,162.020298 136.57268,162.020298 C143.387585,162.020298 150.099194,162.30551 156.7062,162.873318 C164.658666,163.441127 173.649548,163.631134 173.649548,163.631134 C175.588355,163.682992 177.236088,162.153393 177.264671,160.954022 C177.264671,159.675799 177.05574,158.405827 177.05574,158.405827 C176.818727,156.458301 175.080524,154.397556 173.242246,153.847103 C173.242246,153.847103 168.993165,152.429048 165.655012,152.002538 C162.31686,151.716017 159.86522,150.900937 158.302708,149.550757 Z M88.1531216,94.2797237 C85.4190527,94.2470158 81.1943871,94.193375 75.4765095,94.1214177 C69.7599391,94.0494603 62.6562102,93.9548867 62.6562102,93.9548867 C60.7056447,93.9290814 59.6862367,92.4200153 60.3691343,90.6112158 L75.9891093,49.2383928 C76.6765576,47.4175395 77.8869166,47.3693006 78.7143026,49.1921197 C78.7143026,49.1921197 83.2707626,59.0520608 87.0338661,68.4326722 C91.2964507,78.8076022 95.6124353,90.7718503 95.6124353,90.7718503 C96.2884692,92.6217653 95.2185666,94.2323571 93.7454752,94.3333644 L93.7454752,94.3333644 C92.751744,94.3333644 90.8871902,94.3150481 88.1531216,94.2797237 L88.1531216,94.2797237 Z" id="Shape"></path>
                        </g>
                    </g>
                </g>
            </g>
        </g>
    </g>
</svg>