<?xml version="1.0" encoding="UTF-8" standalone="no"?>
<svg width="256px" height="256px" viewBox="0 0 256 256" version="1.1" xmlns="http://www.w3.org/2000/svg" xmlns:xlink="http://www.w3.org/1999/xlink">
    <!-- Generator: Sketch 39.1 (31720) - http://www.bohemiancoding.com/sketch -->
    <title>PBS-component_logos</title>
    <desc>Created with Sketch.</desc>
    <defs></defs>
    <g id="Page-1" stroke="none" stroke-width="1" fill="none" fill-rule="evenodd">
        <g id="PBS-component_logos" fill="#222222">
            <g id="logos_component" transform="translate(44.774857, 44.774857)">
                <g transform="translate(-0.000000, -0.000000)" id="Icons">
                    <g>
                        <g id="logos_component">
                            <path d="M130.161765,167 C150.50696,167 167,150.50696 167,130.161765 C167,109.816569 150.50696,93.3235295 130.161765,93.3235295 C109.816569,93.3235295 93.3235295,109.816569 93.3235295,130.161765 C93.3235295,150.50696 109.816569,167 130.161765,167 L130.161765,167 Z M36.8382354,73.6764705 C57.1834309,73.6764705 73.6764705,57.1834309 73.6764705,36.8382354 C73.6764705,16.4930397 57.1834309,0 36.8382354,0 C16.4930397,0 0,16.4930397 0,36.8382354 C0,57.1834309 16.4930397,73.6764705 36.8382354,73.6764705 L36.8382354,73.6764705 Z" id="logo_icon"></path>
                        </g>
                    </g>
                </g>
            </g>
            <rect id="Rectangle-4" x="45" y="138" width="73" height="74" rx="5"></rect>
            <rect id="Rectangle-4-Copy" x="139" y="45" width="73" height="74" rx="5"></rect>
        </g>
    </g>
</svg>