<svg width="155" height="165" viewBox="0 0 155 165" xmlns="http://www.w3.org/2000/svg">
    <title>
        PBS-undo
    </title>
    <path d="M33.419 12.858C51.692-1.34 70.997-.176 74.559.183c5.036.255 48.74 3.618 70.108 43.452 10.414 19.414 12.644 41.719 6.28 62.809-6.362 21.09-20.558 38.442-39.971 48.854-19.215 10.308-40.733 12.199-60.298 6.956-20.662-5.536-39.145-19.028-50.437-38.962-.521-.921-.166-2.094.766-2.595l13.389-7.182c.913-.49 2.038-.148 2.555.75 17.017 29.62 54.753 40.553 85.049 24.302 14.944-8.016 25.872-21.372 30.77-37.607 4.899-16.235 3.182-33.406-4.834-48.35C110.98 21.004 75.01 19.2 73.52 19.142l-.484-.017-.478-.064c-.143-.02-13.75-1.518-26.921 8.358l11.024 13.139c.71.847.404 1.637-.688 1.76l-46.92 5.33c-.766.087-1.207-.441-.988-1.18L21.46 1.189c.31-1.05 1.142-1.221 1.854-.372l10.104 12.042z" fill-rule="evenodd"/>
</svg>
