<?xml version="1.0" encoding="UTF-8" standalone="no"?>
<svg width="256px" height="256px" viewBox="0 0 256 256" version="1.1" xmlns="http://www.w3.org/2000/svg" xmlns:xlink="http://www.w3.org/1999/xlink">
    <!-- Generator: Sketch 39.1 (31720) - http://www.bohemiancoding.com/sketch -->
    <title>PBS-history_emptyset</title>
    <desc>Created with Sketch.</desc>
    <defs></defs>
    <g id="Page-1" stroke="none" stroke-width="1" fill="none" fill-rule="evenodd">
        <g id="PBS-history_emptyset" fill="#222222">
            <g id="Page-1" transform="translate(70.500000, 92.000000) scale(-1, 1) translate(-70.500000, -92.000000) translate(40.000000, 63.000000)">
                <path d="M31.1226178,10.6198352 L54.3590711,45.6990389 C54.9717491,46.623976 54.5781156,47.3737856 53.4747255,47.3737856 L7.39222375,47.3737856 C6.29113519,47.3737856 5.89587543,46.6229566 6.50787819,45.6990389 L29.7443315,10.6198352 C30.1249347,10.0452527 30.7409768,10.0436861 31.1226178,10.6198352 Z" id="Triangle-2" transform="translate(30.433864, 28.781048) rotate(-213.000000) translate(-30.433864, -28.781048) "></path>
            </g>
            <g id="Page-1" transform="translate(141.000000, 128.500000) scale(-1, 1) translate(-141.000000, -128.500000) translate(67.000000, 43.000000)">
                <path d="M85.6294533,170.5625 C64.6785801,170.5625 43.686465,162.913114 27.2476494,147.469995 C10.6399385,131.870746 1.10226364,110.735267 0.390350296,87.9599312 C-0.320581098,65.1855779 7.87869672,43.4972607 23.4799094,26.8895498 C55.4924431,-7.18802353 100.057236,1.15167305 105.157482,2.24458278 C108.913438,2.85633728 129.504918,7.06988232 144.051517,27.5366545 C144.699604,28.4479036 144.484557,29.7126544 143.552687,30.3322645 L130.460355,39.0411741 C129.590348,39.6195423 128.411026,39.4172607 127.797308,38.5718023 C117.19029,23.9505751 102.254839,21.660669 102.101655,21.64103 L101.606753,21.5772033 L101.118724,21.4642791 C99.6153591,21.1255066 63.1948545,13.2964237 37.7937864,40.3353835 C25.7845447,53.1193832 19.4715918,69.8154695 20.0205015,87.3471948 C20.5674474,104.87892 27.9104653,121.147858 40.694465,133.1571 C66.6130205,157.504536 107.241178,156.683627 132.172875,131.64588 C132.928976,130.886833 134.144629,130.846573 134.926261,131.580089 L146.379719,142.340291 C147.177062,143.089519 147.218304,144.357215 146.45042,145.137865 C129.832889,162.031323 107.754738,170.5625 85.6294533,170.5625" id="Fill-1"></path>
            </g>
            <g id="Group" transform="translate(145.809398, 114.378680) rotate(-45.000000) translate(-145.809398, -114.378680) translate(106.809398, 75.378680)">
                <path d="M27.3978273,53.9061628 L27.3978273,12.7777594 C27.3978273,11.6755306 26.5002479,10.7783044 25.3930277,10.7783044 L15.4100184,10.7783044 C14.3018053,10.7783044 13.4052188,11.6734909 13.4052188,12.7777594 L13.4052188,65.8993164 C13.4052188,66.4499946 13.6292586,66.9495033 13.9915499,67.3115197 C14.3555718,67.6753447 14.855394,67.8987714 15.4073896,67.8987714 L62.8803153,67.8987714 C63.9890018,67.8987714 64.8824861,67.001192 64.8824861,65.8939717 L64.8824861,55.9109625 C64.8824861,54.8027493 63.9860837,53.9061628 62.8803153,53.9061628 L27.3978273,53.9061628 Z" id="Combined-Shape" transform="translate(39.143852, 39.338538) rotate(-315.000000) translate(-39.143852, -39.338538) "></path>
            </g>
        </g>
    </g>
</svg>