<svg width="139" height="139" viewBox="0 0 139 139" xmlns="http://www.w3.org/2000/svg" xmlns:xlink="http://www.w3.org/1999/xlink">
    <title>
        PBS-rss
    </title>
    <defs>
        <path id="a" d="M137.007.589H.147v136.536h136.86V.589z"/>
    </defs>
    <g fill="none" fill-rule="evenodd">
        <path d="M21.99 97.617c-11.042 0-19.99 8.881-19.99 19.87 0 10.987 8.948 19.888 19.99 19.888 11.055 0 20.01-8.9 20.01-19.889 0-10.988-8.955-19.869-20.01-19.869M.22 43.417L0 62.849c42.121-.806 75.813 33.132 75.012 75.562l18.973-.541C94.903 85.077 52.947 42.813.22 43.417" fill="#222"/>
        <g transform="translate(1 .411)">
            <mask id="b" fill="#fff">
                <use xlink:href="#a"/>
            </mask>
            <path d="M.472.59l-.326 19.5c65.112-.315 117.346 51.918 117.03 117.03l19.83.005C137.32 61.435 76.16.277.472.59" fill="#222" mask="url(#b)"/>
        </g>
    </g>
</svg>
