<?xml version="1.0" encoding="UTF-8" standalone="no"?>
<svg width="256px" height="256px" viewBox="0 0 256 256" version="1.1" xmlns="http://www.w3.org/2000/svg" xmlns:xlink="http://www.w3.org/1999/xlink">
    <!-- Generator: Sketch 39.1 (31720) - http://www.bohemiancoding.com/sketch -->
    <title>PBS-copy</title>
    <desc>Created with Sketch.</desc>
    <defs></defs>
    <g id="Page-1" stroke="none" stroke-width="1" fill="none" fill-rule="evenodd">
        <g id="PBS-copy" fill="#222222">
            <g id="Group" transform="translate(59.000000, 41.000000)">
                <g id="Group-2" transform="translate(44.000000, 40.000000)">
                    <path d="M14.3076923,47.0671141 L14.3076923,45.5177867 C14.3076923,44.4090704 13.4086216,43.5234899 12.2995616,43.5234899 L2.90236149,43.5234899 C1.79515394,43.5234899 0.894230769,44.416367 0.894230769,45.5177867 L0.894230769,131.005703 C0.894230769,131.558812 1.11798664,132.056388 1.47994416,132.416185 C1.84510293,132.778138 2.34398205,133 2.89486423,133 L90.1051358,133 C91.2030166,133 92.1057692,132.102857 92.1057692,130.996176 L92.1057692,123.034438 L92.1057692,8.97227298 L92.1057692,3.0038242 C92.1057692,1.89253614 91.2086894,1 90.1020854,1 L48.5036838,1 C47.3905436,1 46.5,1.89714266 46.5,3.0038242 L46.5,12.2847664 C46.5,12.5223137 46.54099,12.7498657 46.6162545,12.9608412 C46.5409994,13.1710391 46.5,13.3974373 46.5,13.6333649 L46.5,47.0671141 L14.3076923,47.0671141 Z M14.3076923,60.3557047 L14.3076923,119.711409 L78.6923077,119.711409 L78.6923077,14.2885906 L59.9134615,14.2885906 L59.9134615,52.8261693 L59.9134615,58.3518805 C59.9134615,59.458562 59.0100276,60.3557047 57.9159677,60.3557047 L14.3076923,60.3557047 Z" id="Combined-Shape"></path>
                    <path d="M21.8361542,-2.4062063 C21.8361542,-3.51285702 22.7370774,-4.40997467 23.8442849,-4.40997467 L33.241485,-4.40997467 C34.350545,-4.40997467 35.2496157,-3.52153873 35.2496157,-2.4062063 L35.2496157,58.1727455 C35.2496157,59.2793962 34.3486926,60.1765139 33.241485,60.1765139 L23.8442849,60.1765139 C22.7352249,60.1765139 21.8361542,59.2880779 21.8361542,58.1727455 L21.8361542,-2.4062063 Z" id="Rectangle-5-Copy" transform="translate(28.542885, 27.883270) rotate(-313.000000) translate(-28.542885, -27.883270) "></path>
                </g>
                <g id="Group-2-Copy">
                    <path d="M46.5,47.0671141 L46.5,13.6333649 C46.5,13.3974373 46.5409994,13.1710391 46.6162545,12.9608412 C46.54099,12.7498657 46.5,12.5223137 46.5,12.2847664 L46.5,3.0038242 C46.5,1.89714266 47.3905436,1 48.5036838,1 L90.1020854,1 C91.2086894,1 92.1057692,1.89253614 92.1057692,3.0038242 L92.1057692,8.97175765 L92.1057692,53.9251437 C92.1057692,55.0302825 91.2048461,55.9261745 90.0976385,55.9261745 L80.7004384,55.9261745 C79.5913784,55.9261745 78.6923077,55.0299547 78.6923077,53.9251437 L78.6923077,14.2885906 L59.9134615,14.2885906 L59.9134615,52.8261693 L59.9134615,58.3518805 C59.9134615,59.458562 59.0100276,60.3557047 57.9159677,60.3557047 L14.3076923,60.3557047 L14.3076923,119.711409 L51.6500318,119.711409 C52.7567079,119.711409 53.6538462,120.603946 53.6538462,121.715234 L53.6538462,130.996176 C53.6538462,132.102857 52.7602414,133 51.6500318,133 L2.89804516,133 C2.34628798,133 1.84661636,132.778139 1.48424579,132.417921 C1.11841566,132.057342 0.894230769,131.559342 0.894230769,131.005703 L0.894230769,45.5177867 C0.894230769,44.416367 1.79515394,43.5234899 2.90236149,43.5234899 L12.2995616,43.5234899 C13.4086216,43.5234899 14.3076923,44.4090704 14.3076923,45.5177867 L14.3076923,47.0671141 L46.5,47.0671141 Z" id="Combined-Shape"></path>
                    <path d="M21.8361542,-2.4062063 C21.8361542,-3.51285702 22.7370774,-4.40997467 23.8442849,-4.40997467 L33.241485,-4.40997467 C34.350545,-4.40997467 35.2496157,-3.52153873 35.2496157,-2.4062063 L35.2496157,58.1727455 C35.2496157,59.2793962 34.3486926,60.1765139 33.241485,60.1765139 L23.8442849,60.1765139 C22.7352249,60.1765139 21.8361542,59.2880779 21.8361542,58.1727455 L21.8361542,-2.4062063 Z" id="Rectangle-5-Copy" transform="translate(28.542885, 27.883270) rotate(-313.000000) translate(-28.542885, -27.883270) "></path>
                </g>
            </g>
        </g>
    </g>
</svg>