<svg width="233" height="233" viewBox="0 0 233 233" xmlns="http://www.w3.org/2000/svg">
    <title>
        PBS-move
    </title>
    <path d="M232.032 115.023l-43.897-29.375c-.919-.611-1.419-.208-1.419.895v18.049c-1-.005-.595-.163-.656-.163h-59.344V46.476c0-.057.122-.047.118-.047h18.33c1.111 0 1.503-.804.894-1.719L116.683.544c-.478-.716-1.249-.73-1.725-.015L85.583 44.718c-.611.919-.208 1.711.895 1.711h18.048c-.005 0 .19-.01.19.047v57.953H46.421c-.061 0 .295.158.295.163V86.543c0-1.103-.975-1.506-1.894-.895L.568 115.023c-.716.476-.777 1.248-.059 1.725l44.343 29.375c.915.609 1.864.217 1.864-.894v-18.331c0 .005-.356-.469-.295-.469h58.295v59.705c0 .057-.194.295-.189.295H86.478c-1.103 0-1.506.676-.895 1.595l29.375 44.104c.476.716 1.247.702 1.725-.016l29.375-44.08c.609-.915.217-1.603-.894-1.603h-18.33c.004 0-.118-.238-.118-.295v-59.705h59.344c.061 0-.344.474.656.469v18.331c0 1.111.504 1.503 1.419.894l44.016-29.375c.718-.477.597-1.249-.119-1.725" fill-rule="evenodd"/>
</svg>
