<?xml version="1.0" encoding="UTF-8" standalone="no"?>
<svg width="256px" height="256px" viewBox="0 0 256 256" version="1.1" xmlns="http://www.w3.org/2000/svg" xmlns:xlink="http://www.w3.org/1999/xlink">
    <!-- Generator: Sketch 39.1 (31720) - http://www.bohemiancoding.com/sketch -->
    <title>PBS-notification_line</title>
    <desc>Created with Sketch.</desc>
    <defs></defs>
    <g id="Page-1" stroke="none" stroke-width="1" fill="none" fill-rule="evenodd">
        <g id="PBS-notification_line">
            <g id="Page-1" transform="translate(47.000000, 43.000000)">
                <path d="M80.4995742,0 C74.9074688,0 69.8698046,2.0872703 65.9308026,6.03719875 C63.8441962,8.12959329 62.2788155,10.5311498 61.2678759,13.1615886 C53.9690117,15.4393095 47.7722163,19.1347345 42.7660641,24.2068696 C35.1299362,31.9453133 31.2582166,42.1724253 31.2582166,54.6038109 C31.2582166,67.1206004 28.9229207,79.174501 24.3179079,90.4324376 C19.7997662,101.478573 13.3227694,110.485264 4.51643841,117.96835 L0,121.806399 L0,127.741967 C0,133.990114 2.3634012,139.662638 6.83470078,144.14634 C11.3060003,148.630043 16.9636847,151 23.1945472,151 L59.6624665,151 L101.339237,151 L137.806305,151 C144.04398,151 149.702516,148.627481 154.172113,144.139508 C158.636599,139.662638 161,133.990114 161,127.741967 L161,121.807253 L156.485265,117.969204 C147.678934,110.485264 141.200234,101.476865 136.679537,90.4307296 C132.077079,79.173647 129.741783,67.1188924 129.741783,54.6038109 C129.741783,42.1724253 125.870916,31.9461673 118.236491,24.2077237 C113.226932,19.1338804 107.029285,15.4376015 99.7312724,13.1607346 C98.7194812,10.5294417 97.1532488,8.12703117 95.064939,6.03463664 C91.1327504,2.08897838 86.0942345,0 80.4995742,0 M86.0346172,15.095986 C88.3137006,16.8624329 88.3137006,23.6671175 88.3137006,23.6671175 C97.4308933,24.7551627 103.943662,27.9390183 109.155069,33.2178307 C114.363068,38.4966432 116.966642,45.6253033 116.966642,54.6038109 C116.966642,68.8619851 119.598321,82.4249719 124.860828,95.2944793 C130.128444,108.163987 137.916171,118.980385 148.224858,127.741967 C148.224858,130.571397 147.19433,133.019926 145.131571,135.087553 C143.071366,137.156889 140.627907,138.189421 137.806305,138.189421 L101.339237,138.189421 L59.6624665,138.189421 L23.1945472,138.189421 C20.3720925,138.189421 17.9303371,137.156035 15.8684293,135.087553 C13.8065214,133.019926 12.7751416,130.571397 12.7751416,127.741967 C23.0855326,118.980385 30.873259,108.163987 36.137469,95.2944793 C41.401679,82.4249719 44.0333582,68.8619851 44.0333582,54.6038109 C44.0333582,45.6253033 46.6377837,38.4966432 51.8474865,33.2178307 C57.0563376,27.9390183 63.5682539,24.7560167 72.6854467,23.6671175 C72.6854467,23.6671175 72.6854467,16.7296857 74.9645311,15.095986 C77.2436156,13.4622863 78.3295034,12.8105788 80.4995742,12.8105788 C82.6704966,12.8105788 83.7555338,13.3295391 86.0346172,15.095986 Z" id="Fill-1" fill="#000000"></path>
                <path d="M103,142 C103,154.702411 92.9262712,165 80.5,165 C68.0737288,165 58,154.702411 58,142" id="Stroke-4" stroke="#000000" stroke-width="13"></path>
            </g>
        </g>
    </g>
</svg>