<?xml version="1.0" encoding="UTF-8" standalone="no"?>
<svg width="256px" height="256px" viewBox="0 0 256 256" version="1.1" xmlns="http://www.w3.org/2000/svg" xmlns:xlink="http://www.w3.org/1999/xlink">
    <!-- Generator: Sketch 39.1 (31720) - http://www.bohemiancoding.com/sketch -->
    <title>PBS-favorite</title>
    <desc>Created with Sketch.</desc>
    <defs></defs>
    <g id="Page-1" stroke="none" stroke-width="1" fill="none" fill-rule="evenodd">
        <g id="PBS-favorite" fill="#222222">
            <g id="favorite" transform="translate(39.878045, 45.989709)">
                <path d="M171.844852,70.0910959 L134.18231,107.022383 L142.957367,159.310018 L142.957367,161.14108 C142.957367,162.603589 142.588814,164.066098 141.85756,164.797353 C141.126305,165.89716 140.39505,166.628415 138.932541,166.628415 C137.470031,166.628415 136.007522,165.89716 134.545013,165.165905 L87.7447126,140.665948 L40.9444125,165.165905 C39.4819031,165.89716 38.0193938,166.628415 36.5568844,166.628415 C35.094375,166.628415 33.994568,165.89716 33.2633133,164.797353 C32.5320586,164.066098 32.1635062,162.603589 32.1635062,161.14108 C32.1635062,160.772527 32.1635062,160.041273 32.5320586,159.310018 L41.3071149,107.022383 L3.28187104,70.0910959 C1.81936167,67.8973318 0.719554614,66.4348224 0.719554614,64.972313 C0.719554614,62.4099966 2.91331868,60.5847849 6.56959212,60.2162326 L59.2199297,52.5351333 L82.6200797,5.00357854 C84.0825891,2.07855978 85.5450985,0.616050407 87.7388626,0.616050407 C89.9326266,0.616050407 91.395136,2.07855978 92.8576454,5.00357854 L116.257795,52.5351333 L168.908133,60.2162326 C172.564406,60.5847849 174.758171,62.4099966 174.758171,64.972313 C174.769871,66.4348224 173.670064,68.2658842 171.844852,70.0910959 Z" id="Shape"></path>
            </g>
        </g>
    </g>
</svg>