<svg width="256" height="256" viewBox="0 0 256 256" xmlns="http://www.w3.org/2000/svg"><title>PBS-countdown</title><g fill="#222" fill-rule="evenodd"><path d="M182.46 66.227V46.774a2 2 0 0 0-2.003-2H73.13a2 2 0 0 0-2.003 2v19.453c0 10.153 3.674 20.124 10.347 28.077l21.48 25.607c3.939 4.71 3.967 11.307.063 16.046l-21.78 26.4c-6.52 7.904-10.11 17.778-10.11 27.798v19.625c0 1.102.896 1.995 2.003 1.995h107.327a2.005 2.005 0 0 0 2.003-1.995v-19.625c0-10.02-3.597-19.887-10.11-27.791l-21.78-26.4c-3.91-4.739-3.883-11.335.063-16.046l21.48-25.607c6.666-7.953 10.347-17.931 10.347-28.084zm-19.333-1.452c0 7.9-2.208 14.71-6.205 20.335l-5.95 8.373h-48.69l-5.95-8.373c-4.015-5.633-6.205-12.457-6.205-20.335h73zm-.323 126.125h-6.368c-11.637-13.917-29.642-13.917-29.642-13.917s-18.006 0-29.643 13.917h-6.368c0-7.682 2.065-14.188 5.978-19.685l18.78-26.393c2.052-2.888 3.426-6.165 4.267-9.582h.984v1.957a4.996 4.996 0 0 0 5.003 5.001h1.997a5.003 5.003 0 0 0 5.003-5.001v-1.957h.979c.846 3.417 2.214 6.694 4.267 9.575l18.785 26.4c3.913 5.504 5.978 12.003 5.978 19.685z"/><circle cx="126.5" cy="151.5" r="5.5"/><circle cx="126.5" cy="168.5" r="5.5"/></g></svg>