<svg width="256" height="256" viewBox="0 0 256 256" xmlns="http://www.w3.org/2000/svg"><title>PBS-component_embed</title><g fill="#222" fill-rule="evenodd"><path d="M36.543 125.905L79.01 83.438a2.001 2.001 0 0 0-.001-2.826l-8.337-8.337a1.998 1.998 0 0 0-2.826-.002l-52.073 52.073a2.001 2.001 0 0 0 .002 2.826l.113.112c.095.284.255.55.48.775l52.073 52.073c.777.776 2.045.779 2.826-.002l8.337-8.337a1.998 1.998 0 0 0 .001-2.826l-43.062-43.062zM219.766 125.9l-42.874-42.874a1.999 1.999 0 0 1 .005-2.827l8.436-8.436a2.003 2.003 0 0 1 2.827-.004l52.581 52.581c.78.78.778 2.045-.004 2.827l-.116.116c-.095.284-.254.55-.48.776l-52.582 52.582c-.779.78-2.045.777-2.826-.004l-8.437-8.437a2.003 2.003 0 0 1-.004-2.827l43.474-43.473zM146.847 69.034a2 2 0 0 1 2.652-.975l9.984 4.656a2 2 0 0 1 .958 2.658l-52.228 112.003a2 2 0 0 1-2.652.975l-9.984-4.656a2 2 0 0 1-.958-2.658l52.228-112.003z"/></g></svg>