<?xml version="1.0" encoding="UTF-8" standalone="no"?>
<svg width="256px" height="256px" viewBox="0 0 256 256" version="1.1" xmlns="http://www.w3.org/2000/svg" xmlns:xlink="http://www.w3.org/1999/xlink">
    <!-- Generator: Sketch 39.1 (31720) - http://www.bohemiancoding.com/sketch -->
    <title>PBS-passport_logo</title>
    <desc>Created with Sketch.</desc>
    <defs></defs>
    <g id="Page-1" stroke="none" stroke-width="1" fill="none" fill-rule="evenodd">
        <g id="PBS-passport_logo">
            <g id="passport-logo" transform="translate(42.000000, 42.000000)">
                <g id="passport-logo-copy-5">
                    <g id="Page-1">
                        <g id="Icons_pg1">
                            <g id="passport-logo-copy-5">
                                <rect id="Rectangle-100" fill="#000000" x="0" y="0" width="171.514355" height="171.745642" rx="15.9874468"></rect>
                                <path d="M85.6487261,134.823117 L74.3032243,97.5836996 L38.0021081,85.9564536 L74.3032243,74.3197282 L85.6487261,37.0897906 L96.9876255,74.3197282 L133.297985,85.9564536 L96.9876255,97.5836996 L85.6487261,134.823117 L85.6487261,134.823117 L85.6487261,134.823117 Z M101.741327,69.4445727 L105.681618,70.7012795 L115.137523,55.7169473 L100.517249,65.4185068 L101.741327,69.4445727 L101.741327,69.4445727 L101.741327,69.4445727 Z M69.5495224,69.4445727 L70.7762416,65.4185068 L56.1638902,55.715593 L65.6277184,70.7012795 L69.5495224,69.4445727 L69.5495224,69.4445727 L69.5495224,69.4445727 Z M101.741327,102.460209 L100.517249,106.493046 L115.137523,116.19596 L105.676336,101.202148 L101.741327,102.460209 L101.741327,102.460209 L101.741327,102.460209 Z M69.5495224,102.460209 L65.6250774,101.202148 L56.1638902,116.19596 L70.7762416,106.498463 L69.5495224,102.460209 L69.5495224,102.460209 L69.5495224,102.460209 Z M141.239309,85.9564536 C141.239309,117.436416 116.345756,142.967334 85.6487261,142.967334 C54.9477348,142.967334 30.0594645,117.436416 30.0594645,85.9564536 C30.0594645,54.4683658 54.9477348,28.9442181 85.6487261,28.9442181 C116.347077,28.9442181 141.239309,54.4683658 141.239309,85.9564536 L141.239309,85.9564536 L141.239309,85.9564536 Z M133.297985,85.9564536 C133.297985,59.0090315 111.926134,37.0897906 85.6487261,37.0897906 C59.37528,37.0897906 38.0021081,59.0090315 38.0021081,85.9564536 C38.0021081,112.902522 59.37528,134.823117 85.6487261,134.823117 C111.926134,134.823117 133.297985,112.902522 133.297985,85.9564536 L133.297985,85.9564536 L133.297985,85.9564536 Z" id="Fill-2" fill="#FFFFFF"></path>
                            </g>
                        </g>
                    </g>
                </g>
            </g>
        </g>
    </g>
</svg>