<svg width="213" height="172" viewBox="0 0 213 172" xmlns="http://www.w3.org/2000/svg">
    <title>
        PBS-component_ad_unit
    </title>
    <path d="M129.86 114H1.848C.75 114 0 114.598 0 115.697v16.018C0 132.808.747 134 1.848 134H129.86c1.098 0 2.14-1.185 2.14-2.285v-16.018c0-1.093-1.04-1.697-2.14-1.697zm0-37H1.848C.75 77 0 77.598 0 78.697v16.018C0 95.808.747 97 1.848 97H129.86c1.098 0 2.14-1.185 2.14-2.285V78.697c0-1.093-1.04-1.697-2.14-1.697zm0-77H1.848C.75 0 0 .6 0 1.702v53.501C0 56.295.747 57 1.848 57H129.86c1.098 0 2.14-.695 2.14-1.797V1.702C132 .609 130.96 0 129.86 0zm0 152H1.848C.75 152 0 152.598 0 153.697v16.018C0 170.808.747 172 1.848 172H129.86c1.098 0 2.14-1.185 2.14-2.285v-16.018c0-1.093-1.04-1.697-2.14-1.697zm81.003-75h-65.018c-1.093 0-1.845.598-1.845 1.697v16.018c0 1.093.745 2.285 1.845 2.285h65.018c1.093 0 2.137-1.185 2.137-2.285V78.697c0-1.093-1.037-1.697-2.137-1.697zm0 37h-65.018c-1.093 0-1.845.598-1.845 1.697v16.018c0 1.093.745 2.285 1.845 2.285h65.018c1.093 0 2.137-1.185 2.137-2.285v-16.018c0-1.093-1.037-1.697-2.137-1.697zm0-114h-65.018C144.752 0 144 .6 144 1.702v53.5c0 1.093.745 1.798 1.845 1.798h65.018c1.093 0 2.137-.695 2.137-1.798v-53.5C213 .61 211.963 0 210.863 0zm-18.976 36.583a2 2 0 0 1 .01 2.828l-2.338 2.34a2 2 0 0 1-2.828-.012l-8.377-8.377-8.377 8.377a2.001 2.001 0 0 1-2.828.011l-2.338-2.339a2 2 0 0 1 .01-2.828l8.377-8.377-8.377-8.377a2 2 0 0 1-.01-2.828l2.338-2.338a2 2 0 0 1 2.828.01l8.377 8.377 8.377-8.377a2 2 0 0 1 2.828-.01l2.338 2.338a2 2 0 0 1-.01 2.828l-8.377 8.377 8.377 8.377z" fill-rule="evenodd"/>
</svg>
