<svg width="256" height="256" viewBox="0 0 256 256" xmlns="http://www.w3.org/2000/svg"><title>PBS-logotype</title><g transform="translate(12 63)" fill="none" fill-rule="evenodd"><ellipse fill="#000" cx="64.87" cy="64.859" rx="64.87" ry="64.859"/><path d="M71.515 28.714H51.918c-16.104 0-29.281 11.26-29.281 27.925 0 13.963 8.446 23.984 21.06 25.899v19.48h26.128V83.326h3.604c4.28-.45 7.095-3.266 7.208-7.207V65.31h7.095L71.515 28.715zM66.334 60.13c-3.491 0-6.42-2.928-6.42-6.419 0-3.49 2.929-6.418 6.42-6.418s6.42 2.928 6.42 6.418c0 3.604-2.816 6.419-6.42 6.419zm27.142-31.416H82.889L98.882 65.31h-7.32v9.683c0 5.856-2.479 8.446-10.475 8.333v18.692h10.474V83.326h3.491c3.041.113 7.208-2.365 7.208-7.207V65.31h7.095l-15.88-36.595z" fill="#FFF"/><path d="M150.462 52.923h-4.505v-5.63h14.979c8.109 0 12.726 4.166 12.726 10.697 0 6.644-4.843 10.81-12.5 10.81h-4.055v8.445h5.293v5.63h-16.443v-5.63h4.618V52.923h-.113zm6.645 10.247h4.392c3.717 0 5.744-2.365 5.744-5.18 0-2.927-2.14-5.18-5.744-5.18h-4.392v10.36zm22.975-10.247h-4.055v-5.63h14.303c8.897 0 11.713 5.292 11.713 9.234 0 3.265-1.802 5.967-4.28 7.206 3.604 1.464 5.631 5.18 5.631 8.445 0 7.77-6.081 10.923-11.938 10.923h-15.88v-5.63h4.618V52.923h-.112zm6.532 24.435h4.167c3.378 0 5.743-1.914 5.743-5.067 0-2.703-1.802-5.067-5.743-5.067h-4.167v10.134zm0-15.764h3.941c2.928 0 4.956-1.69 4.956-4.392 0-2.59-1.915-4.279-4.956-4.279h-3.941v8.67zm37.728-8.783c-1.126-.45-2.703-.901-4.28-.901-4.392 0-5.744 2.477-5.744 4.504 0 2.59 1.69 3.378 3.717 3.941l3.83 1.013c4.617 1.352 9.797 3.04 9.797 10.36 0 6.756-4.054 11.598-13.064 11.598-3.491 0-7.095-.45-11.262-1.914v-9.346h6.532v4.616c1.69.789 3.491.901 5.293.901 3.83 0 5.631-2.027 5.631-4.73 0-1.8-.9-3.152-5.18-4.39l-3.492-1.014c-6.532-1.914-8.671-4.73-8.671-10.134 0-5.63 3.49-10.585 12.388-10.585 3.829 0 7.658.676 10.361 1.914v8.446h-5.969v-4.28h.113z" fill="#000"/></g></svg>