<svg width="256" height="256" viewBox="0 0 256 256" xmlns="http://www.w3.org/2000/svg"><title>PBS-rss</title><g fill="none" fill-rule="evenodd"><path d="M82.99 156.206c11.055 0 20.01 8.881 20.01 19.87 0 10.987-8.955 19.888-20.01 19.888-11.042 0-19.99-8.9-19.99-19.889 0-10.988 8.948-19.869 19.99-19.869z" fill="#000"/><path d="M63.996 56.267l-.667 19.492c65.108.82 116.422 53.957 114.97 119.054l19.828.35c1.634-75.671-58.449-137.889-134.131-138.896" fill="#1A1A1A"/><path d="M61.22 102.006L61 121.438c42.121-.806 75.813 33.132 75.013 75.562l18.972-.541c.918-52.793-41.038-95.057-93.766-94.453" fill="#1A1A1A"/></g></svg>