<?xml version="1.0" encoding="UTF-8" standalone="no"?>
<svg width="256px" height="256px" viewBox="0 0 256 256" version="1.1" xmlns="http://www.w3.org/2000/svg" xmlns:xlink="http://www.w3.org/1999/xlink">
    <!-- Generator: Sketch 39.1 (31720) - http://www.bohemiancoding.com/sketch -->
    <title>PBS-twitter</title>
    <desc>Created with Sketch.</desc>
    <defs></defs>
    <g id="Page-1" stroke="none" stroke-width="1" fill="none" fill-rule="evenodd">
        <g id="PBS-twitter" fill="#222222">
            <g id="twitter" transform="translate(26.202296, 45.000000)">
                <g transform="translate(0.000000, 0.000000)" id="Icons">
                    <g>
                        <g id="twitter">
                            <path d="M203.943571,19.6699182 C195.9209,23.1213666 187.895053,25.2767344 179.875558,26.1423762 C188.933823,20.7071001 195.060024,13.0290974 198.252573,3.10836801 C189.967828,8.02425934 181.125577,11.3883489 171.722644,13.2006372 C163.439486,4.40127114 153.261447,0 141.182173,0 C129.622284,0 119.766677,4.07566299 111.612174,12.2285773 C103.45926,20.3814916 99.3835966,30.2370993 99.3835966,41.7969881 C99.3835966,44.9021794 99.7282649,48.0947292 100.41919,51.3730491 C83.3366666,50.510584 67.3119726,46.2189077 52.3435207,38.4980201 C37.3750684,30.7755442 24.6715796,20.4879101 14.2330538,7.63352956 C10.4369374,14.1028105 8.53887929,21.1343615 8.53887929,28.7265941 C8.53887929,35.8868004 10.2209242,42.5307982 13.5866022,48.6554109 C16.9506919,54.780024 21.4806181,59.7403885 27.1747928,63.5365048 C20.4450249,63.2776066 14.1472838,61.5082032 8.28156932,58.2298837 L8.28156932,58.7476801 C8.28156932,68.8415376 11.4518824,77.704437 17.7925085,85.3411427 C24.1331347,92.9778489 32.1351573,97.7857334 41.7969881,99.7695618 C38.1740003,100.717797 34.5065389,101.192708 30.7977806,101.192708 C28.3819258,101.192708 25.7500577,100.976695 22.9037649,100.547845 C25.5785179,108.915185 30.4959975,115.794255 37.6562034,121.186647 C44.8164097,126.580626 52.9264388,129.360209 61.984703,129.534926 C46.8018261,141.437895 29.5048775,147.390968 10.0938575,147.390968 C6.38351112,147.390968 3.01942141,147.221016 0,146.874759 C19.41102,159.382883 40.8058684,165.636151 64.1861332,165.636151 C79.0243418,165.636151 92.9572005,163.287006 105.981533,158.58554 C119.01063,153.884074 130.138493,147.586333 139.369885,139.690728 C148.599689,131.798301 156.558827,122.7178 163.244122,112.450814 C169.929416,102.185417 174.910429,91.4673441 178.190337,80.2950081 C181.468657,69.1210843 183.107816,57.9296885 183.107816,46.7128794 C183.107816,44.2970246 183.064932,42.4863247 182.977573,41.2776033 C191.174961,35.3277071 198.163627,28.1230276 203.943571,19.6699182 L203.943571,19.6699182 L203.943571,19.6699182 Z" id="twitter_icon"></path>
                        </g>
                    </g>
                </g>
            </g>
        </g>
    </g>
</svg>