<svg width="155" height="170" viewBox="0 0 155 170" xmlns="http://www.w3.org/2000/svg">
    <title>
        PBS-history_emptyset
    </title>
    <path d="M28.067 37.23l12.235 7.944c.925.601.847 1.444-.17 1.886L1.537 63.825c-.634.275-1.15-.062-1.156-.75L0 20.998c-.01-1.108.73-1.523 1.654-.923l9.911 6.436C26.091 6.444 46.4 2.29 50.128 1.682c5.1-1.093 49.665-9.433 81.678 24.645 15.601 16.608 23.8 38.296 23.09 61.07-.713 22.776-10.25 43.911-26.858 59.51C111.6 162.351 90.608 170 69.656 170c-22.125 0-44.203-8.53-60.82-25.425-.769-.78-.728-2.048.07-2.797l11.453-10.76c.782-.734 1.997-.694 2.754.065 24.931 25.038 65.56 25.86 91.478 1.511 12.784-12.009 20.127-28.278 20.674-45.809.55-17.532-5.764-34.228-17.773-47.012-25.4-27.039-61.822-19.21-63.325-18.87l-.488.112-.495.063c-.15.02-14.554 2.228-25.117 16.151zm50.536 48.836V44.938c0-1.103-.898-2-2.005-2h-9.983a2.001 2.001 0 0 0-2.005 2V98.06c0 .551.224 1.05.586 1.412.364.364.864.588 1.416.588h47.473a2.002 2.002 0 0 0 2.002-2.005v-9.983a2.003 2.003 0 0 0-2.002-2.005H78.603z" fill-rule="evenodd"/>
</svg>
