<svg width="256" height="256" viewBox="0 0 256 256" xmlns="http://www.w3.org/2000/svg"><title>PBS-info</title><path d="M114.117 178.845c-5.593 0-9.988-3.595-5.993-18.776l6.392-27.166c1.199-4.395 1.199-5.993 0-5.993-1.598 0-9.188 3.196-13.583 5.993l-2.796-4.794c13.982-11.586 29.962-18.377 36.754-18.377 5.593 0 6.791 6.791 3.995 17.178l-7.59 28.365c-1.2 5.193-.8 6.791.399 6.791 1.598 0 7.19-1.997 12.784-6.392l3.196 4.395c-13.184 13.583-27.965 18.776-33.558 18.776M135.69 72.18c8.39 0 10.786 4.794 10.786 10.387 0 6.791-5.593 13.183-15.18 13.183-7.99 0-11.586-3.995-11.586-10.387.4-5.193 4.794-13.183 15.98-13.183m-90.687 56.33c.8 45.542 37.953 81.897 83.496 81.497 45.543-.799 81.897-37.952 81.498-83.495-.4-45.943-37.953-82.297-83.496-81.498-45.543.799-81.897 37.952-81.498 83.495z" fill="#1A1A1A" fill-rule="evenodd"/></svg>