<?xml version="1.0" encoding="UTF-8" standalone="no"?>
<svg width="256px" height="256px" viewBox="0 0 256 256" version="1.1" xmlns="http://www.w3.org/2000/svg" xmlns:xlink="http://www.w3.org/1999/xlink">
    <!-- Generator: Sketch 39.1 (31720) - http://www.bohemiancoding.com/sketch -->
    <title>PBS-pinterest</title>
    <desc>Created with Sketch.</desc>
    <defs></defs>
    <g id="Page-1" stroke="none" stroke-width="1" fill="none" fill-rule="evenodd">
        <g id="PBS-pinterest" fill="#222222">
            <g id="pinterest" transform="translate(61.064914, 42.884389)">
                <g transform="translate(0.000000, 0.000000)" id="Icons">
                    <g>
                        <g id="pinterest">
                            <path d="M28.9759896,132.526458 C30.8584246,124.41138 41.1641925,80.8434896 41.1641925,80.8434896 C41.1641925,80.8434896 38.0504687,74.61431 38.0504687,65.4134112 C38.0504687,50.9392708 46.4305079,40.1572654 56.8696225,40.1572654 C65.7397525,40.1572654 70.0189583,46.8141925 70.0189583,54.806315 C70.0189583,63.7145442 64.3404817,77.0630337 61.4103254,89.4278775 C58.9633333,99.7700129 66.6039062,108.205469 76.8040362,108.205469 C95.2924217,108.205469 109.501602,88.721315 109.501602,60.5921617 C109.501602,35.6979558 91.6158725,18.2867317 66.0635937,18.2867317 C36.4762892,18.2867317 19.1152862,40.4828388 19.1152862,63.4166796 C19.1152862,72.3543492 22.5580467,81.9362371 26.8511067,87.14194 C27.7014062,88.1792708 27.8243621,89.0711329 27.5697917,90.1257813 C26.7835675,93.4057554 25.0275521,100.47138 24.6829296,101.919141 C24.2292058,103.82582 23.1797525,104.222396 21.2020704,103.311485 C8.22244792,97.2658725 0.0987108267,78.2735417 0.0987108267,63.0252996 C0.0987108267,30.2342188 23.9348046,0.108333333 68.8049871,0.108333333 C104.870846,0.108333333 132.901289,25.8078125 132.901289,60.1678775 C132.901289,95.9878254 110.310338,124.839127 78.9600913,124.839127 C68.4066796,124.839127 58.5113413,119.358073 55.1205337,112.896836 C55.1205337,112.896836 49.90444,132.751589 48.6367837,137.610938 C46.2919663,146.64905 38.5145833,160.581146 35.7160417,164.874206 C32.9157683,169.167266 32.6412488,169.589446 32.6412488,169.589446 C31.3113508,171.629718 29.9062474,171.317276 29.5250517,168.873828 C29.5250517,168.873828 29.4504946,168.833034 28.6088542,162.354479 C27.7654817,155.884583 26.8805467,141.507422 28.9759896,132.526458 L28.9759896,132.526458 Z" id="pinterest_icon"></path>
                        </g>
                    </g>
                </g>
            </g>
        </g>
    </g>
</svg>