<svg width="256" height="256" viewBox="0 0 256 256" xmlns="http://www.w3.org/2000/svg"><title>PBS-favorite</title><path d="M211.723 116.08l-37.663 36.932 8.775 52.288v1.83c0 1.463-.368 2.926-1.1 3.657-.73 1.1-1.462 1.831-2.924 1.831-1.463 0-2.925-.731-4.388-1.462l-46.8-24.5-46.8 24.5c-1.463.73-2.926 1.462-4.388 1.462-1.463 0-2.562-.731-3.294-1.83-.73-.732-1.1-2.195-1.1-3.657 0-.369 0-1.1.37-1.831l8.774-52.288-38.025-36.931c-1.463-2.194-2.562-3.656-2.562-5.119 0-2.562 2.193-4.388 5.85-4.756l52.65-7.681 23.4-47.532c1.463-2.925 2.925-4.387 5.119-4.387s3.656 1.462 5.119 4.387l23.4 47.532 52.65 7.68c3.656.37 5.85 2.195 5.85 4.757.012 1.463-1.088 3.294-2.913 5.119z" fill="#222" fill-rule="evenodd"/></svg>