<svg width="159" height="171" viewBox="0 0 159 171" xmlns="http://www.w3.org/2000/svg">
    <title>
        PBS-notification
    </title>
    <path d="M131.606 96.58c-6.179-15.067-9.269-30.95-9.269-47.643 0-10.514-3.057-18.86-9.172-25.042-6.119-6.181-14.53-9.91-25.235-11.183a8.644 8.644 0 0 0 .764-3.536c0-2.55-.892-4.717-2.676-6.5C84.235.892 82.068 0 79.519 0c-2.548 0-4.715.892-6.499 2.676-1.784 1.785-2.676 3.95-2.676 6.5 0 1.21.255 2.389.765 3.536-10.705 1.275-19.116 5.002-25.232 11.183-6.117 6.182-9.175 14.528-9.175 25.042 0 16.694-3.09 32.576-9.271 47.644C21.25 111.65 12.106 124.316 0 134.575c0 3.312 1.211 6.18 3.632 8.6 2.421 2.422 5.288 3.633 8.602 3.633h42.819c0 6.755 2.388 12.522 7.167 17.3 4.78 4.778 10.547 7.167 17.3 7.167 6.755 0 12.522-2.39 17.299-7.167 4.779-4.778 7.169-10.545 7.169-17.3h42.818c3.313 0 6.182-1.21 8.601-3.632 2.422-2.421 3.632-5.29 3.632-8.601-12.104-10.26-21.248-22.924-27.433-37.994" fill-rule="evenodd"/>
</svg>
