<?xml version="1.0" encoding="UTF-8" standalone="no"?>
<svg width="256px" height="256px" viewBox="0 0 256 256" version="1.1" xmlns="http://www.w3.org/2000/svg" xmlns:xlink="http://www.w3.org/1999/xlink">
    <!-- Generator: Sketch 39.1 (31720) - http://www.bohemiancoding.com/sketch -->
    <title>PBS-component_photo_gallery</title>
    <desc>Created with Sketch.</desc>
    <defs></defs>
    <g id="Page-1" stroke="none" stroke-width="1" fill="none" fill-rule="evenodd">
        <g id="PBS-component_photo_gallery" fill="#222222">
            <g id="Group" transform="translate(43.000000, 43.000000)">
                <polyline id="Path-21" stroke="#222222" stroke-width="10" points="21 155 58.7864078 100.333333 84.4271845 117.666667 112.76699 79 160 155"></polyline>
                <circle id="Oval-10" cx="54.5" cy="52.5" r="17.5"></circle>
                <path d="M1.99391719,0 C0.892707136,0 0,0.88743329 0,1.99961498 L0,10 L0,160 L0,168.000385 C0,169.104742 0.89782938,170 1.99391719,170 L9.18918919,170 L160.810811,170 L168.006083,170 C169.107293,170 170,169.112567 170,168.000385 L170,160 L170,10 L170,1.99961498 C170,0.895258123 169.102171,0 168.006083,0 L160.810811,0 L9.18918919,0 L1.99391719,0 Z M19.3454789,17.3469388 C18.2417157,17.3469388 17.3469388,18.2444867 17.3469388,19.3553769 L17.3469388,25.3061224 L17.3469388,144.693878 L17.3469388,150.644623 C17.3469388,151.753853 18.2437597,152.653061 19.3454789,152.653061 L24.6607832,152.653061 L145.339217,152.653061 L150.654521,152.653061 C151.758284,152.653061 152.653061,151.755513 152.653061,150.644623 L152.653061,144.693878 L152.653061,25.3061224 L152.653061,19.3553769 C152.653061,18.2461471 151.75624,17.3469388 150.654521,17.3469388 L145.339217,17.3469388 L24.6607832,17.3469388 L19.3454789,17.3469388 Z" id="Combined-Shape"></path>
            </g>
            <g id="Group" transform="translate(10.000000, 108.000000)">
                <path d="M11.9789381,27.971927 L11.9789381,8.19517752 C11.9789381,7.08165565 11.083979,6.18974876 9.979991,6.18974876 L8.39732709,6.18974876 C7.29499321,6.18974876 6.39838002,7.0876098 6.39838002,8.19517752 L6.39838002,31.4570473 C6.39838002,32.5184083 7.21145747,33.3784303 8.24363073,33.4566736 C8.43734862,33.5188766 8.64392113,33.552485 8.85835422,33.552485 L32.120224,33.552485 C33.2337459,33.552485 34.1256527,32.6575259 34.1256527,31.553538 L34.1256527,29.9708741 C34.1256527,28.8685402 33.2277917,27.971927 32.120224,27.971927 L11.9789381,27.971927 Z" id="Combined-Shape" transform="translate(20.262016, 19.871117) rotate(-315.000000) translate(-20.262016, -19.871117) "></path>
            </g>
            <g id="Group" transform="translate(226.000000, 128.000000) scale(-1, 1) translate(-226.000000, -128.000000) translate(206.000000, 108.000000)">
                <path d="M11.9789381,27.971927 L11.9789381,8.19517752 C11.9789381,7.08165565 11.083979,6.18974876 9.979991,6.18974876 L8.39732709,6.18974876 C7.29499321,6.18974876 6.39838002,7.0876098 6.39838002,8.19517752 L6.39838002,31.4570473 C6.39838002,32.5184083 7.21145747,33.3784303 8.24363073,33.4566736 C8.43734862,33.5188766 8.64392113,33.552485 8.85835422,33.552485 L32.120224,33.552485 C33.2337459,33.552485 34.1256527,32.6575259 34.1256527,31.553538 L34.1256527,29.9708741 C34.1256527,28.8685402 33.2277917,27.971927 32.120224,27.971927 L11.9789381,27.971927 Z" id="Combined-Shape" transform="translate(20.262016, 19.871117) rotate(-315.000000) translate(-20.262016, -19.871117) "></path>
            </g>
        </g>
    </g>
</svg>