<svg width="256" height="256" viewBox="0 0 256 256" xmlns="http://www.w3.org/2000/svg"><title>PBS-tumblr_box</title><path d="M71.283 42.736c-15.702 0-28.547 12.845-28.547 28.547v114.17C42.736 201.165 55.58 214 71.283 214h114.18C201.161 214 214 201.166 214 185.452V71.283c0-15.697-12.84-28.547-28.537-28.547H71.283zm93.832 137.926c-5.042 2.371-9.623 4.046-13.717 5.01-4.095.953-8.526 1.429-13.279 1.429-5.405 0-8.59-.68-12.743-2.04-4.148-1.37-7.696-3.323-10.618-5.833-2.938-2.531-4.967-5.218-6.101-8.06-1.135-2.842-1.697-6.974-1.697-12.38v-41.445H90.904v-16.736c4.64-1.504 10.024-3.666 13.326-6.481 3.319-2.82 5.973-6.198 7.975-10.148 2.007-3.939 3.388-8.97 4.142-15.065h16.811V96.25h27.322v21.092h-27.327v30.303c0 6.856-.091 10.81.637 12.754.722 1.932 2.531 3.939 4.5 5.1 2.618 1.568 5.604 2.35 8.97 2.35 5.984 0 11.94-1.943 17.855-5.834v18.646z" fill="#222" fill-rule="evenodd"/></svg>