<svg width="256" height="256" viewBox="0 0 256 256" xmlns="http://www.w3.org/2000/svg"><title>PBS-share</title><g fill="#222" fill-rule="evenodd"><path d="M181.826 122v71H69v-71h20.998A1.998 1.998 0 0 0 92 120.01v-16.02a2 2 0 0 0-2.002-1.99H51.002c-.554 0-1.056.224-1.419.587a1.992 1.992 0 0 0-.583 1.41v107.006A1.994 1.994 0 0 0 51.006 213h148.83c1.092 0 1.99-.894 1.99-1.997V103.997a1.994 1.994 0 0 0-1.99-1.997h-39.399a1.998 1.998 0 0 0-2.002 1.99v16.02a2 2 0 0 0 2.002 1.99h21.39zM115 83.994c0-1.101.898-1.994 1.99-1.994h16.02c1.099 0 1.99.893 1.99 1.994v72.012a1.997 1.997 0 0 1-1.99 1.994h-16.02c-1.099 0-1.99-.893-1.99-1.994V83.994z"/><path d="M125.89 42.482l25.986 39.356c.61.923.206 1.672-.896 1.672H99.268c-1.104 0-1.506-.747-.895-1.672l25.984-39.356c.424-.642 1.11-.643 1.534 0z"/></g></svg>