<?xml version="1.0" encoding="UTF-8" standalone="no"?>
<svg width="256px" height="256px" viewBox="0 0 256 256" version="1.1" xmlns="http://www.w3.org/2000/svg" xmlns:xlink="http://www.w3.org/1999/xlink">
    <!-- Generator: Sketch 39.1 (31720) - http://www.bohemiancoding.com/sketch -->
    <title>PBS-help_line</title>
    <desc>Created with Sketch.</desc>
    <defs></defs>
    <g id="Page-1" stroke="none" stroke-width="1" fill="none" fill-rule="evenodd">
        <g id="PBS-help_line">
            <g id="help" transform="translate(95.324571, 78.324571)" fill="#222222">
                <path d="M32.6815075,101.303258 C26.6203648,101.303258 21.7046972,96.3875905 21.7046972,90.323948 C21.7046972,84.2640548 26.6203648,79.350054 32.6815075,79.350054 C38.7439002,79.350054 43.6579011,84.2640548 43.6579011,90.323948 C43.6579011,96.3875905 38.7439002,101.303258 32.6815075,101.303258 L32.6815075,101.303258 L32.6815075,101.303258 Z M41.3111146,68.8578518 L41.3111146,70.832536 L23.2172745,70.832536 L23.2172745,68.8578518 C23.2172745,63.2709 24.032316,56.1030341 30.5188971,49.8714661 C37.0063115,43.638648 45.1129753,38.4908853 45.1129753,30.7054879 C45.1129753,22.0987986 39.1397538,17.5460663 31.6085361,17.5460663 C19.0595623,17.5460663 18.2391036,30.5608972 17.9299212,33.4268768 L0.331939746,33.4268768 C0.800713696,19.8553508 6.53683979,0.87229856 31.7147915,0.87229856 C53.5338217,0.87229856 63.3434895,15.4855444 63.3434895,29.1891605 C63.3434895,51.0015238 41.3111146,54.7904672 41.3111146,68.8578518 L41.3111146,68.8578518 L41.3111146,68.8578518 Z" id="help-3-icon"></path>
            </g>
            <circle id="Oval-5" stroke="#222222" stroke-width="20" cx="127" cy="128" r="76"></circle>
        </g>
    </g>
</svg>