<svg width="256" height="256" viewBox="0 0 256 256" xmlns="http://www.w3.org/2000/svg"><title>PBS-notification</title><path d="M179.151 139.218c-6.179-15.068-9.269-30.95-9.269-47.644 0-10.514-3.057-18.86-9.172-25.042-6.119-6.18-14.53-9.909-25.235-11.183a8.645 8.645 0 0 0 .764-3.536c0-2.549-.892-4.717-2.676-6.5-1.783-1.784-3.95-2.676-6.499-2.676-2.548 0-4.715.892-6.499 2.676-1.784 1.785-2.676 3.951-2.676 6.5 0 1.211.255 2.389.765 3.536-10.705 1.275-19.116 5.002-25.232 11.183-6.117 6.182-9.175 14.528-9.175 25.042 0 16.694-3.09 32.576-9.271 47.644-6.181 15.07-15.325 27.735-27.431 37.994 0 3.312 1.21 6.18 3.632 8.6 2.421 2.422 5.288 3.633 8.602 3.633h42.819c0 6.755 2.388 12.522 7.167 17.3 4.78 4.778 10.547 7.167 17.3 7.167 6.755 0 12.522-2.39 17.299-7.167 4.78-4.778 7.169-10.545 7.169-17.3h42.818c3.313 0 6.182-1.21 8.601-3.632 2.422-2.421 3.632-5.289 3.632-8.601-12.104-10.26-21.248-22.924-27.433-37.994z" fill="#222" fill-rule="evenodd"/></svg>