<svg width="156" height="171" viewBox="0 0 156 171" xmlns="http://www.w3.org/2000/svg">
    <title>
        PBS-power_off
    </title>
    <path d="M109.515 24.562v18.793c0 .522.266 1.005.703 1.294 15.968 10.557 26.469 28.706 26.24 49.25-.347 31.193-25.728 56.85-57.012 57.606-32.894.796-59.908-25.648-59.908-58.264 0-20.273 10.446-38.149 26.245-48.592.436-.289.702-.77.702-1.293V24.562c0-1.153-1.212-1.904-2.253-1.404C17.32 36.096-1.051 63.99.047 95.954c1.389 40.5 34.249 73.416 74.866 74.986C119.322 172.657 156 137.14 156 93.241c0-30.825-18.087-57.514-44.235-70.084-1.04-.5-2.25.254-2.25 1.405M86 64.197H70c-1.105 0-2-.718-2-1.604V1.605C68 .718 68.895 0 70 0h16c1.105 0 2 .718 2 1.605v60.988c0 .886-.895 1.604-2 1.604" fill-rule="evenodd"/>
</svg>
