<?xml version="1.0" encoding="UTF-8" standalone="no"?>
<svg width="256px" height="256px" viewBox="0 0 256 256" version="1.1" xmlns="http://www.w3.org/2000/svg" xmlns:xlink="http://www.w3.org/1999/xlink">
    <!-- Generator: Sketch 39.1 (31720) - http://www.bohemiancoding.com/sketch -->
    <title>PBS-wifi</title>
    <desc>Created with Sketch.</desc>
    <defs></defs>
    <g id="Page-1" stroke="none" stroke-width="1" fill="none" fill-rule="evenodd">
        <g id="PBS-wifi">
            <g id="Page-1" transform="translate(33.000000, 8.000000)">
                <path d="M95.9901386,152 C107.045229,152 116,160.881135 116,171.869113 C116,182.85678 107.045229,191.757576 95.9901386,191.757576 C84.9481964,191.757576 76,182.85678 76,171.869113 C76,160.881135 84.9481964,152 95.9901386,152 L95.9901386,152 Z" id="Fill-1" fill="#000000"></path>
                <path d="M38,140.196721 L49.5932203,152 C74.7118644,126.032787 115.674576,126.032787 140.79322,152 L152,140.196721 C120.698305,107.934426 69.6881356,107.934426 38,140.196721" id="Fill-1" fill="#1A1A1A"></path>
                <path d="M16,114.387097 L27.094431,126 C64.5859564,87.6774194 125.031477,87.6774194 162.523002,126 L174,114.387097 C130.387409,69.8709677 59.6125908,69.8709677 16,114.387097" id="Fill-5" fill="#1A1A1A"></path>
                <path d="M162,28 C87.9938435,28 28,87.9938435 28,162" id="Oval" stroke="#222222" stroke-width="15" transform="translate(95.000000, 95.000000) rotate(-315.000000) translate(-95.000000, -95.000000) "></path>
            </g>
        </g>
    </g>
</svg>