<?xml version="1.0" encoding="UTF-8" standalone="no"?>
<svg width="256px" height="256px" viewBox="0 0 256 256" version="1.1" xmlns="http://www.w3.org/2000/svg" xmlns:xlink="http://www.w3.org/1999/xlink">
    <!-- Generator: Sketch 39.1 (31720) - http://www.bohemiancoding.com/sketch -->
    <title>PBS-trash</title>
    <desc>Created with Sketch.</desc>
    <defs></defs>
    <g id="Page-1" stroke="none" stroke-width="1" fill="none" fill-rule="evenodd">
        <g id="PBS-trash">
            <g id="Group-2" transform="translate(46.000000, 65.000000)" fill="#222222">
                <path d="M33,20.7447348 L33,127 L128.029999,127 L128.029999,20.7447348 L33,20.7447348 Z M13,20.7447348 L13,145.000998 C13,145.550043 13.2239418,146.050921 13.5857924,146.413973 C13.9450012,146.774152 14.446378,147 15.0003504,147 L146.029648,147 C146.582428,147 147.083811,146.775884 147.446349,146.413787 C147.804331,146.055234 148.029999,145.554375 148.029999,145.000998 L148.029999,20.7447348 L158.00597,20.7447348 C159.100186,20.7447348 160,19.8534255 160,18.7539397 L160,2.73552999 C160,1.64294723 159.107243,0.74473485 158.00597,0.74473485 L1.99402962,0.74473485 C0.899814069,0.74473485 0,1.63604419 0,2.73552999 L0,18.7539397 C0,19.8465225 0.89275747,20.7447348 1.99402962,20.7447348 L13,20.7447348 Z M48,39.0024622 C48,37.8965329 48.8933973,37 49.9918842,37 L61.0081158,37 C62.1082031,37 63,37.8935176 63,39.0024622 L63,107.742273 C63,108.848202 62.1066027,109.744735 61.0081158,109.744735 L49.9918842,109.744735 C48.8917969,109.744735 48,108.851217 48,107.742273 L48,39.0024622 Z M73,39.0024622 C73,37.8965329 73.8933973,37 74.9918842,37 L86.0081158,37 C87.1082031,37 88,37.8935176 88,39.0024622 L88,107.742273 C88,108.848202 87.1066027,109.744735 86.0081158,109.744735 L74.9918842,109.744735 C73.8917969,109.744735 73,108.851217 73,107.742273 L73,39.0024622 Z M98,39.0024622 C98,37.8965329 98.8933973,37 99.9918842,37 L111.008116,37 C112.108203,37 113,37.8935176 113,39.0024622 L113,107.742273 C113,108.848202 112.106603,109.744735 111.008116,109.744735 L99.9918842,109.744735 C98.8917969,109.744735 98,108.851217 98,107.742273 L98,39.0024622 Z" id="Combined-Shape"></path>
            </g>
            <path d="M91,71.1379747 L102.655642,51.711904 C103.222917,50.7664455 104.568667,50 105.680488,50 L150.331824,50 C151.435125,50 152.802461,50.7584527 153.386584,51.6952204 L164.982911,70.2924557" id="Path-2" stroke="#222222" stroke-width="15"></path>
        </g>
    </g>
</svg>