<svg width="256" height="256" viewBox="0 0 256 256" xmlns="http://www.w3.org/2000/svg"><title>PBS-component_photo_gallery</title><g fill="#222" fill-rule="evenodd"><g transform="translate(43 43)"><path stroke="#222" stroke-width="10" d="M21 155l37.786-54.667 25.641 17.334L112.767 79 160 155"/><circle cx="54.5" cy="52.5" r="17.5"/><path d="M1.994 0A1.992 1.992 0 0 0 0 2v166a2 2 0 0 0 1.994 2h166.012a1.992 1.992 0 0 0 1.994-2V2a2 2 0 0 0-1.994-2H1.994zm17.351 17.347a2.002 2.002 0 0 0-1.998 2.008v131.289c0 1.11.897 2.01 1.998 2.01h131.31a2.002 2.002 0 0 0 1.998-2.01V19.357c0-1.11-.897-2.01-1.998-2.01H19.345z"/></g><path d="M18.677 127.742l13.984-13.984c.788-.787.785-2.05.005-2.832l-1.12-1.119a2.003 2.003 0 0 0-2.83.005l-16.45 16.449a1.999 1.999 0 0 0-.109 2.718c.093.181.216.351.367.503l16.449 16.448c.787.788 2.05.786 2.831.005l1.12-1.12c.779-.779.778-2.048-.005-2.83l-14.242-14.243zM237.323 127.742l-13.984-13.984a1.998 1.998 0 0 1-.005-2.832l1.12-1.119a2.003 2.003 0 0 1 2.83.005l16.45 16.449c.75.75.783 1.933.109 2.718-.093.181-.216.351-.367.503l-16.449 16.448a1.998 1.998 0 0 1-2.831.005l-1.12-1.12a2.003 2.003 0 0 1 .005-2.83l14.242-14.243z"/></g></svg>