<svg width="222" height="128" viewBox="0 0 222 128" xmlns="http://www.w3.org/2000/svg">
    <title>
        PBS-component_promo
    </title>
    <path d="M.469 1.999c0-1.104.895-2 2.009-2h101.25c1.109 0 2.009.892 2.009 2v48.635a2.001 2.001 0 0 1-2.009 1.999H2.478a2.002 2.002 0 0 1-2.009-2V2zM0 77.379c0-1.103.892-1.997 2.004-1.997h100.992c1.107 0 2.004.898 2.004 1.997v49.006a1.997 1.997 0 0 1-2.004 1.997H2.004A2.003 2.003 0 0 1 0 126.385V77.379zM127 4.374c0-1.1.895-1.992 2.006-1.992h90.988A2 2 0 0 1 222 4.374V15.39c0 1.1-.895 1.992-2.006 1.992h-90.988A2 2 0 0 1 127 15.39V4.374zm0 76c0-1.1.895-1.992 2.006-1.992h90.988A2 2 0 0 1 222 80.374V91.39c0 1.1-.895 1.992-2.006 1.992h-90.988A2 2 0 0 1 127 91.39V80.374zm0-44c0-1.1.895-1.992 2.006-1.992h90.988A2 2 0 0 1 222 36.374V47.39c0 1.1-.895 1.992-2.006 1.992h-90.988A2 2 0 0 1 127 47.39V36.374zm0 75c0-1.1.895-1.992 2.006-1.992h90.988a2 2 0 0 1 2.006 1.992v11.016c0 1.1-.895 1.992-2.006 1.992h-90.988A2 2 0 0 1 127 122.39v-11.016z" fill-rule="evenodd"/>
</svg>
