<?xml version="1.0" encoding="UTF-8" standalone="no"?>
<svg width="256px" height="256px" viewBox="0 0 256 256" version="1.1" xmlns="http://www.w3.org/2000/svg" xmlns:xlink="http://www.w3.org/1999/xlink">
    <!-- Generator: Sketch 39.1 (31720) - http://www.bohemiancoding.com/sketch -->
    <title>PBS-notification</title>
    <desc>Created with Sketch.</desc>
    <defs></defs>
    <g id="Page-1" stroke="none" stroke-width="1" fill="none" fill-rule="evenodd">
        <g id="PBS-notification" fill="#222222">
            <g id="notification" transform="translate(47.544911, 42.637429)">
                <path d="M131.60623,96.5807611 C125.427473,81.5121962 122.337508,65.6306679 122.337508,48.9361764 C122.337508,38.4227875 119.28039,30.076128 113.164981,23.8950253 C107.046053,17.7139223 98.6348721,13.9857867 87.9302669,12.7117921 C88.4382226,11.5656661 88.6939599,10.3866931 88.6939599,9.17604629 C88.6939599,6.62688384 87.8023982,4.45898131 86.018102,2.67585802 C84.2349786,0.891561643 82.0682493,-5.68434189e-14 79.5190868,-5.68434189e-14 C76.9710975,-5.68434189e-14 74.8043682,0.891561643 73.0200716,2.67585802 C71.2357753,4.46015444 70.3442136,6.62688384 70.3442136,9.17604629 C70.3442136,10.3866931 70.5987778,11.564493 71.1090795,12.7117921 C60.4044743,13.9869598 51.9932942,17.7139223 45.8767121,23.8950253 C39.76013,30.076128 36.701839,38.4227875 36.701839,48.9361764 C36.701839,65.6306679 33.6118741,81.5121962 27.430771,96.5807611 C21.249668,111.650499 12.1064687,124.315367 -6.25277607e-13,134.574191 C-6.25277607e-13,137.887047 1.21064687,140.754121 3.63194058,143.175415 C6.0532343,145.596709 8.92030884,146.807355 12.2343374,146.807355 L55.0527584,146.807355 C55.0527584,153.562108 57.4412052,159.329104 62.2204447,164.107171 C66.9996843,168.885237 72.7666803,171.274857 79.52026,171.274857 C86.2750125,171.274857 92.0420086,168.885237 96.818902,164.107171 C101.598142,159.329104 103.987762,153.562108 103.987762,146.807355 L146.806182,146.807355 C150.119038,146.807355 152.988459,145.597882 155.407406,143.175415 C157.8287,140.754121 159.039347,137.887047 159.039347,134.574191 C146.935224,124.315367 137.790852,111.650499 131.60623,96.5807611 L131.60623,96.5807611 L131.60623,96.5807611 Z" id="notification_icon"></path>
            </g>
        </g>
    </g>
</svg>