<svg width="204" height="166" viewBox="0 0 204 166" xmlns="http://www.w3.org/2000/svg">
    <title>
        PBS-twitter
    </title>
    <path d="M204.146 19.67c-8.023 3.451-16.049 5.607-24.068 6.472 9.058-5.435 15.184-13.113 18.377-23.034-8.285 4.916-17.127 8.28-26.53 10.093C163.642 4.4 153.464 0 141.385 0c-11.56 0-21.416 4.076-29.57 12.229-8.153 8.152-12.23 18.008-12.23 29.568 0 3.105.346 6.298 1.036 9.576-17.082-.862-33.107-5.154-48.075-12.875-14.969-7.722-27.672-18.01-38.11-30.864-3.797 6.469-5.695 13.5-5.695 21.093 0 7.16 1.682 13.804 5.048 19.928 3.364 6.125 7.894 11.085 13.588 14.882-6.73-.26-13.027-2.029-18.893-5.307v.518c0 10.094 3.17 18.956 9.51 26.593C24.336 92.978 32.338 97.786 42 99.77a43.275 43.275 0 0 1-11 1.423c-2.416 0-5.048-.216-7.894-.645 2.675 8.367 7.592 15.246 14.752 20.639 7.16 5.394 15.27 8.173 24.329 8.348-15.183 11.903-32.48 17.856-51.89 17.856-3.711 0-7.075-.17-10.095-.516 19.411 12.508 40.806 18.761 64.186 18.761 14.839 0 28.771-2.349 41.796-7.05 13.029-4.702 24.157-11 33.388-18.895 9.23-7.893 17.19-16.973 23.874-27.24 6.686-10.266 11.667-20.984 14.947-32.156 3.278-11.174 4.917-22.365 4.917-33.582 0-2.416-.043-4.227-.13-5.435 8.197-5.95 15.186-13.155 20.966-21.608z" fill="#222" fill-rule="evenodd"/>
</svg>
