<svg width="171" height="171" viewBox="0 0 171 171" xmlns="http://www.w3.org/2000/svg">
    <title>
        PBS-facebook_box
    </title>
    <path d="M149.425 0c5.824 0 10.866 1.944 15.138 6.21 4.272 3.88 6.209 8.928 6.209 14.746v128.457c0 5.824-1.943 10.866-6.209 15.138s-9.314 6.209-15.138 6.209h-32.213v-61.316h22.508v-26.78h-22.508V68.693c0-3.881 1.943-5.824 5.433-5.824h17.075v-30.27h-19.019c-9.705 0-17.851 3.496-24.452 10.866-6.6 6.985-10.09 15.914-10.09 26.004v13.195H65.588v26.78h20.571v61.316H21.347c-5.824 0-10.866-1.943-15.138-6.209S0 155.237 0 149.413V20.956C0 15.132 1.943 10.09 6.209 6.21 10.481 1.938 15.523 0 21.347 0h128.078z" fill-rule="evenodd"/>
</svg>
