<svg width="256" height="256" viewBox="0 0 256 256" xmlns="http://www.w3.org/2000/svg"><title>PBS-collapse</title><g fill="#222" fill-rule="evenodd"><path d="M43.763 200.22a2.007 2.007 0 0 1-.005-2.835l36.613-36.613a2 2 0 0 1 2.836.005l12.257 12.258c.785.784.785 2.056.005 2.836l-36.612 36.613a2 2 0 0 1-2.836-.005L43.763 200.22z"/><path d="M119.754 137.845l-9.965 49.629c-.217 1.082-1.026 1.327-1.804.549l-39.576-39.576c-.779-.78-.537-1.586.549-1.804l49.629-9.965c.807-.162 1.33.358 1.167 1.167z"/><g><path d="M200.22 43.763a2.007 2.007 0 0 0-2.835-.005L160.772 80.37a2 2 0 0 0 .005 2.836l12.258 12.257a2.007 2.007 0 0 0 2.836.005l36.613-36.612a2 2 0 0 0-.005-2.836L200.22 43.763z"/><path d="M137.845 119.754l49.629-9.965c1.082-.217 1.327-1.026.549-1.804l-39.576-39.576c-.78-.779-1.586-.537-1.804.549l-9.965 49.629c-.162.807.358 1.33 1.167 1.167z"/></g><g><path d="M56.78 43.763a2.007 2.007 0 0 1 2.835-.005L96.228 80.37a2 2 0 0 1-.005 2.836L83.965 95.464a2.007 2.007 0 0 1-2.836.005L44.516 58.857a2 2 0 0 1 .005-2.836L56.78 43.763z"/><path d="M119.155 119.754l-49.629-9.965c-1.082-.217-1.327-1.026-.549-1.804l39.576-39.576c.78-.779 1.586-.537 1.804.549l9.965 49.629c.162.807-.358 1.33-1.167 1.167z"/><g><path d="M213.237 200.22a2.007 2.007 0 0 0 .005-2.835l-36.613-36.613a2 2 0 0 0-2.836.005l-12.257 12.258a2.007 2.007 0 0 0-.005 2.836l36.612 36.613a2 2 0 0 0 2.836-.005l12.258-12.258z"/><path d="M137.246 137.845l9.965 49.629c.217 1.082 1.026 1.327 1.804.549l39.576-39.576c.779-.78.537-1.586-.549-1.804l-49.629-9.965c-.807-.162-1.33.358-1.167 1.167z"/></g></g></g></svg>