<svg width="256" height="256" viewBox="0 0 256 256" xmlns="http://www.w3.org/2000/svg"><title>PBS-pinterest_box</title><path d="M42.912 46.323a3.411 3.411 0 0 1 3.41-3.41h163.905a3.411 3.411 0 0 1 3.41 3.41v163.904a3.411 3.411 0 0 1-3.41 3.41H46.323a3.411 3.411 0 0 1-3.41-3.41V46.323zM99.374 166.24c1.45-6.25 9.388-39.806 9.388-39.806s-2.399-4.797-2.399-11.884c0-11.148 6.455-19.452 14.495-19.452 6.831 0 10.127 5.127 10.127 11.283 0 6.86-4.373 17.142-6.63 26.665-1.885 7.965 4 14.462 11.856 14.462 14.24 0 25.183-15.006 25.183-36.671 0-19.173-13.775-32.583-33.455-32.583-22.788 0-36.16 17.095-36.16 34.758 0 6.884 2.652 14.264 5.959 18.273.655.8.75 1.486.553 2.298-.605 2.527-1.958 7.968-2.223 9.083-.35 1.469-1.158 1.774-2.681 1.073-9.997-4.656-16.254-19.284-16.254-31.028 0-25.255 18.359-48.458 52.917-48.458 27.778 0 49.366 19.793 49.366 46.257 0 27.588-17.399 49.81-41.545 49.81-8.128 0-15.749-4.222-18.36-9.199 0 0-4.018 15.292-4.994 19.035-1.806 6.96-7.796 17.691-9.952 20.998a6616.578 6616.578 0 0 0-2.368 3.631c-1.024 1.572-2.106 1.331-2.4-.55 0 0-.057-.032-.705-5.022-.65-4.983-1.332-16.056.282-22.973z" fill="#222" fill-rule="evenodd"/></svg>