<svg width="256" height="256" viewBox="0 0 256 256" xmlns="http://www.w3.org/2000/svg"><title>PBS-shop</title><path d="M85.136 64.48c.322-.221.712-.35 1.131-.35h139.729c1.107 0 2.004.898 2.004 2.003v66.4c0 .702-.36 1.32-.903 1.678-.31.482-.825.827-1.44.903l-122.316 15.018 3.956 18.61h113.68c1.103 0 1.997.898 1.997 2.003v11.08a1.995 1.995 0 0 1-1.997 2.004H209.3c5.646 2.18 9.653 7.663 9.653 14.083 0 8.333-6.75 15.088-15.078 15.088-8.327 0-15.077-6.755-15.077-15.088 0-6.42 4.006-11.903 9.653-14.083H109.76c5.647 2.18 9.653 7.663 9.653 14.083 0 8.333-6.75 15.088-15.077 15.088s-15.077-6.755-15.077-15.088c0-6.42 4.006-11.903 9.653-14.083h-1.914a1.999 1.999 0 0 1-1.845-1.236 1.982 1.982 0 0 1-.549-1.002L68.14 57.088H31.01c-1.11 0-2.009-.898-2.009-2.003V44.004A2 2 0 0 1 31.01 42h47.243c.617 0 1.169.277 1.537.713.498.27.878.748 1.003 1.339l4.343 20.428zm3.132 14.738h124.655v42.258l-112.73 13.841-11.925-56.1z" fill="#222" fill-rule="evenodd"/></svg>