<svg xmlns="http://www.w3.org/2000/svg" viewBox="0 0 382.65 240.82" class="pbs-credit-card" aria-labelledby="pbs-credit-card__title">
  <title id="pbs-credit-card__title">Credit Card</title>
  <path class="cls-1" d="M376.66,0,4.76.1A4.76,4.76,0,0,0,0,4.86v229.2a4.76,4.76,0,0,0,4.76,4.76l371.9-.1a4.76,4.76,0,0,0,4.76-4.76V4.76A4.76,4.76,0,0,0,376.66,0Zm-23.8,28.56V54.95L28.56,55V28.66ZM28.56,210.26V102.14l324.3-.1V210.16Z" />
  <rect class="cls-1" x="50.5" y="128.04" width="75.21" height="60.45" />
  <rect class="cls-1" x="211.58" y="160.94" width="32.42" height="28.42" />
  <rect class="cls-1" x="254.4" y="161.18" width="32.42" height="28.42" />
  <rect class="cls-1" x="297.23" y="161.41" width="32.42" height="28.42" />
</svg>
