<svg width="167" height="167" viewBox="0 0 167 167" xmlns="http://www.w3.org/2000/svg">
    <title>
        PBS-component_logos
    </title>
    <path d="M.225 98.224a5.004 5.004 0 0 1 5.003-4.999h62.994a5 5 0 0 1 5.003 5v64.001a5.004 5.004 0 0 1-5.003 5H5.228a5 5 0 0 1-5.003-5V98.224zM130.162 167C150.507 167 167 150.507 167 130.161c0-20.345-16.493-36.838-36.838-36.838-20.346 0-36.839 16.493-36.839 36.838 0 20.346 16.493 36.84 36.84 36.84zM36.838 73.676c20.345 0 36.838-16.493 36.838-36.838C73.676 16.493 57.183 0 36.838 0 16.493 0 0 16.493 0 36.838c0 20.345 16.493 36.838 36.838 36.838zM94.225 5.224A5.004 5.004 0 0 1 99.228.225h62.994a5 5 0 0 1 5.003 5v64.001a5.004 5.004 0 0 1-5.003 5H99.228a5 5 0 0 1-5.003-5V5.224z" fill-rule="evenodd"/>
</svg>
