<svg width="152" height="170" viewBox="0 0 152 170" xmlns="http://www.w3.org/2000/svg">
    <title>
        PBS-replay_video
    </title>
    <path d="M125.375 36.04l-13.391 8.697c-.925.6-.847 1.444.17 1.886l38.594 16.765c.634.275 1.149-.062 1.156-.751l.382-42.075c.01-1.108-.73-1.523-1.654-.923l-8.77 5.695C127.473 6.28 107.98 2.277 104.343 1.682 99.264.589 54.899-7.75 23.029 26.327 7.498 42.935-.665 64.623.043 87.397c.708 22.776 10.203 43.912 26.737 59.51C43.145 162.352 64.044 170 84.9 170c22.027 0 44.007-8.531 60.55-25.424.765-.781.724-2.05-.07-2.798l-11.402-10.76a1.96 1.96 0 0 0-2.742.066c-24.82 25.038-65.267 25.858-91.07 1.51-12.726-12.008-20.036-28.277-20.581-45.81-.546-17.531 5.738-34.227 17.694-47.011 25.288-27.04 61.545-19.21 63.042-18.871l.486.113.493.064c.145.019 13.664 2.1 24.075 14.962" fill-rule="evenodd"/>
</svg>
