<svg width="256" height="256" viewBox="0 0 256 256" xmlns="http://www.w3.org/2000/svg"><title>PBS-expand</title><g fill="#222" fill-rule="evenodd"><path d="M112.33 130.521a2 2 0 0 0-2.835.005L71.1 168.921a2.008 2.008 0 0 0-.005 2.834L84.05 184.71a2 2 0 0 0 2.834-.005l38.395-38.395a2.008 2.008 0 0 0 .005-2.834l-12.955-12.955z"/><path d="M47.192 210.032l51.979-10.437c1.078-.216 1.325-1.018.54-1.804l-41.498-41.497c-.78-.78-1.587-.543-1.804.54l-10.437 51.978c-.17.843.375 1.39 1.22 1.22z"/><g><path d="M131.435 111.416a2 2 0 0 1 .005-2.834l38.395-38.396a2.008 2.008 0 0 1 2.834-.004l12.955 12.954a2 2 0 0 1-.005 2.834l-38.395 38.396a2.008 2.008 0 0 1-2.834.004l-12.955-12.954z"/><path d="M210.946 46.279l-10.437 51.979c-.217 1.077-1.019 1.324-1.804.539l-41.497-41.498c-.78-.78-.544-1.586.539-1.803l51.979-10.437c.843-.17 1.39.374 1.22 1.22z"/></g><g><path d="M126.077 111.416a2 2 0 0 0-.005-2.834L87.677 70.186a2.008 2.008 0 0 0-2.834-.004L71.888 83.136a2 2 0 0 0 .005 2.834l38.395 38.396a2.008 2.008 0 0 0 2.834.004l12.955-12.954z"/><path d="M46.566 46.279l10.437 51.979c.216 1.077 1.018 1.324 1.804.539l41.497-41.498c.78-.78.543-1.586-.539-1.803L47.786 45.059c-.843-.17-1.39.374-1.22 1.22z"/><g><path d="M145.183 130.521a2 2 0 0 1 2.834.005l38.395 38.395c.784.784.781 2.058.005 2.834l-12.955 12.955a2 2 0 0 1-2.834-.005l-38.395-38.395a2.008 2.008 0 0 1-.005-2.834l12.955-12.955z"/><path d="M210.32 210.032l-51.98-10.437c-1.077-.216-1.324-1.018-.539-1.804l41.498-41.497c.78-.78 1.586-.543 1.804.54l10.437 51.978c.169.843-.375 1.39-1.22 1.22z"/></g></g></g></svg>