<?xml version="1.0" encoding="UTF-8" standalone="no"?>
<svg width="256px" height="256px" viewBox="0 0 256 256" version="1.1" xmlns="http://www.w3.org/2000/svg" xmlns:xlink="http://www.w3.org/1999/xlink">
    <!-- Generator: Sketch 39.1 (31720) - http://www.bohemiancoding.com/sketch -->
    <title>PBS-collapse</title>
    <desc>Created with Sketch.</desc>
    <defs></defs>
    <g id="Page-1" stroke="none" stroke-width="1" fill="none" fill-rule="evenodd">
        <g id="PBS-collapse" fill="#222222">
            <g id="Group-4" transform="translate(128.500000, 128.500000) rotate(-315.000000) translate(-128.500000, -128.500000) translate(17.000000, 17.000000)">
                <g id="Group-3" transform="translate(81.000000, -0.000000)">
                    <g id="Group-2" transform="translate(0.000000, 123.777778)">
                        <path d="M21.296114,98.3546772 C20.186681,98.3546772 19.2873079,97.4558845 19.2873079,96.3529263 L19.2873079,44.57461 C19.2873079,43.4690734 20.1776199,42.572859 21.296114,42.572859 L38.6311587,42.572859 C39.7405917,42.572859 40.6399649,43.4716517 40.6399649,44.57461 L40.6399649,96.3529263 C40.6399649,97.4584628 39.7496528,98.3546772 38.6311587,98.3546772 L21.296114,98.3546772 Z" id="Rectangle"></path>
                        <path d="M30.9234818,0.514288507 L58.9701595,42.6537907 C59.5816874,43.5725976 59.1833189,44.3174378 58.082506,44.3174378 L2.11396853,44.3174378 C1.01220315,44.3174378 0.612834618,43.5755313 1.22631506,42.6537907 L29.2729927,0.514288507 C29.7287627,-0.170495656 30.4664692,-0.172362714 30.9234818,0.514288507 Z" id="Triangle-2"></path>
                    </g>
                    <g id="Group-2-Copy" transform="translate(30.000000, 49.722222) scale(1, -1) translate(-30.000000, -49.722222) translate(0.000000, 0.222222)">
                        <path d="M21.296114,98.3546772 C20.186681,98.3546772 19.2873079,97.4558845 19.2873079,96.3529263 L19.2873079,44.57461 C19.2873079,43.4690734 20.1776199,42.572859 21.296114,42.572859 L38.6311587,42.572859 C39.7405917,42.572859 40.6399649,43.4716517 40.6399649,44.57461 L40.6399649,96.3529263 C40.6399649,97.4584628 39.7496528,98.3546772 38.6311587,98.3546772 L21.296114,98.3546772 Z" id="Rectangle"></path>
                        <path d="M30.9234818,0.514288507 L58.9701595,42.6537907 C59.5816874,43.5725976 59.1833189,44.3174378 58.082506,44.3174378 L2.11396853,44.3174378 C1.01220315,44.3174378 0.612834618,43.5755313 1.22631506,42.6537907 L29.2729927,0.514288507 C29.7287627,-0.170495656 30.4664692,-0.172362714 30.9234818,0.514288507 Z" id="Triangle-2"></path>
                    </g>
                </g>
                <g id="Group-3-Copy" transform="translate(111.500000, 111.000000) rotate(-270.000000) translate(-111.500000, -111.000000) translate(81.500000, -0.500000)">
                    <g id="Group-2" transform="translate(0.000000, 123.777778)">
                        <path d="M21.296114,98.3546772 C20.186681,98.3546772 19.2873079,97.4558845 19.2873079,96.3529263 L19.2873079,44.57461 C19.2873079,43.4690734 20.1776199,42.572859 21.296114,42.572859 L38.6311587,42.572859 C39.7405917,42.572859 40.6399649,43.4716517 40.6399649,44.57461 L40.6399649,96.3529263 C40.6399649,97.4584628 39.7496528,98.3546772 38.6311587,98.3546772 L21.296114,98.3546772 Z" id="Rectangle"></path>
                        <path d="M30.9234818,0.514288507 L58.9701595,42.6537907 C59.5816874,43.5725976 59.1833189,44.3174378 58.082506,44.3174378 L2.11396853,44.3174378 C1.01220315,44.3174378 0.612834618,43.5755313 1.22631506,42.6537907 L29.2729927,0.514288507 C29.7287627,-0.170495656 30.4664692,-0.172362714 30.9234818,0.514288507 Z" id="Triangle-2"></path>
                    </g>
                    <g id="Group-2-Copy" transform="translate(30.000000, 49.722222) scale(1, -1) translate(-30.000000, -49.722222) translate(0.000000, 0.222222)">
                        <path d="M21.296114,98.3546772 C20.186681,98.3546772 19.2873079,97.4558845 19.2873079,96.3529263 L19.2873079,44.57461 C19.2873079,43.4690734 20.1776199,42.572859 21.296114,42.572859 L38.6311587,42.572859 C39.7405917,42.572859 40.6399649,43.4716517 40.6399649,44.57461 L40.6399649,96.3529263 C40.6399649,97.4584628 39.7496528,98.3546772 38.6311587,98.3546772 L21.296114,98.3546772 Z" id="Rectangle"></path>
                        <path d="M30.9234818,0.514288507 L58.9701595,42.6537907 C59.5816874,43.5725976 59.1833189,44.3174378 58.082506,44.3174378 L2.11396853,44.3174378 C1.01220315,44.3174378 0.612834618,43.5755313 1.22631506,42.6537907 L29.2729927,0.514288507 C29.7287627,-0.170495656 30.4664692,-0.172362714 30.9234818,0.514288507 Z" id="Triangle-2"></path>
                    </g>
                </g>
            </g>
        </g>
    </g>
</svg>