<svg width="160" height="172" viewBox="0 0 160 172" xmlns="http://www.w3.org/2000/svg">
    <title>
        PBS-columns
    </title>
    <path d="M0 1.991C0 .891.892.001 1.997.001h36.006A2 2 0 0 1 40 1.99v168.02a1.993 1.993 0 0 1-1.997 1.99H1.997A2.003 2.003 0 0 1 0 170.01V1.99zm60 0c0-1.1.892-1.99 1.997-1.99h36.006A2 2 0 0 1 100 1.99v168.02a1.993 1.993 0 0 1-1.997 1.99H61.997A2.003 2.003 0 0 1 60 170.01V1.99zm60 0c0-1.1.892-1.99 1.997-1.99h36.006A2 2 0 0 1 160 1.99v168.02a1.993 1.993 0 0 1-1.997 1.991h-36.006a2.003 2.003 0 0 1-1.997-1.99V1.99z" fill-rule="evenodd"/>
</svg>
