<?xml version="1.0" encoding="UTF-8" standalone="no"?>
<svg width="256px" height="256px" viewBox="0 0 256 256" version="1.1" xmlns="http://www.w3.org/2000/svg" xmlns:xlink="http://www.w3.org/1999/xlink">
    <!-- Generator: Sketch 39.1 (31720) - http://www.bohemiancoding.com/sketch -->
    <title>PBS-component_hero_carousel</title>
    <desc>Created with Sketch.</desc>
    <defs></defs>
    <g id="Page-1" stroke="none" stroke-width="1" fill="none" fill-rule="evenodd">
        <g id="PBS-component_hero_carousel" fill="#222222">
            <path d="M14.9987711,43 C13.8948803,43 13,43.8874333 13,44.999615 L13,53 L13,203 L13,211.000385 C13,212.104742 13.8932294,213 14.9987711,213 L25.7027027,213 L235.297297,213 L246.001229,213 C247.10512,213 248,212.112567 248,211.000385 L248,203 L248,53 L248,44.999615 C248,43.8952581 247.106771,43 246.001229,43 L235.297297,43 L25.7027027,43 L14.9987711,43 Z M34.0029294,58 C32.896742,58 32,58.8969977 32,59.993535 L32,66.2352941 L32,189.764706 L32,196.006465 C32,197.107464 32.8895822,198 34.0029294,198 L42.6486486,198 L218.351351,198 L226.997071,198 C228.103258,198 229,197.103002 229,196.006465 L229,189.764706 L229,66.2352941 L229,59.993535 C229,58.892536 228.110418,58 226.997071,58 L218.351351,58 L42.6486486,58 L34.0029294,58 Z" id="Combined-Shape"></path>
            <polyline id="Path-21" stroke="#222222" stroke-width="10" points="28 203 83.7281553 149.052632 121.543689 166.157895 163.339806 128 233 203"></polyline>
            <circle id="Oval-10" cx="114" cy="95" r="19"></circle>
            <g id="Group" transform="translate(42.000000, 108.000000)">
                <path d="M11.9789381,27.971927 L11.9789381,8.19517752 C11.9789381,7.08165565 11.083979,6.18974876 9.979991,6.18974876 L8.39732709,6.18974876 C7.29499321,6.18974876 6.39838002,7.0876098 6.39838002,8.19517752 L6.39838002,31.4570473 C6.39838002,32.5184083 7.21145747,33.3784303 8.24363073,33.4566736 C8.43734862,33.5188766 8.64392113,33.552485 8.85835422,33.552485 L32.120224,33.552485 C33.2337459,33.552485 34.1256527,32.6575259 34.1256527,31.553538 L34.1256527,29.9708741 C34.1256527,28.8685402 33.2277917,27.971927 32.120224,27.971927 L11.9789381,27.971927 Z" id="Combined-Shape" transform="translate(20.262016, 19.871117) rotate(-315.000000) translate(-20.262016, -19.871117) "></path>
            </g>
            <g id="Group" transform="translate(199.000000, 128.000000) scale(-1, 1) translate(-199.000000, -128.000000) translate(179.000000, 108.000000)">
                <path d="M11.9789381,27.971927 L11.9789381,8.19517752 C11.9789381,7.08165565 11.083979,6.18974876 9.979991,6.18974876 L8.39732709,6.18974876 C7.29499321,6.18974876 6.39838002,7.0876098 6.39838002,8.19517752 L6.39838002,31.4570473 C6.39838002,32.5184083 7.21145747,33.3784303 8.24363073,33.4566736 C8.43734862,33.5188766 8.64392113,33.552485 8.85835422,33.552485 L32.120224,33.552485 C33.2337459,33.552485 34.1256527,32.6575259 34.1256527,31.553538 L34.1256527,29.9708741 C34.1256527,28.8685402 33.2277917,27.971927 32.120224,27.971927 L11.9789381,27.971927 Z" id="Combined-Shape" transform="translate(20.262016, 19.871117) rotate(-315.000000) translate(-20.262016, -19.871117) "></path>
            </g>
        </g>
    </g>
</svg>