<svg width="166" height="166" viewBox="0 0 166 166" xmlns="http://www.w3.org/2000/svg">
    <title>
        PBS-certificate
    </title>
    <path d="M83.169 147.66L63.37 165.489c-1.645 1.48-3.531.977-4.216-1.13l-8.232-25.337-26.06 5.539c-2.164.46-3.546-.92-3.085-3.086l5.539-26.06-25.337-8.231c-2.105-.684-2.612-2.57-1.13-4.216L18.676 83.17.85 63.37c-1.481-1.645-.977-3.531 1.13-4.216l25.337-8.232-5.54-26.06c-.46-2.164.92-3.546 3.087-3.085l26.059 5.539L59.155 1.98c.684-2.105 2.57-2.612 4.216-1.13l19.798 17.827L102.967.85c1.645-1.481 3.53-.977 4.216 1.13l8.232 25.337 26.059-5.54c2.165-.46 3.547.92 3.086 3.087l-5.54 26.059 25.338 8.232c2.105.684 2.612 2.57 1.13 4.216L147.66 83.169l17.827 19.798c1.48 1.645.977 3.53-1.13 4.216l-25.337 8.232 5.539 26.059c.46 2.165-.92 3.547-3.086 3.086l-26.06-5.54-8.231 25.338c-.684 2.105-2.57 2.612-4.216 1.13L83.169 147.66z" fill-rule="evenodd"/>
</svg>
