<svg width="256" height="256" viewBox="0 0 256 256" xmlns="http://www.w3.org/2000/svg"><title>PBS-google</title><path d="M181.973 42.59h-52.545c-23.558 0-45.73 17.848-45.73 38.52 0 21.123 16.06 38.174 40.025 38.174 1.67 0 3.289-.032 4.87-.15-1.556 2.98-2.667 6.331-2.667 9.814 0 5.874 3.157 10.63 7.154 14.515-3.018 0-5.93.088-9.112.088-29.175 0-51.635 18.582-51.635 37.854 0 18.977 24.619 30.85 53.8 30.85 33.267 0 51.635-18.876 51.635-37.853 0-15.219-4.487-24.33-18.375-34.152-4.75-3.363-13.83-11.54-13.83-16.341 0-5.63 1.606-8.41 10.084-15.03 8.691-6.79 14.841-16.335 14.841-27.436 0-13.217-5.886-26.1-16.937-30.355h16.661l11.76-8.497zm-18.356 128.542c.414 1.757.646 3.57.646 5.416 0 15.337-9.884 27.317-38.237 27.317-20.169 0-34.734-12.77-34.734-28.102 0-15.03 18.067-27.543 38.236-27.323 4.707.05 9.093.81 13.072 2.096 10.95 7.612 18.801 11.917 21.017 20.59v.006zm-32.288-57.201c-13.536-.408-26.4-15.143-28.742-32.921-2.34-17.779 6.74-31.384 20.277-30.983 13.536.408 26.4 14.672 28.741 32.451 2.341 17.778-6.746 31.86-20.276 31.453z" fill="#222" fill-rule="evenodd"/></svg>