<svg width="235" height="170" viewBox="0 0 235 170" xmlns="http://www.w3.org/2000/svg">
    <title>
        PBS-component_hero_carousel
    </title>
    <path d="M208.843 85.979a2.033 2.033 0 0 1-.367.503l-16.45 16.448a1.997 1.997 0 0 1-2.83.005l-1.12-1.119a2.004 2.004 0 0 1 .005-2.832l14.242-14.242-13.984-13.984a2 2 0 0 1-.005-2.832l1.119-1.119a2.004 2.004 0 0 1 2.832.005l16.449 16.449c.75.75.783 1.933.109 2.718zm-182.266 0c.093.181.215.351.367.503l16.448 16.448a1.998 1.998 0 0 0 2.832.005l1.119-1.119a2.004 2.004 0 0 0-.005-2.832L33.096 84.742 47.08 70.758a1.999 1.999 0 0 0 .004-2.832l-1.12-1.119a2.003 2.003 0 0 0-2.83.005l-16.45 16.449a1.997 1.997 0 0 0-.108 2.718zm188.745 68.525c.417-.366.678-.901.678-1.498V16.994A2.001 2.001 0 0 0 213.997 15H21.003A1.994 1.994 0 0 0 19 16.994v136.012a2 2 0 0 0 1.67 1.966L85.66 85l41.796 38.158 37.816-17.105 50.05 48.451zM233 0c1.105 0 2 .887 2 2v166c0 1.105-.893 2-2 2H2a1.994 1.994 0 0 1-2-2V2C0 .895.894 0 2 0h231zM80 71c-10.493 0-19-8.507-19-19s8.507-19 19-19 19 8.507 19 19-8.507 19-19 19z" fill-rule="evenodd"/>
</svg>
