<svg width="181" height="172" viewBox="0 0 181 172" xmlns="http://www.w3.org/2000/svg">
    <title>
        PBS-archive
    </title>
    <g fill-rule="evenodd">
        <path d="M166 157H15V91h17.207l24.249 19.557c.355.287.799.443 1.255.443h65.042c.448 0 .882-.15 1.234-.426L148.95 91H166v66zM59.607 15h63.378l38.792 61h-17.316c-.448 0-.882.15-1.234.426L118.264 96H62.3L38.051 76.443A2 2 0 0 0 36.795 76H18.333l41.274-61zm121.008 62.261L131.849.78c-.368-.577-1.041-.78-1.725-.78H52.707c-.664 0-1.285.182-1.657.732L.271 75.816c-.224.331-.271.647-.271 1.047v92.843C0 170.811.749 172 1.854 172h177c1.105 0 2.146-1.189 2.146-2.294V78.334c0-.38-.181-.752-.385-1.073z"/>
        <path d="M41.246 68h98.217c1.033 0 1.87-.643 1.87-1.379l-5.612-7.31c0-.736-.837-1.311-1.87-1.311H46.858c-1.033 0-1.87.552-1.87 1.288l-5.613 7.355c0 .736.838 1.357 1.87 1.357m12.359-19h73.703c1.005 0 1.82-.469 1.82-1.095l-4.55-6.001c0-.625-.814-.904-1.82-.904H58.154c-1.005 0-1.82.298-1.82.923l-4.55 6.087c0 .626.815.99 1.82.99M64.63 33h53.318c1.033 0 1.87-.519 1.87-1.105l-4.676-5.835c0-.586-.838-1.06-1.871-1.06h-44.9c-1.032 0-1.87.452-1.87 1.038l-3.742 5.869c0 .585.838 1.093 1.87 1.093"/>
    </g>
</svg>
