<svg width="197" height="169" viewBox="0 0 197 169" xmlns="http://www.w3.org/2000/svg">
    <title>
        PBS-facebook_like_line
    </title>
    <path d="M170.5 92.182s3.144 3.163 4.042 9.037c.45 9.49-10.779 11.749-10.779 11.749s5.84 3.615 5.84 8.134c0 10.393-12.128 11.296-12.128 11.296s4.94 3.615 4.94 9.49c0 9.037-8.084 10.845-8.084 10.845H98.187c-4.49 0-27.398-11.297-27.398-11.297h-3.144V79.529s10.78-1.355 13.475-1.807c2.694-.452 22.008-35.246 22.008-35.246V22.594s1.796-4.971 8.085-5.875c10.33.452 14.372 10.393 16.618 15.816 2.246 5.422 1.797 18.075-.898 26.66-2.695 8.586.45 12.653.45 12.653h46.261s7.186 1.355 7.186 10.393c-.449 8.133-10.33 9.94-10.33 9.94zM50.578 152.28h-26.5l-6.737-84.048h32.787v84.048h.45zm140.134-53.32C194.754 94.44 197 88.567 197 81.789c0-15.364-10.78-24.401-20.66-26.661-.899 0-1.798-.452-3.145-.452H144c1.797-9.941 1.348-21.237-1.796-28.92C139.51 19.43 131.874.905 111.214 0h-3.596C96.391 1.807 89.653 9.489 86.96 15.816c-.899 1.807-1.348 4.066-1.348 6.326v15.363c-4.94 9.038-10.78 18.979-14.373 24.4-3.144.453-6.737.905-6.737.905-2.246-6.326-8.085-10.845-15.27-10.845H16.441c-4.94 0-9.432 2.26-12.576 5.875S-.624 66.425.273 71.396l6.737 84.048C8.358 163.126 15.095 169 23.18 169h26.5c7.186 0 13.474-4.971 15.72-11.297h1.347C90.102 169 95.043 169 97.738 169h56.143c1.348 0 2.246 0 3.594-.452 9.881-2.26 20.66-11.75 20.66-26.66v-2.26c4.492-4.518 7.187-10.845 7.187-18.526 0-1.356 0-2.26-.449-3.615 3.593-4.52 5.39-10.393 4.94-17.171.9-.452.9-.904.9-1.356z" fill-rule="evenodd"/>
</svg>
