<svg width="155" height="140" viewBox="0 0 155 140" xmlns="http://www.w3.org/2000/svg" xmlns:xlink="http://www.w3.org/1999/xlink">
    <title>
        PBS-download
    </title>
    <defs>
        <path id="a" d="M77.5 49H0V0h155v49H77.5z"/>
    </defs>
    <g fill="none" fill-rule="evenodd">
        <g transform="translate(0 91)">
            <mask id="b" fill="#fff">
                <use xlink:href="#a"/>
            </mask>
            <path d="M152.893 0h-16.018C135.782 0 135 1.311 135 2.415V29H20V2.415C20 1.317 18.963 0 17.863 0H1.845C.752 0 0 1.311 0 2.415v44.293C0 47.806.745 49 1.845 49h151.019c.232 0 .513-.182.72-.256.786-.267 1.416-1.156 1.416-2.036V2.415C155 1.317 153.993 0 152.893 0" fill="#000" mask="url(#b)"/>
        </g>
        <path d="M76.103 98.224c.422.642 1.107.643 1.531 0l25.941-39.454c.609-.924.206-1.77-.893-1.77H87V1.702C87 .6 85.845 0 84.752 0H68.734C67.634 0 67 .601 67 1.702V57H51.054c-1.102 0-1.503.844-.893 1.77l25.942 39.454z" fill="#000"/>
    </g>
</svg>
