<?xml version="1.0" encoding="UTF-8" standalone="no"?>
<svg width="256px" height="256px" viewBox="0 0 256 256" version="1.1" xmlns="http://www.w3.org/2000/svg" xmlns:xlink="http://www.w3.org/1999/xlink">
    <!-- Generator: Sketch 39.1 (31720) - http://www.bohemiancoding.com/sketch -->
    <title>PBS-info_line</title>
    <desc>Created with Sketch.</desc>
    <defs></defs>
    <g id="Page-1" stroke="none" stroke-width="1" fill="none" fill-rule="evenodd">
        <g id="PBS-info_line">
            <path d="M126.555732,49.5122168 C83.4967518,50.2676375 49.1251096,85.3947005 49.5028199,128.453681 C50.2582406,171.512661 85.3853036,205.884304 128.444284,205.506593 C171.503264,204.751173 205.874907,169.62411 205.497196,126.565129 C205.119486,83.1284384 169.614713,48.7567961 126.555732,49.5122168" id="Fill-1-Copy" stroke="#222222" stroke-width="18"></path>
            <path d="M114.116759,178.845417 C108.523759,178.845417 104.129259,175.249917 108.124259,160.068917 L114.516259,132.902918 C115.714759,128.508418 115.714759,126.910419 114.516259,126.910419 C112.918259,126.910419 105.327759,130.106418 100.933259,132.902918 L98.1367593,128.108918 C112.119259,116.523419 128.099258,109.731919 134.890758,109.731919 C140.483758,109.731919 141.682258,116.523419 138.885758,126.910419 L131.295258,155.274917 C130.096758,160.468417 130.496258,162.066417 131.694758,162.066417 C133.292758,162.066417 138.885758,160.068917 144.478758,155.674417 L147.674757,160.068917 C134.491258,173.651917 119.709758,178.845417 114.116759,178.845417" id="Path" fill="#222222"></path>
            <path d="M135.689758,72.1789206 C144.079258,72.1789206 146.476257,76.9729204 146.476257,82.5659202 C146.476257,89.3574199 140.883258,95.7494197 131.295258,95.7494197 C123.305258,95.7494197 119.709758,91.7544198 119.709758,85.3624201 C120.109258,80.1689203 124.503758,72.1789206 135.689758,72.1789206" id="Path" fill="#222222"></path>
        </g>
    </g>
</svg>