<?xml version="1.0" encoding="UTF-8" standalone="no"?>
<svg width="256px" height="256px" viewBox="0 0 256 256" version="1.1" xmlns="http://www.w3.org/2000/svg" xmlns:xlink="http://www.w3.org/1999/xlink">
    <!-- Generator: Sketch 39.1 (31720) - http://www.bohemiancoding.com/sketch -->
    <title>PBS-facebook</title>
    <desc>Created with Sketch.</desc>
    <defs></defs>
    <g id="Page-1" stroke="none" stroke-width="1" fill="none" fill-rule="evenodd">
        <g id="PBS-facebook" fill="#222222">
            <g id="facebook" transform="translate(87.011931, 42.774857)">
                <g transform="translate(-0.000000, -0.000000)" id="Icons">
                    <g>
                        <g id="facebook">
                            <path d="M53.0239074,56.0308114 L53.0239074,41.296854 C53.0239074,39.0846591 53.1257933,37.3717042 53.3333856,36.1618108 C53.5397043,34.9493699 54.0083787,33.7573063 54.7355884,32.5805253 C55.4615247,31.4050183 56.6383054,30.5924793 58.2633837,30.1429084 C59.8897356,29.6920638 62.0522611,29.4679149 64.7509609,29.4679149 L79.4836448,29.4679149 L79.4836448,0 L55.9301991,0 C42.300429,0 32.5130262,3.23359998 26.5641701,9.7007999 C20.615314,16.1692734 17.6415228,25.6968673 17.6415228,38.2874027 L17.6415228,56.0308114 L0,56.0308114 L0,85.5 L17.6402492,85.5 L17.6402492,171 L53.0239074,171 L53.0239074,85.5 L76.5773527,85.5 L79.6899634,56.0308114 L53.0239074,56.0308114 L53.0239074,56.0308114 L53.0239074,56.0308114 Z" id="facebook_icon"></path>
                        </g>
                    </g>
                </g>
            </g>
        </g>
    </g>
</svg>