<svg width="256" height="256" viewBox="0 0 256 256" xmlns="http://www.w3.org/2000/svg"><title>PBS-help_line</title><g fill="none" fill-rule="evenodd"><path d="M128.006 179.628c-6.061 0-10.977-4.916-10.977-10.98 0-6.06 4.916-10.973 10.977-10.973 6.062 0 10.976 4.914 10.976 10.974 0 6.063-4.914 10.979-10.976 10.979zm8.63-32.446v1.975h-18.094v-1.975c0-5.587.815-12.754 7.301-18.986 6.488-6.233 14.595-11.38 14.595-19.166 0-8.607-5.974-13.16-13.505-13.16-12.549 0-13.37 13.015-13.679 15.881H95.657c.468-13.571 6.204-32.554 31.382-32.554 21.82 0 31.63 14.613 31.63 28.317 0 21.812-22.033 25.601-22.033 39.668z" fill="#222"/><circle stroke="#222" stroke-width="20" cx="127" cy="128" r="76"/></g></svg>