<svg width="256" height="256" viewBox="0 0 256 256" xmlns="http://www.w3.org/2000/svg"><title>PBS-download</title><g fill="#222" fill-rule="evenodd"><path d="M69 172.01v-26.301a1.998 1.998 0 0 0-1.99-1.998H50.99c-1.092 0-1.99.894-1.99 1.998v44.293c0 1.098.891 1.998 1.99 1.998h1.8a2 2 0 0 0 .2.01h149.02c.232 0 .455-.04.663-.114a2.003 2.003 0 0 0 1.357-1.894v-44.293a1.998 1.998 0 0 0-1.99-1.998h-16.02c-1.092 0-1.99.894-1.99 1.998v26.301H69z"/><path d="M135.889 109.49h15.939c1.1 0 1.502.749.893 1.672l-25.941 39.356c-.424.643-1.109.642-1.531 0l-25.942-39.356c-.61-.925-.209-1.672.893-1.672h15.689V53.996c0-1.101.891-1.996 1.99-1.996h16.02c1.092 0 1.99.894 1.99 1.996v55.494z"/></g></svg>