<svg width="200" height="167" viewBox="0 0 200 167" xmlns="http://www.w3.org/2000/svg">
    <title>
        PBS-component_horizontal_linebreak
    </title>
    <path d="M0 74.99C0 73.89.892 73 1.996 73h196.008c1.103 0 1.996.898 1.996 1.99v16.02c0 1.1-.892 1.99-1.996 1.99H1.996A1.997 1.997 0 0 1 0 91.01V74.99zM102.753.407l28.743 33.085c.723.834.413 1.509-.694 1.509H73.001c-1.106 0-1.417-.676-.693-1.51L101.051.407c.47-.541 1.23-.542 1.702 0zm0 166.188l28.743-33.085c.723-.834.413-1.51-.694-1.51H73.001c-1.106 0-1.417.677-.693 1.51l28.743 33.085c.47.54 1.23.542 1.702 0z" fill-rule="evenodd"/>
</svg>
