<svg width="256" height="256" viewBox="0 0 256 256" xmlns="http://www.w3.org/2000/svg"><title>PBS-twitter_box</title><g transform="translate(43 42)" fill="none" fill-rule="evenodd"><rect fill="#222" width="169.566" height="171.918" rx="12.5"/><path d="M135.799 49.362a41.84 41.84 0 0 1-12.506 3.586c4.499-2.817 7.948-7.28 9.574-12.603a42.438 42.438 0 0 1-13.826 5.53c-3.97-4.426-9.63-7.193-15.892-7.193-12.023 0-21.77 10.198-21.77 22.779 0 1.782.19 3.52.564 5.19-18.096-.95-34.141-10.018-44.88-23.8-1.874 3.363-2.947 7.275-2.947 11.454 0 7.902 3.843 14.875 9.686 18.959a20.986 20.986 0 0 1-9.863-2.851c-.002.094-.002.191-.002.288 0 11.035 7.506 20.24 17.467 22.336-1.827.518-3.75.797-5.737.797a20.65 20.65 0 0 1-4.097-.41c2.772 9.05 10.812 15.637 20.338 15.82-7.452 6.11-16.838 9.752-27.04 9.752-1.756 0-3.49-.108-5.194-.32 9.638 6.466 21.081 10.234 33.376 10.234 40.05 0 61.948-34.708 61.948-64.81 0-.987-.02-1.972-.06-2.95 4.252-3.205 7.944-7.22 10.86-11.788" fill="#FFF"/></g></svg>