<svg width="199" height="170" viewBox="0 0 199 170" xmlns="http://www.w3.org/2000/svg">
    <title>
        PBS-component_form
    </title>
    <g fill-rule="evenodd">
        <path d="M193.863 75.54h-16.018c-1.093 0-1.845.599-1.845 1.699v72.301H20v-78h69.847c1.111 0 2.153-1.185 2.153-2.285V53.237c0-1.093-1.045-1.697-2.153-1.697H1.861c-.558 0-.989.078-1.346.436-.362.362-.515.715-.515 1.269v114.002c0 .552.151 1.199.51 1.556.363.364.792.737 1.348.737h192.005c1.093 0 2.137-.787 2.137-1.887V77.239c0-1.089-1.037-1.699-2.137-1.699"/>
        <path d="M197.745 12.406L183.792.698a2.996 2.996 0 0 0-4.224.38l-10.011 11.93 18.537 15.554 10.01-11.93a2.993 2.993 0 0 0-.36-4.226zM182.03 35.787l-18.536-15.554-54.058 64.424 18.537 15.554 54.057-64.424zm-80.78 81.133l19.08-7.6-18.536-15.556-4.173 20.111c-.56 2.7 1.063 4.067 3.629 3.045z"/>
    </g>
</svg>
