<svg width="170" height="170" viewBox="0 0 170 170" xmlns="http://www.w3.org/2000/svg" xmlns:xlink="http://www.w3.org/1999/xlink">
    <title>
        PBS-settings
    </title>
    <defs>
        <path id="a" d="M170 85V0H0v170h170V85z"/>
    </defs>
    <g fill="none" fill-rule="evenodd">
        <mask id="b" fill="#fff">
            <use xlink:href="#a"/>
        </mask>
        <path d="M85 122.693c-20.884 0-37.693-16.81-37.693-37.693 0-20.884 16.809-37.693 37.693-37.693 20.884 0 37.693 16.809 37.693 37.693 0 20.884-16.809 37.693-37.693 37.693m85-62.331c-1.642-5.748-4.106-11.497-6.981-16.835-11.087 2.874-19.71-1.643-27.512-9.034-7.391-7.392-9.855-16.425-6.98-27.512C123.188 4.106 117.44 1.643 111.691 0 105.942 9.855 95.676 16.425 85 16.425c-10.676 0-20.942-6.57-26.691-16.425-5.749 1.643-11.497 4.106-16.836 6.98 2.875 11.088.411 19.71-6.98 27.513-7.392 7.39-16.425 11.908-27.512 9.034C4.106 48.865 1.643 54.614 0 60.362 9.855 66.11 16.425 74.324 16.425 85c0 10.676-6.57 20.942-16.425 26.69 1.643 5.75 4.106 11.498 6.981 16.837 11.087-2.875 20.12-.411 27.512 6.98 7.391 7.392 9.855 16.425 6.98 27.512 5.339 2.875 11.087 5.338 16.836 6.98 5.749-9.854 16.015-16.424 26.691-16.424 10.676 0 20.942 6.57 26.691 16.425 5.749-1.643 11.497-4.106 16.836-6.981-2.875-11.087-.411-19.71 6.98-27.512 7.392-7.391 16.425-11.908 27.512-9.034 2.875-5.338 5.339-11.087 6.981-16.835-9.855-5.75-16.425-13.962-16.425-24.638 0-10.676 6.57-18.89 16.425-24.638" fill="#000" mask="url(#b)"/>
    </g>
</svg>
