<svg width="138" height="168" viewBox="0 0 138 168" xmlns="http://www.w3.org/2000/svg" xmlns:xlink="http://www.w3.org/1999/xlink">
    <title>
        PBS-newsletter
    </title>
    <defs>
        <path id="a" d="M138 84v84H0V0h138z"/>
    </defs>
    <g fill="none" fill-rule="evenodd">
        <path d="M35 36.34c0-1.083.223-2.34.062-4.34h.114l6.78 13H49V26h-5v8.537c0 1.134.122 2.463.241 4.463h-.076l-6.754-13H31v19h4v-8.66zM64 41h-6v-4h5v-4h-5v-3h6v-4H53v19h11zm11.725 4c1.083-5 1.7-7.79 1.847-8.475.148-.686.3-1.51.451-2.327a35.72 35.72 0 0 0 .33-2.087c.084.677.218 1.501.4 2.508.182 1.007.315 1.817.4 2.156L80.93 45h5.93l4.57-19h-4.838l-2.056 9.404c-.49 2.319-.792 3.984-.902 4.924-.093-.728-.279-1.81-.558-3.283a87.933 87.933 0 0 0-.826-3.961L80.663 26h-4.646l-1.638 7.093c-.245.974-.509 2.237-.793 3.718a60.321 60.321 0 0 0-.59 3.535c-.17-1.219-.483-2.92-.94-4.977L70.038 26h-4.837l4.595 19h5.93zm22.965-.04c1.482 0 2.773-.248 3.873-.742 1.1-.496 1.942-1.19 2.526-2.082.584-.894.876-1.915.876-3.067 0-1.253-.311-2.291-.933-3.117-.622-.824-1.733-1.596-3.332-2.316-1.668-.762-2.69-1.286-3.066-1.574-.377-.289-.565-.614-.565-.978 0-.339.148-.622.444-.851.297-.228.77-.342 1.422-.342 1.26 0 2.759.397 4.494 1.193l1.536-3.872c-1.997-.889-3.956-1.333-5.878-1.333-2.175 0-3.884.478-5.128 1.435-1.245.956-1.867 2.289-1.867 3.999 0 .914.146 1.705.438 2.374.292.669.74 1.26 1.346 1.777.605.517 1.513 1.05 2.723 1.6 1.338.6 2.16.999 2.469 1.193.31.194.534.387.673.578.14.189.21.412.21.666 0 .406-.174.738-.521.996-.347.259-.893.388-1.637.388-.864 0-1.794-.138-2.827-.413-1.033-.275-1.966-.658-2.966-1.149v4.469c1 .432 1.76.734 2.598.908.838.173 1.857.26 3.093.26" fill="#000"/>
        <mask id="b" fill="#fff">
            <use xlink:href="#a"/>
        </mask>
        <path d="M122 21.815v128.007c0 1.113-.886 2.178-1.99 2.178H17.698c-1.102 0-1.698-1.07-1.698-2.178V17.59c0-1.113.594-1.59 1.698-1.59H120.01c1.102 0 1.99.482 1.99 1.59v4.225zM135.859 0H1.848C.747 0 0 .602 0 1.705v164.002C0 166.811.749 168 1.848 168h134.011c1.102 0 2.141-1.19 2.141-2.293V1.705C138 .601 136.959 0 135.859 0z" fill="#000" mask="url(#b)"/>
        <path d="M81.003 103A1.998 1.998 0 0 0 83 101.002V73.998A1.998 1.998 0 0 0 81.003 72H58.997A1.998 1.998 0 0 0 57 73.998v27.004c0 1.103.894 1.998 1.997 1.998h22.006zm-49.158 0h16.019c1.092 0 2.136-1.189 2.136-2.294v-6C50 93.593 48.963 93 47.864 93h-16.02C30.753 93 30 93.601 30 94.706v6c0 1.113.745 2.294 1.845 2.294m73.008 25H31.855c-1.11 0-1.855.601-1.855 1.706v6c0 1.113.75 2.294 1.855 2.294h72.998c1.11 0 2.147-1.189 2.147-2.294v-6c0-1.113-1.041-1.706-2.147-1.706M31.845 87h16.019C48.956 87 50 85.811 50 84.706v-6C50 77.593 48.963 77 47.864 77h-16.02C30.753 77 30 77.601 30 78.706v6c0 1.113.745 2.294 1.845 2.294m73.018 6H88.844C87.752 93 87 93.601 87 94.706v6c0 1.113.745 2.294 1.844 2.294h16.02c1.091 0 2.136-1.189 2.136-2.294v-6c0-1.113-1.037-1.706-2.137-1.706m-.01-37H31.855c-1.11 0-1.855.601-1.855 1.706v6c0 1.113.75 2.294 1.855 2.294h72.998c1.11 0 2.147-1.189 2.147-2.294v-6c0-1.113-1.041-1.706-2.147-1.706m0 55H31.855c-1.11 0-1.855.601-1.855 1.706v6c0 1.113.75 2.294 1.855 2.294h72.998c1.11 0 2.147-1.189 2.147-2.294v-6c0-1.113-1.041-1.706-2.147-1.706m.01-34H88.844C87.752 77 87 77.601 87 78.706v6c0 1.113.745 2.294 1.844 2.294h16.02c1.091 0 2.136-1.189 2.136-2.294v-6c0-1.113-1.037-1.706-2.137-1.706" fill="#000"/>
    </g>
</svg>
