<svg width="155" height="142" viewBox="0 0 155 142" xmlns="http://www.w3.org/2000/svg" xmlns:xlink="http://www.w3.org/1999/xlink">
    <title>
        PBS-upload
    </title>
    <defs>
        <path id="a" d="M77.5 49H0V0h155v49H77.5z"/>
        <path id="c" d="M54.86.666H.875V100h53.983V.666z"/>
    </defs>
    <g fill="none" fill-rule="evenodd">
        <g transform="translate(0 92.334)">
            <mask id="b" fill="#fff">
                <use xlink:href="#a"/>
            </mask>
            <path d="M152.893 0h-16.018C135.782 0 135 1.311 135 2.415V29H20V2.415C20 1.317 18.963 0 17.863 0H1.845C.752 0 0 1.311 0 2.415v44.293C0 47.806.745 49 1.845 49h151.019c.232 0 .513-.182.72-.256.786-.267 1.416-1.156 1.416-2.036V2.415C155 1.317 153.993 0 152.893 0" fill="#000" mask="url(#b)"/>
        </g>
        <g transform="translate(49 .334)">
            <mask id="d" fill="#fff">
                <use xlink:href="#c"/>
            </mask>
            <path d="M2.054 42H18v55.71c0 1.101.634 2.29 1.734 2.29h16.018C36.845 100 38 98.812 38 97.71V42h15.682c1.099 0 1.502-.641.893-1.564L28.634 1.134c-.424-.643-1.109-.615-1.531.027L1.161 40.423C.551 41.348.952 42 2.054 42" fill="#000" mask="url(#d)"/>
        </g>
    </g>
</svg>
