<?xml version="1.0" encoding="UTF-8" standalone="no"?>
<svg width="256px" height="256px" viewBox="0 0 256 256" version="1.1" xmlns="http://www.w3.org/2000/svg" xmlns:xlink="http://www.w3.org/1999/xlink">
    <!-- Generator: Sketch 39.1 (31720) - http://www.bohemiancoding.com/sketch -->
    <title>PBS-shop</title>
    <desc>Created with Sketch.</desc>
    <defs></defs>
    <g id="Page-1" stroke="none" stroke-width="1" fill="none" fill-rule="evenodd">
        <g id="PBS-shop" fill="#222222">
            <g id="Group" transform="translate(29.000000, 42.000000)">
                <path d="M56.1355026,22.4796885 C56.45779,22.2587122 56.8477173,22.1294118 57.267361,22.1294118 L196.995526,22.1294118 C198.102566,22.1294118 199,23.0280644 199,24.1330129 L199,34.7051658 L199,90.5331261 C199,91.234676 198.640649,91.8521985 198.097083,92.2112654 C197.786615,92.692749 197.272456,93.0379489 196.657113,93.1135035 L74.3414586,108.131977 L78.296966,126.741176 L191.976918,126.741176 C193.080001,126.741176 193.974227,127.639829 193.974227,128.744778 L193.974227,139.825811 C193.974227,140.932369 193.08868,141.829412 191.976918,141.829412 L180.300513,141.829412 C185.947437,144.009073 189.953608,149.492234 189.953608,155.911765 C189.953608,164.244767 183.203262,171 174.876289,171 C166.549315,171 159.798969,164.244767 159.798969,155.911765 C159.798969,149.492234 163.805141,144.009073 169.452065,141.829412 L80.7592754,141.829412 C86.4061997,144.009073 90.4123711,149.492234 90.4123711,155.911765 C90.4123711,164.244767 83.6620252,171 75.3350515,171 C67.0080779,171 60.257732,164.244767 60.257732,155.911765 C60.257732,149.492234 64.2639034,144.009073 69.9108277,141.829412 L67.9973084,141.829412 C67.1654217,141.829412 66.4523202,141.318314 66.1519662,140.593079 C65.8832062,140.327975 65.6867146,139.985012 65.6030658,139.591475 L39.1390853,15.0882353 L2.00956591,15.0882353 C0.899713303,15.0882353 0,14.1895827 0,13.0846341 L0,2.00360115 C0,0.897042791 0.88976339,7.10542736e-13 2.00956591,7.10542736e-13 L49.2533207,7.10542736e-13 C49.8698856,7.10542736e-13 50.4215968,0.277344015 50.7902262,0.713326688 C51.2875562,0.983765985 51.6677955,1.46077933 51.7934409,2.05189448 L56.1355026,22.4796885 Z M59.2681524,37.2176471 L183.92268,37.2176471 L183.92268,79.47555 L71.1924552,93.3170812 L59.2681524,37.2176471 Z" id="Combined-Shape"></path>
            </g>
        </g>
    </g>
</svg>