<svg id="pbs_logo" xmlns="http://www.w3.org/2000/svg" viewBox="0 0 205.6 115.2">
  <style>
    .st0{fill:#FFFFFF;}
  </style>
  <circle cx="57.6" cy="57.6" r="57.6"/>
  <path id="face" class="st0" d="M63.5 25.5H46.1c-14.3 0-26 10-26 24.8 0 12.4 7.5 21.3 18.7 23v17.3H62V74h3.2c3.8-.4 6.3-2.9 6.4-6.4V58h6.3L63.5 25.5zm-4.6 27.9c-3.1 0-5.7-2.6-5.7-5.7s2.6-5.7 5.7-5.7 5.7 2.6 5.7 5.7c0 3.2-2.5 5.7-5.7 5.7zM83 25.5h-9.4L87.8 58h-6.5v8.6c0 5.2-2.2 7.5-9.3 7.4v16.6h9.3V74h3.1c2.7.1 6.4-2.1 6.4-6.4V58h6.3L83 25.5z"/>
  <path id="pbs" d="M133.6 47h-4v-5h13.3c7.2 0 11.3 3.7 11.3 9.5 0 5.9-4.3 9.6-11.1 9.6h-3.6v7.5h4.7v5h-14.6v-5h4.1V47zm5.9 9.1h3.9c3.3 0 5.1-2.1 5.1-4.6 0-2.6-1.9-4.6-5.1-4.6h-3.9v9.2zM159.9 47h-3.6v-5H169c7.9 0 10.4 4.7 10.4 8.2 0 2.9-1.6 5.3-3.8 6.4 3.2 1.3 5 4.6 5 7.5 0 6.9-5.4 9.7-10.6 9.7h-14.1v-5h4.1V47zm5.8 21.7h3.7c3 0 5.1-1.7 5.1-4.5 0-2.4-1.6-4.5-5.1-4.5h-3.7v9zm0-14h3.5c2.6 0 4.4-1.5 4.4-3.9 0-2.3-1.7-3.8-4.4-3.8h-3.5v7.7zM199.2 46.9c-1-.4-2.4-.8-3.8-.8-3.9 0-5.1 2.2-5.1 4 0 2.3 1.5 3 3.3 3.5l3.4.9c4.1 1.2 8.7 2.7 8.7 9.2 0 6-3.6 10.3-11.6 10.3-3.1 0-6.3-.4-10-1.7V64h5.8v4.1c1.5.7 3.1.8 4.7.8 3.4 0 5-1.8 5-4.2 0-1.6-.8-2.8-4.6-3.9l-3.1-.9c-5.8-1.7-7.7-4.2-7.7-9 0-5 3.1-9.4 11-9.4 3.4 0 6.8.6 9.2 1.7v7.5h-5.3v-3.8z"/>
</svg>
