<svg id="pbs-head" class="pbs-head" xmlns="http://www.w3.org/2000/svg" x="0px" y="0px" viewBox="-202 339.8 115.2 115.2">
  <style type="text/css">
    .face{fill:#FFFFFF;}
  </style>
  <circle class="circle" cx="-144.4" cy="397.4" r="57.6"/>
  <path id="face" class="face" d="M-138.5,365.3h-17.4c-14.3,0-26,10-26,24.8c0,12.4,7.5,21.3,18.7,23v17.3h23.2v-16.6h3.2
    c3.8-0.4,6.3-2.9,6.4-6.4v-9.6h6.3L-138.5,365.3z M-143.1,393.2c-3.1,0-5.7-2.6-5.7-5.7c0-3.1,2.6-5.7,5.7-5.7
    c3.1,0,5.7,2.6,5.7,5.7C-137.4,390.7-139.9,393.2-143.1,393.2z M-119,365.3h-9.4l14.2,32.5h-6.5v8.6c0,5.2-2.2,7.5-9.3,7.4v16.6h9.3
    v-16.6h3.1c2.7,0.1,6.4-2.1,6.4-6.4v-9.6h6.3L-119,365.3z"/>
</svg>
